<svg xmlns="http://www.w3.org/2000/svg" width="14760" height="260" viewBox="0 0 14760 260">
<rect x="0" y="0" width="100%" height="100%" fill="#ffffff"/>
<circle cx="340.00" cy="130.00" r="30.00" fill="#ffffff" stroke="#111111" stroke-width="2.0"/>
<circle cx="340.00" cy="100.00" r="4.0" fill="#111111"/>
<circle cx="314.02" cy="115.00" r="3.3" fill="#ffffff" stroke="#111111" stroke-width="1.4"/>
<circle cx="365.98" cy="115.00" r="3.3" fill="#ffffff" stroke="#111111" stroke-width="1.4"/>
<text x="340.00" y="134.00" text-anchor="middle" font-family="Times New Roman, serif" font-size="12" fill="#111111">CON</text>
<circle cx="520.00" cy="130.00" r="30.00" fill="#ffffff" stroke="#111111" stroke-width="2.0"/>
<circle cx="520.00" cy="100.00" r="4.0" fill="#111111"/>
<text x="520.00" y="134.00" text-anchor="middle" font-family="Times New Roman, serif" font-size="12" fill="#111111">INT</text>
<circle cx="700.00" cy="130.00" r="30.00" fill="#ffffff" stroke="#111111" stroke-width="2.0"/>
<circle cx="700.00" cy="100.00" r="4.0" fill="#111111"/>
<circle cx="674.02" cy="115.00" r="3.3" fill="#ffffff" stroke="#111111" stroke-width="1.4"/>
<circle cx="725.98" cy="115.00" r="3.3" fill="#ffffff" stroke="#111111" stroke-width="1.4"/>
<text x="700.00" y="134.00" text-anchor="middle" font-family="Times New Roman, serif" font-size="12" fill="#111111">CON</text>
<circle cx="880.00" cy="130.00" r="30.00" fill="#ffffff" stroke="#111111" stroke-width="2.0"/>
<circle cx="880.00" cy="100.00" r="4.0" fill="#111111"/>
<text x="880.00" y="134.00" text-anchor="middle" font-family="Times New Roman, serif" font-size="12" fill="#111111">INT</text>
<circle cx="1060.00" cy="130.00" r="30.00" fill="#ffffff" stroke="#111111" stroke-width="2.0"/>
<circle cx="1060.00" cy="100.00" r="4.0" fill="#111111"/>
<circle cx="1034.02" cy="115.00" r="3.3" fill="#ffffff" stroke="#111111" stroke-width="1.4"/>
<circle cx="1085.98" cy="115.00" r="3.3" fill="#ffffff" stroke="#111111" stroke-width="1.4"/>
<text x="1060.00" y="134.00" text-anchor="middle" font-family="Times New Roman, serif" font-size="12" fill="#111111">CON</text>
<circle cx="1240.00" cy="130.00" r="30.00" fill="#ffffff" stroke="#111111" stroke-width="2.0"/>
<circle cx="1240.00" cy="100.00" r="4.0" fill="#111111"/>
<text x="1240.00" y="134.00" text-anchor="middle" font-family="Times New Roman, serif" font-size="12" fill="#111111">INT</text>
<circle cx="1420.00" cy="130.00" r="30.00" fill="#ffffff" stroke="#111111" stroke-width="2.0"/>
<circle cx="1420.00" cy="100.00" r="4.0" fill="#111111"/>
<circle cx="1394.02" cy="115.00" r="3.3" fill="#ffffff" stroke="#111111" stroke-width="1.4"/>
<circle cx="1445.98" cy="115.00" r="3.3" fill="#ffffff" stroke="#111111" stroke-width="1.4"/>
<text x="1420.00" y="134.00" text-anchor="middle" font-family="Times New Roman, serif" font-size="12" fill="#111111">CON</text>
<circle cx="1600.00" cy="130.00" r="30.00" fill="#ffffff" stroke="#111111" stroke-width="2.0"/>
<circle cx="1600.00" cy="100.00" r="4.0" fill="#111111"/>
<text x="1600.00" y="134.00" text-anchor="middle" font-family="Times New Roman, serif" font-size="12" fill="#111111">INT</text>
<circle cx="1780.00" cy="130.00" r="30.00" fill="#ffffff" stroke="#111111" stroke-width="2.0"/>
<circle cx="1780.00" cy="100.00" r="4.0" fill="#111111"/>
<text x="1780.00" y="134.00" text-anchor="middle" font-family="Times New Roman, serif" font-size="12" fill="#111111">NIL</text>
<circle cx="1960.00" cy="130.00" r="30.00" fill="#ffffff" stroke="#111111" stroke-width="2.0"/>
<circle cx="1960.00" cy="100.00" r="4.0" fill="#111111"/>
<text x="1960.00" y="134.00" text-anchor="middle" font-family="Times New Roman, serif" font-size="12" fill="#111111">INT</text>
<circle cx="2140.00" cy="130.00" r="30.00" fill="#ffffff" stroke="#111111" stroke-width="2.0"/>
<circle cx="2140.00" cy="100.00" r="4.0" fill="#111111"/>
<circle cx="2114.02" cy="115.00" r="3.3" fill="#ffffff" stroke="#111111" stroke-width="1.4"/>
<circle cx="2165.98" cy="115.00" r="3.3" fill="#ffffff" stroke="#111111" stroke-width="1.4"/>
<text x="2140.00" y="134.00" text-anchor="middle" font-family="Times New Roman, serif" font-size="12" fill="#111111">CON</text>
<circle cx="2320.00" cy="130.00" r="30.00" fill="#ffffff" stroke="#111111" stroke-width="2.0"/>
<circle cx="2320.00" cy="100.00" r="4.0" fill="#111111"/>
<text x="2320.00" y="134.00" text-anchor="middle" font-family="Times New Roman, serif" font-size="12" fill="#111111">INT</text>
<circle cx="2500.00" cy="130.00" r="30.00" fill="#ffffff" stroke="#111111" stroke-width="2.0"/>
<circle cx="2500.00" cy="100.00" r="4.0" fill="#111111"/>
<circle cx="2474.02" cy="115.00" r="3.3" fill="#ffffff" stroke="#111111" stroke-width="1.4"/>
<circle cx="2525.98" cy="115.00" r="3.3" fill="#ffffff" stroke="#111111" stroke-width="1.4"/>
<text x="2500.00" y="134.00" text-anchor="middle" font-family="Times New Roman, serif" font-size="12" fill="#111111">CON</text>
<circle cx="2680.00" cy="130.00" r="30.00" fill="#ffffff" stroke="#111111" stroke-width="2.0"/>
<circle cx="2680.00" cy="100.00" r="4.0" fill="#111111"/>
<text x="2680.00" y="134.00" text-anchor="middle" font-family="Times New Roman, serif" font-size="12" fill="#111111">INT</text>
<circle cx="2860.00" cy="130.00" r="30.00" fill="#ffffff" stroke="#111111" stroke-width="2.0"/>
<circle cx="2860.00" cy="100.00" r="4.0" fill="#111111"/>
<circle cx="2834.02" cy="115.00" r="3.3" fill="#ffffff" stroke="#111111" stroke-width="1.4"/>
<circle cx="2885.98" cy="115.00" r="3.3" fill="#ffffff" stroke="#111111" stroke-width="1.4"/>
<text x="2860.00" y="134.00" text-anchor="middle" font-family="Times New Roman, serif" font-size="12" fill="#111111">CON</text>
<circle cx="3040.00" cy="130.00" r="30.00" fill="#ffffff" stroke="#111111" stroke-width="2.0"/>
<circle cx="3040.00" cy="100.00" r="4.0" fill="#111111"/>
<text x="3040.00" y="134.00" text-anchor="middle" font-family="Times New Roman, serif" font-size="12" fill="#111111">INT</text>
<circle cx="3220.00" cy="130.00" r="30.00" fill="#ffffff" stroke="#111111" stroke-width="2.0"/>
<circle cx="3220.00" cy="100.00" r="4.0" fill="#111111"/>
<text x="3220.00" y="134.00" text-anchor="middle" font-family="Times New Roman, serif" font-size="12" fill="#111111">NIL</text>
<circle cx="3400.00" cy="130.00" r="30.00" fill="#ffffff" stroke="#111111" stroke-width="2.0"/>
<circle cx="3400.00" cy="100.00" r="4.0" fill="#111111"/>
<circle cx="3374.02" cy="115.00" r="3.3" fill="#ffffff" stroke="#111111" stroke-width="1.4"/>
<circle cx="3425.98" cy="115.00" r="3.3" fill="#ffffff" stroke="#111111" stroke-width="1.4"/>
<text x="3400.00" y="134.00" text-anchor="middle" font-family="Times New Roman, serif" font-size="12" fill="#111111">CON</text>
<circle cx="3580.00" cy="130.00" r="30.00" fill="#ffffff" stroke="#111111" stroke-width="2.0"/>
<circle cx="3580.00" cy="100.00" r="4.0" fill="#111111"/>
<text x="3580.00" y="134.00" text-anchor="middle" font-family="Times New Roman, serif" font-size="12" fill="#111111">INT</text>
<circle cx="3760.00" cy="130.00" r="30.00" fill="#ffffff" stroke="#111111" stroke-width="2.0"/>
<circle cx="3760.00" cy="100.00" r="4.0" fill="#111111"/>
<circle cx="3734.02" cy="115.00" r="3.3" fill="#ffffff" stroke="#111111" stroke-width="1.4"/>
<circle cx="3785.98" cy="115.00" r="3.3" fill="#ffffff" stroke="#111111" stroke-width="1.4"/>
<text x="3760.00" y="134.00" text-anchor="middle" font-family="Times New Roman, serif" font-size="12" fill="#111111">CON</text>
<circle cx="3940.00" cy="130.00" r="30.00" fill="#ffffff" stroke="#111111" stroke-width="2.0"/>
<circle cx="3940.00" cy="100.00" r="4.0" fill="#111111"/>
<text x="3940.00" y="134.00" text-anchor="middle" font-family="Times New Roman, serif" font-size="12" fill="#111111">INT</text>
<circle cx="4120.00" cy="130.00" r="30.00" fill="#ffffff" stroke="#111111" stroke-width="2.0"/>
<circle cx="4120.00" cy="100.00" r="4.0" fill="#111111"/>
<text x="4120.00" y="134.00" text-anchor="middle" font-family="Times New Roman, serif" font-size="12" fill="#111111">NIL</text>
<circle cx="4300.00" cy="130.00" r="30.00" fill="#ffffff" stroke="#111111" stroke-width="2.0"/>
<circle cx="4300.00" cy="100.00" r="4.0" fill="#111111"/>
<text x="4300.00" y="134.00" text-anchor="middle" font-family="Times New Roman, serif" font-size="12" fill="#111111">INT</text>
<circle cx="4480.00" cy="130.00" r="30.00" fill="#ffffff" stroke="#111111" stroke-width="2.0"/>
<circle cx="4480.00" cy="100.00" r="4.0" fill="#111111"/>
<circle cx="4454.02" cy="115.00" r="3.3" fill="#ffffff" stroke="#111111" stroke-width="1.4"/>
<circle cx="4505.98" cy="115.00" r="3.3" fill="#ffffff" stroke="#111111" stroke-width="1.4"/>
<text x="4480.00" y="134.00" text-anchor="middle" font-family="Times New Roman, serif" font-size="12" fill="#111111">CON</text>
<circle cx="4660.00" cy="130.00" r="30.00" fill="#ffffff" stroke="#111111" stroke-width="2.0"/>
<circle cx="4660.00" cy="100.00" r="4.0" fill="#111111"/>
<text x="4660.00" y="134.00" text-anchor="middle" font-family="Times New Roman, serif" font-size="12" fill="#111111">INT</text>
<circle cx="4840.00" cy="130.00" r="30.00" fill="#ffffff" stroke="#111111" stroke-width="2.0"/>
<circle cx="4840.00" cy="100.00" r="4.0" fill="#111111"/>
<circle cx="4814.02" cy="115.00" r="3.3" fill="#ffffff" stroke="#111111" stroke-width="1.4"/>
<circle cx="4865.98" cy="115.00" r="3.3" fill="#ffffff" stroke="#111111" stroke-width="1.4"/>
<text x="4840.00" y="134.00" text-anchor="middle" font-family="Times New Roman, serif" font-size="12" fill="#111111">CON</text>
<circle cx="5020.00" cy="130.00" r="30.00" fill="#ffffff" stroke="#111111" stroke-width="2.0"/>
<circle cx="5020.00" cy="100.00" r="4.0" fill="#111111"/>
<text x="5020.00" y="134.00" text-anchor="middle" font-family="Times New Roman, serif" font-size="12" fill="#111111">INT</text>
<circle cx="5200.00" cy="130.00" r="30.00" fill="#ffffff" stroke="#111111" stroke-width="2.0"/>
<circle cx="5200.00" cy="100.00" r="4.0" fill="#111111"/>
<circle cx="5174.02" cy="115.00" r="3.3" fill="#ffffff" stroke="#111111" stroke-width="1.4"/>
<circle cx="5225.98" cy="115.00" r="3.3" fill="#ffffff" stroke="#111111" stroke-width="1.4"/>
<text x="5200.00" y="134.00" text-anchor="middle" font-family="Times New Roman, serif" font-size="12" fill="#111111">CON</text>
<circle cx="5380.00" cy="130.00" r="30.00" fill="#ffffff" stroke="#111111" stroke-width="2.0"/>
<circle cx="5380.00" cy="100.00" r="4.0" fill="#111111"/>
<text x="5380.00" y="134.00" text-anchor="middle" font-family="Times New Roman, serif" font-size="12" fill="#111111">INT</text>
<circle cx="5560.00" cy="130.00" r="30.00" fill="#ffffff" stroke="#111111" stroke-width="2.0"/>
<circle cx="5560.00" cy="100.00" r="4.0" fill="#111111"/>
<text x="5560.00" y="134.00" text-anchor="middle" font-family="Times New Roman, serif" font-size="12" fill="#111111">NIL</text>
<circle cx="5740.00" cy="130.00" r="30.00" fill="#ffffff" stroke="#111111" stroke-width="2.0"/>
<circle cx="5740.00" cy="100.00" r="4.0" fill="#111111"/>
<circle cx="5714.02" cy="115.00" r="3.3" fill="#ffffff" stroke="#111111" stroke-width="1.4"/>
<circle cx="5765.98" cy="115.00" r="3.3" fill="#ffffff" stroke="#111111" stroke-width="1.4"/>
<text x="5740.00" y="134.00" text-anchor="middle" font-family="Times New Roman, serif" font-size="12" fill="#111111">CON</text>
<circle cx="5920.00" cy="130.00" r="30.00" fill="#ffffff" stroke="#111111" stroke-width="2.0"/>
<circle cx="5920.00" cy="100.00" r="4.0" fill="#111111"/>
<text x="5920.00" y="134.00" text-anchor="middle" font-family="Times New Roman, serif" font-size="12" fill="#111111">INT</text>
<circle cx="6100.00" cy="130.00" r="30.00" fill="#ffffff" stroke="#111111" stroke-width="2.0"/>
<circle cx="6100.00" cy="100.00" r="4.0" fill="#111111"/>
<text x="6100.00" y="134.00" text-anchor="middle" font-family="Times New Roman, serif" font-size="12" fill="#111111">NIL</text>
<circle cx="6280.00" cy="130.00" r="30.00" fill="#ffffff" stroke="#111111" stroke-width="2.0"/>
<circle cx="6280.00" cy="100.00" r="4.0" fill="#111111"/>
<text x="6280.00" y="134.00" text-anchor="middle" font-family="Times New Roman, serif" font-size="12" fill="#111111">INT</text>
<circle cx="6460.00" cy="130.00" r="30.00" fill="#ffffff" stroke="#111111" stroke-width="2.0"/>
<circle cx="6460.00" cy="100.00" r="4.0" fill="#111111"/>
<circle cx="6434.02" cy="115.00" r="3.3" fill="#ffffff" stroke="#111111" stroke-width="1.4"/>
<circle cx="6485.98" cy="115.00" r="3.3" fill="#ffffff" stroke="#111111" stroke-width="1.4"/>
<text x="6460.00" y="134.00" text-anchor="middle" font-family="Times New Roman, serif" font-size="12" fill="#111111">CON</text>
<circle cx="6640.00" cy="130.00" r="30.00" fill="#ffffff" stroke="#111111" stroke-width="2.0"/>
<circle cx="6640.00" cy="100.00" r="4.0" fill="#111111"/>
<text x="6640.00" y="134.00" text-anchor="middle" font-family="Times New Roman, serif" font-size="12" fill="#111111">INT</text>
<circle cx="6820.00" cy="130.00" r="30.00" fill="#ffffff" stroke="#111111" stroke-width="2.0"/>
<circle cx="6820.00" cy="100.00" r="4.0" fill="#111111"/>
<circle cx="6794.02" cy="115.00" r="3.3" fill="#ffffff" stroke="#111111" stroke-width="1.4"/>
<circle cx="6845.98" cy="115.00" r="3.3" fill="#ffffff" stroke="#111111" stroke-width="1.4"/>
<text x="6820.00" y="134.00" text-anchor="middle" font-family="Times New Roman, serif" font-size="12" fill="#111111">CON</text>
<circle cx="7000.00" cy="130.00" r="30.00" fill="#ffffff" stroke="#111111" stroke-width="2.0"/>
<circle cx="7000.00" cy="100.00" r="4.0" fill="#111111"/>
<text x="7000.00" y="134.00" text-anchor="middle" font-family="Times New Roman, serif" font-size="12" fill="#111111">INT</text>
<circle cx="7180.00" cy="130.00" r="30.00" fill="#ffffff" stroke="#111111" stroke-width="2.0"/>
<circle cx="7180.00" cy="100.00" r="4.0" fill="#111111"/>
<circle cx="7154.02" cy="115.00" r="3.3" fill="#ffffff" stroke="#111111" stroke-width="1.4"/>
<circle cx="7205.98" cy="115.00" r="3.3" fill="#ffffff" stroke="#111111" stroke-width="1.4"/>
<text x="7180.00" y="134.00" text-anchor="middle" font-family="Times New Roman, serif" font-size="12" fill="#111111">CON</text>
<circle cx="7360.00" cy="130.00" r="30.00" fill="#ffffff" stroke="#111111" stroke-width="2.0"/>
<circle cx="7360.00" cy="100.00" r="4.0" fill="#111111"/>
<text x="7360.00" y="134.00" text-anchor="middle" font-family="Times New Roman, serif" font-size="12" fill="#111111">INT</text>
<circle cx="7540.00" cy="130.00" r="30.00" fill="#ffffff" stroke="#111111" stroke-width="2.0"/>
<circle cx="7540.00" cy="100.00" r="4.0" fill="#111111"/>
<text x="7540.00" y="134.00" text-anchor="middle" font-family="Times New Roman, serif" font-size="12" fill="#111111">NIL</text>
<circle cx="7720.00" cy="130.00" r="30.00" fill="#ffffff" stroke="#111111" stroke-width="2.0"/>
<circle cx="7720.00" cy="100.00" r="4.0" fill="#111111"/>
<text x="7720.00" y="134.00" text-anchor="middle" font-family="Times New Roman, serif" font-size="12" fill="#111111">INT</text>
<circle cx="7900.00" cy="130.00" r="30.00" fill="#ffffff" stroke="#111111" stroke-width="2.0"/>
<circle cx="7900.00" cy="100.00" r="4.0" fill="#111111"/>
<text x="7900.00" y="134.00" text-anchor="middle" font-family="Times New Roman, serif" font-size="12" fill="#111111">INT</text>
<circle cx="8080.00" cy="130.00" r="30.00" fill="#ffffff" stroke="#111111" stroke-width="2.0"/>
<circle cx="8080.00" cy="100.00" r="4.0" fill="#111111"/>
<circle cx="8054.02" cy="115.00" r="3.3" fill="#ffffff" stroke="#111111" stroke-width="1.4"/>
<circle cx="8105.98" cy="115.00" r="3.3" fill="#ffffff" stroke="#111111" stroke-width="1.4"/>
<text x="8080.00" y="134.00" text-anchor="middle" font-family="Times New Roman, serif" font-size="12" fill="#111111">CON</text>
<circle cx="8260.00" cy="130.00" r="30.00" fill="#ffffff" stroke="#111111" stroke-width="2.0"/>
<circle cx="8260.00" cy="100.00" r="4.0" fill="#111111"/>
<text x="8260.00" y="134.00" text-anchor="middle" font-family="Times New Roman, serif" font-size="12" fill="#111111">INT</text>
<circle cx="8440.00" cy="130.00" r="30.00" fill="#ffffff" stroke="#111111" stroke-width="2.0"/>
<circle cx="8440.00" cy="100.00" r="4.0" fill="#111111"/>
<circle cx="8414.02" cy="115.00" r="3.3" fill="#ffffff" stroke="#111111" stroke-width="1.4"/>
<circle cx="8465.98" cy="115.00" r="3.3" fill="#ffffff" stroke="#111111" stroke-width="1.4"/>
<text x="8440.00" y="134.00" text-anchor="middle" font-family="Times New Roman, serif" font-size="12" fill="#111111">CON</text>
<circle cx="8620.00" cy="130.00" r="30.00" fill="#ffffff" stroke="#111111" stroke-width="2.0"/>
<circle cx="8620.00" cy="100.00" r="4.0" fill="#111111"/>
<text x="8620.00" y="134.00" text-anchor="middle" font-family="Times New Roman, serif" font-size="12" fill="#111111">INT</text>
<circle cx="8800.00" cy="130.00" r="30.00" fill="#ffffff" stroke="#111111" stroke-width="2.0"/>
<circle cx="8800.00" cy="100.00" r="4.0" fill="#111111"/>
<text x="8800.00" y="134.00" text-anchor="middle" font-family="Times New Roman, serif" font-size="12" fill="#111111">NIL</text>
<circle cx="8980.00" cy="130.00" r="30.00" fill="#ffffff" stroke="#111111" stroke-width="2.0"/>
<circle cx="8980.00" cy="100.00" r="4.0" fill="#111111"/>
<text x="8980.00" y="134.00" text-anchor="middle" font-family="Times New Roman, serif" font-size="12" fill="#111111">INT</text>
<circle cx="9160.00" cy="130.00" r="30.00" fill="#ffffff" stroke="#111111" stroke-width="2.0"/>
<circle cx="9160.00" cy="100.00" r="4.0" fill="#111111"/>
<text x="9160.00" y="134.00" text-anchor="middle" font-family="Times New Roman, serif" font-size="12" fill="#111111">NIL</text>
<circle cx="9340.00" cy="130.00" r="30.00" fill="#ffffff" stroke="#111111" stroke-width="2.0"/>
<circle cx="9340.00" cy="100.00" r="4.0" fill="#111111"/>
<circle cx="9314.02" cy="115.00" r="3.3" fill="#ffffff" stroke="#111111" stroke-width="1.4"/>
<circle cx="9365.98" cy="115.00" r="3.3" fill="#ffffff" stroke="#111111" stroke-width="1.4"/>
<text x="9340.00" y="134.00" text-anchor="middle" font-family="Times New Roman, serif" font-size="12" fill="#111111">CON</text>
<circle cx="9520.00" cy="130.00" r="30.00" fill="#ffffff" stroke="#111111" stroke-width="2.0"/>
<circle cx="9520.00" cy="100.00" r="4.0" fill="#111111"/>
<text x="9520.00" y="134.00" text-anchor="middle" font-family="Times New Roman, serif" font-size="12" fill="#111111">INT</text>
<circle cx="9700.00" cy="130.00" r="30.00" fill="#ffffff" stroke="#111111" stroke-width="2.0"/>
<circle cx="9700.00" cy="100.00" r="4.0" fill="#111111"/>
<text x="9700.00" y="134.00" text-anchor="middle" font-family="Times New Roman, serif" font-size="12" fill="#111111">NIL</text>
<circle cx="9880.00" cy="130.00" r="30.00" fill="#ffffff" stroke="#111111" stroke-width="2.0"/>
<circle cx="9880.00" cy="100.00" r="4.0" fill="#111111"/>
<circle cx="9854.02" cy="115.00" r="3.3" fill="#ffffff" stroke="#111111" stroke-width="1.4"/>
<circle cx="9905.98" cy="115.00" r="3.3" fill="#ffffff" stroke="#111111" stroke-width="1.4"/>
<text x="9880.00" y="134.00" text-anchor="middle" font-family="Times New Roman, serif" font-size="12" fill="#111111">CON</text>
<circle cx="10060.00" cy="130.00" r="30.00" fill="#ffffff" stroke="#111111" stroke-width="2.0"/>
<circle cx="10060.00" cy="100.00" r="4.0" fill="#111111"/>
<text x="10060.00" y="134.00" text-anchor="middle" font-family="Times New Roman, serif" font-size="12" fill="#111111">INT</text>
<circle cx="10240.00" cy="130.00" r="30.00" fill="#ffffff" stroke="#111111" stroke-width="2.0"/>
<circle cx="10240.00" cy="100.00" r="4.0" fill="#111111"/>
<text x="10240.00" y="134.00" text-anchor="middle" font-family="Times New Roman, serif" font-size="12" fill="#111111">NIL</text>
<circle cx="10420.00" cy="130.00" r="30.00" fill="#ffffff" stroke="#111111" stroke-width="2.0"/>
<circle cx="10420.00" cy="100.00" r="4.0" fill="#111111"/>
<circle cx="10394.02" cy="115.00" r="3.3" fill="#ffffff" stroke="#111111" stroke-width="1.4"/>
<circle cx="10445.98" cy="115.00" r="3.3" fill="#ffffff" stroke="#111111" stroke-width="1.4"/>
<text x="10420.00" y="134.00" text-anchor="middle" font-family="Times New Roman, serif" font-size="12" fill="#111111">CON</text>
<circle cx="10600.00" cy="130.00" r="30.00" fill="#ffffff" stroke="#111111" stroke-width="2.0"/>
<circle cx="10600.00" cy="100.00" r="4.0" fill="#111111"/>
<text x="10600.00" y="134.00" text-anchor="middle" font-family="Times New Roman, serif" font-size="12" fill="#111111">INT</text>
<circle cx="10780.00" cy="130.00" r="30.00" fill="#ffffff" stroke="#111111" stroke-width="2.0"/>
<circle cx="10780.00" cy="100.00" r="4.0" fill="#111111"/>
<circle cx="10754.02" cy="115.00" r="3.3" fill="#ffffff" stroke="#111111" stroke-width="1.4"/>
<circle cx="10805.98" cy="115.00" r="3.3" fill="#ffffff" stroke="#111111" stroke-width="1.4"/>
<text x="10780.00" y="134.00" text-anchor="middle" font-family="Times New Roman, serif" font-size="12" fill="#111111">CON</text>
<circle cx="10960.00" cy="130.00" r="30.00" fill="#ffffff" stroke="#111111" stroke-width="2.0"/>
<circle cx="10960.00" cy="100.00" r="4.0" fill="#111111"/>
<text x="10960.00" y="134.00" text-anchor="middle" font-family="Times New Roman, serif" font-size="12" fill="#111111">INT</text>
<circle cx="11140.00" cy="130.00" r="30.00" fill="#ffffff" stroke="#111111" stroke-width="2.0"/>
<circle cx="11140.00" cy="100.00" r="4.0" fill="#111111"/>
<text x="11140.00" y="134.00" text-anchor="middle" font-family="Times New Roman, serif" font-size="12" fill="#111111">NIL</text>
<circle cx="11320.00" cy="130.00" r="30.00" fill="#ffffff" stroke="#111111" stroke-width="2.0"/>
<circle cx="11320.00" cy="100.00" r="4.0" fill="#111111"/>
<circle cx="11294.02" cy="115.00" r="3.3" fill="#ffffff" stroke="#111111" stroke-width="1.4"/>
<circle cx="11345.98" cy="115.00" r="3.3" fill="#ffffff" stroke="#111111" stroke-width="1.4"/>
<text x="11320.00" y="134.00" text-anchor="middle" font-family="Times New Roman, serif" font-size="12" fill="#111111">CON</text>
<circle cx="11500.00" cy="130.00" r="30.00" fill="#ffffff" stroke="#111111" stroke-width="2.0"/>
<circle cx="11500.00" cy="100.00" r="4.0" fill="#111111"/>
<text x="11500.00" y="134.00" text-anchor="middle" font-family="Times New Roman, serif" font-size="12" fill="#111111">INT</text>
<circle cx="11680.00" cy="130.00" r="30.00" fill="#ffffff" stroke="#111111" stroke-width="2.0"/>
<circle cx="11680.00" cy="100.00" r="4.0" fill="#111111"/>
<circle cx="11654.02" cy="115.00" r="3.3" fill="#ffffff" stroke="#111111" stroke-width="1.4"/>
<circle cx="11705.98" cy="115.00" r="3.3" fill="#ffffff" stroke="#111111" stroke-width="1.4"/>
<text x="11680.00" y="134.00" text-anchor="middle" font-family="Times New Roman, serif" font-size="12" fill="#111111">CON</text>
<circle cx="11860.00" cy="130.00" r="30.00" fill="#ffffff" stroke="#111111" stroke-width="2.0"/>
<circle cx="11860.00" cy="100.00" r="4.0" fill="#111111"/>
<text x="11860.00" y="134.00" text-anchor="middle" font-family="Times New Roman, serif" font-size="12" fill="#111111">INT</text>
<circle cx="12040.00" cy="130.00" r="30.00" fill="#ffffff" stroke="#111111" stroke-width="2.0"/>
<circle cx="12040.00" cy="100.00" r="4.0" fill="#111111"/>
<circle cx="12014.02" cy="115.00" r="3.3" fill="#ffffff" stroke="#111111" stroke-width="1.4"/>
<circle cx="12065.98" cy="115.00" r="3.3" fill="#ffffff" stroke="#111111" stroke-width="1.4"/>
<text x="12040.00" y="134.00" text-anchor="middle" font-family="Times New Roman, serif" font-size="12" fill="#111111">CON</text>
<circle cx="12220.00" cy="130.00" r="30.00" fill="#ffffff" stroke="#111111" stroke-width="2.0"/>
<circle cx="12220.00" cy="100.00" r="4.0" fill="#111111"/>
<text x="12220.00" y="134.00" text-anchor="middle" font-family="Times New Roman, serif" font-size="12" fill="#111111">INT</text>
<circle cx="12400.00" cy="130.00" r="30.00" fill="#ffffff" stroke="#111111" stroke-width="2.0"/>
<circle cx="12400.00" cy="100.00" r="4.0" fill="#111111"/>
<circle cx="12374.02" cy="115.00" r="3.3" fill="#ffffff" stroke="#111111" stroke-width="1.4"/>
<circle cx="12425.98" cy="115.00" r="3.3" fill="#ffffff" stroke="#111111" stroke-width="1.4"/>
<text x="12400.00" y="134.00" text-anchor="middle" font-family="Times New Roman, serif" font-size="12" fill="#111111">CON</text>
<circle cx="12580.00" cy="130.00" r="30.00" fill="#ffffff" stroke="#111111" stroke-width="2.0"/>
<circle cx="12580.00" cy="100.00" r="4.0" fill="#111111"/>
<text x="12580.00" y="134.00" text-anchor="middle" font-family="Times New Roman, serif" font-size="12" fill="#111111">INT</text>
<circle cx="12760.00" cy="130.00" r="30.00" fill="#ffffff" stroke="#111111" stroke-width="2.0"/>
<circle cx="12760.00" cy="100.00" r="4.0" fill="#111111"/>
<text x="12760.00" y="134.00" text-anchor="middle" font-family="Times New Roman, serif" font-size="12" fill="#111111">NIL</text>
<circle cx="160.00" cy="130.00" r="30.00" fill="#f5f5f5" stroke="#111111" stroke-width="2.8"/>
<circle cx="160.00" cy="100.00" r="4.0" fill="#111111"/>
<circle cx="134.02" cy="115.00" r="3.3" fill="#ffffff" stroke="#111111" stroke-width="1.4"/>
<circle cx="185.98" cy="115.00" r="3.3" fill="#ffffff" stroke="#111111" stroke-width="1.4"/>
<text x="160.00" y="134.00" text-anchor="middle" font-family="Times New Roman, serif" font-size="12" fill="#111111">PAR</text>
<circle cx="12940.00" cy="130.00" r="30.00" fill="#ffffff" stroke="#111111" stroke-width="2.0"/>
<circle cx="12940.00" cy="100.00" r="4.0" fill="#111111"/>
<text x="12940.00" y="134.00" text-anchor="middle" font-family="Times New Roman, serif" font-size="12" fill="#111111">INT</text>
<circle cx="13120.00" cy="130.00" r="30.00" fill="#ffffff" stroke="#111111" stroke-width="2.0"/>
<circle cx="13120.00" cy="100.00" r="4.0" fill="#111111"/>
<circle cx="13094.02" cy="115.00" r="3.3" fill="#ffffff" stroke="#111111" stroke-width="1.4"/>
<circle cx="13145.98" cy="115.00" r="3.3" fill="#ffffff" stroke="#111111" stroke-width="1.4"/>
<text x="13120.00" y="134.00" text-anchor="middle" font-family="Times New Roman, serif" font-size="12" fill="#111111">CON</text>
<circle cx="13300.00" cy="130.00" r="30.00" fill="#ffffff" stroke="#111111" stroke-width="2.0"/>
<circle cx="13300.00" cy="100.00" r="4.0" fill="#111111"/>
<text x="13300.00" y="134.00" text-anchor="middle" font-family="Times New Roman, serif" font-size="12" fill="#111111">INT</text>
<circle cx="13480.00" cy="130.00" r="30.00" fill="#ffffff" stroke="#111111" stroke-width="2.0"/>
<circle cx="13480.00" cy="100.00" r="4.0" fill="#111111"/>
<circle cx="13454.02" cy="115.00" r="3.3" fill="#ffffff" stroke="#111111" stroke-width="1.4"/>
<circle cx="13505.98" cy="115.00" r="3.3" fill="#ffffff" stroke="#111111" stroke-width="1.4"/>
<text x="13480.00" y="134.00" text-anchor="middle" font-family="Times New Roman, serif" font-size="12" fill="#111111">CON</text>
<circle cx="13660.00" cy="130.00" r="30.00" fill="#ffffff" stroke="#111111" stroke-width="2.0"/>
<circle cx="13660.00" cy="100.00" r="4.0" fill="#111111"/>
<text x="13660.00" y="134.00" text-anchor="middle" font-family="Times New Roman, serif" font-size="12" fill="#111111">INT</text>
<circle cx="13840.00" cy="130.00" r="30.00" fill="#ffffff" stroke="#111111" stroke-width="2.0"/>
<circle cx="13840.00" cy="100.00" r="4.0" fill="#111111"/>
<circle cx="13814.02" cy="115.00" r="3.3" fill="#ffffff" stroke="#111111" stroke-width="1.4"/>
<circle cx="13865.98" cy="115.00" r="3.3" fill="#ffffff" stroke="#111111" stroke-width="1.4"/>
<text x="13840.00" y="134.00" text-anchor="middle" font-family="Times New Roman, serif" font-size="12" fill="#111111">CON</text>
<circle cx="14020.00" cy="130.00" r="30.00" fill="#ffffff" stroke="#111111" stroke-width="2.0"/>
<circle cx="14020.00" cy="100.00" r="4.0" fill="#111111"/>
<text x="14020.00" y="134.00" text-anchor="middle" font-family="Times New Roman, serif" font-size="12" fill="#111111">INT</text>
<circle cx="14200.00" cy="130.00" r="30.00" fill="#ffffff" stroke="#111111" stroke-width="2.0"/>
<circle cx="14200.00" cy="100.00" r="4.0" fill="#111111"/>
<circle cx="14174.02" cy="115.00" r="3.3" fill="#ffffff" stroke="#111111" stroke-width="1.4"/>
<circle cx="14225.98" cy="115.00" r="3.3" fill="#ffffff" stroke="#111111" stroke-width="1.4"/>
<text x="14200.00" y="134.00" text-anchor="middle" font-family="Times New Roman, serif" font-size="12" fill="#111111">CON</text>
<circle cx="14380.00" cy="130.00" r="30.00" fill="#ffffff" stroke="#111111" stroke-width="2.0"/>
<circle cx="14380.00" cy="100.00" r="4.0" fill="#111111"/>
<text x="14380.00" y="134.00" text-anchor="middle" font-family="Times New Roman, serif" font-size="12" fill="#111111">INT</text>
<circle cx="14560.00" cy="130.00" r="30.00" fill="#ffffff" stroke="#111111" stroke-width="2.0"/>
<circle cx="14560.00" cy="100.00" r="4.0" fill="#111111"/>
<text x="14560.00" y="134.00" text-anchor="middle" font-family="Times New Roman, serif" font-size="12" fill="#111111">NIL</text>
</svg>