<svg xmlns="http://www.w3.org/2000/svg" width="2340" height="810" viewBox="0 0 2340 810">
<rect x="0" y="0" width="100%" height="100%" fill="#ffffff"/>
<path d="M 340.00 430.00 Q 434.09 415.89 520.00 375.00" stroke="#111111" stroke-width="1.6" fill="none"/>
<path d="M 340.00 490.00 Q 270.61 428.26 185.98 390.00" stroke="#111111" stroke-width="1.6" fill="none"/>
<path d="M 494.02 390.00 Q 594.34 423.74 700.00 430.00" stroke="#111111" stroke-width="1.6" fill="none"/>
<path d="M 520.00 435.00 Q 617.54 389.30 700.00 320.00" stroke="#111111" stroke-width="1.6" fill="none"/>
<path d="M 545.98 390.00 Q 443.67 371.02 340.00 380.00" stroke="#111111" stroke-width="1.6" fill="none"/>
<path d="M 340.00 320.00 Q 232.50 341.74 134.02 390.00" stroke="#111111" stroke-width="1.6" fill="none"/>
<path d="M 880.00 600.00 Q 812.92 512.63 725.98 445.00" stroke="#111111" stroke-width="1.6" fill="none"/>
<path d="M 674.02 445.00 Q 778.03 451.46 880.00 430.00" stroke="#111111" stroke-width="1.6" fill="none"/>
<path d="M 880.00 320.00 Q 965.91 360.89 1060.00 375.00" stroke="#111111" stroke-width="1.6" fill="none"/>
<path d="M 880.00 380.00 Q 806.92 344.06 725.98 335.00" stroke="#111111" stroke-width="1.6" fill="none"/>
<path d="M 1060.00 485.00 Q 1159.46 412.82 1240.00 320.00" stroke="#111111" stroke-width="1.6" fill="none"/>
<path d="M 1060.00 545.00 Q 995.61 378.93 905.98 225.00" stroke="#111111" stroke-width="1.6" fill="none"/>
<path d="M 1034.02 390.00 Q 1127.01 504.80 1240.00 600.00" stroke="#111111" stroke-width="1.6" fill="none"/>
<path d="M 1085.98 390.00 Q 1155.37 451.74 1240.00 490.00" stroke="#111111" stroke-width="1.6" fill="none"/>
<path d="M 1240.00 540.00 Q 1328.20 445.91 1394.02 335.00" stroke="#111111" stroke-width="1.6" fill="none"/>
<path d="M 1240.00 430.00 Q 1319.16 548.87 1420.00 650.00" stroke="#111111" stroke-width="1.6" fill="none"/>
<path d="M 1394.02 665.00 Q 1494.02 701.18 1600.00 710.00" stroke="#111111" stroke-width="1.6" fill="none"/>
<path d="M 1445.98 665.00 Q 1528.43 645.40 1600.00 600.00" stroke="#111111" stroke-width="1.6" fill="none"/>
<path d="M 1600.00 650.00 Q 1688.20 555.91 1754.02 445.00" stroke="#111111" stroke-width="1.6" fill="none"/>
<path d="M 1600.00 540.00 Q 1600.96 381.35 1574.02 225.00" stroke="#111111" stroke-width="1.6" fill="none"/>
<path d="M 1214.02 335.00 Q 1305.96 476.09 1420.00 600.00" stroke="#111111" stroke-width="1.6" fill="none"/>
<path d="M 1265.98 335.00 Q 1333.06 422.37 1420.00 490.00" stroke="#111111" stroke-width="1.6" fill="none"/>
<path d="M 1420.00 540.00 Q 1434.00 460.00 1420.00 380.00" stroke="#111111" stroke-width="1.6" fill="none"/>
<path d="M 1420.00 430.00 Q 1519.30 360.46 1600.00 270.00" stroke="#111111" stroke-width="1.6" fill="none"/>
<path d="M 1780.00 540.00 Q 1697.30 473.05 1600.00 430.00" stroke="#111111" stroke-width="1.6" fill="none"/>
<path d="M 1574.02 445.00 Q 1507.52 348.25 1420.00 270.00" stroke="#111111" stroke-width="1.6" fill="none"/>
<path d="M 1625.98 445.00 Q 1626.70 379.65 1600.00 320.00" stroke="#111111" stroke-width="1.6" fill="none"/>
<path d="M 1445.98 335.00 Q 1519.06 370.94 1600.00 380.00" stroke="#111111" stroke-width="1.6" fill="none"/>
<path d="M 1420.00 210.00 Q 1315.99 203.54 1214.02 225.00" stroke="#111111" stroke-width="1.6" fill="none"/>
<path d="M 1960.00 430.00 Q 1881.63 423.57 1805.98 445.00" stroke="#111111" stroke-width="1.6" fill="none"/>
<path d="M 1780.00 430.00 Q 1688.73 264.84 1574.02 115.00" stroke="#111111" stroke-width="1.6" fill="none"/>
<path d="M 2140.00 375.00 Q 2054.09 334.11 1960.00 320.00" stroke="#111111" stroke-width="1.6" fill="none"/>
<path d="M 1934.02 335.00 Q 1862.45 289.60 1780.00 270.00" stroke="#111111" stroke-width="1.6" fill="none"/>
<path d="M 1985.98 335.00 Q 1884.01 313.54 1780.00 320.00" stroke="#111111" stroke-width="1.6" fill="none"/>
<path d="M 1625.98 225.00 Q 1693.06 312.37 1780.00 380.00" stroke="#111111" stroke-width="1.6" fill="none"/>
<path d="M 1780.00 210.00 Q 1693.75 171.51 1600.00 160.00" stroke="#111111" stroke-width="1.6" fill="none"/>
<path d="M 1625.98 115.00 Q 1520.00 123.82 1420.00 160.00" stroke="#111111" stroke-width="1.6" fill="none"/>
<path d="M 1420.00 100.00 Q 1320.39 174.82 1240.00 270.00" stroke="#111111" stroke-width="1.6" fill="none"/>
<path d="M 1265.98 225.00 Q 1156.88 262.41 1060.00 325.00" stroke="#111111" stroke-width="1.6" fill="none"/>
<path d="M 1060.00 265.00 Q 959.68 231.26 854.02 225.00" stroke="#111111" stroke-width="1.6" fill="none"/>
<path d="M 880.00 210.00 Q 769.75 260.53 674.02 335.00" stroke="#111111" stroke-width="1.6" fill="none"/>
<circle cx="340.00" cy="460.00" r="30.00" fill="#ffffff" stroke="#111111" stroke-width="2.0"/>
<circle cx="340.00" cy="430.00" r="4.0" fill="#111111"/>
<circle cx="340.00" cy="490.00" r="3.3" fill="#ffffff" stroke="#111111" stroke-width="1.4"/>
<text x="340.00" y="464.00" text-anchor="middle" font-family="Times New Roman, serif" font-size="12" fill="#111111">VAR</text>
<circle cx="520.00" cy="405.00" r="30.00" fill="#ffffff" stroke="#111111" stroke-width="2.0"/>
<circle cx="520.00" cy="375.00" r="4.0" fill="#111111"/>
<circle cx="494.02" cy="390.00" r="3.3" fill="#ffffff" stroke="#111111" stroke-width="1.4"/>
<circle cx="520.00" cy="435.00" r="3.3" fill="#ffffff" stroke="#111111" stroke-width="1.4"/>
<circle cx="545.98" cy="390.00" r="3.3" fill="#ffffff" stroke="#111111" stroke-width="1.4"/>
<text x="520.00" y="409.00" text-anchor="middle" font-family="Times New Roman, serif" font-size="12" fill="#111111">MAT</text>
<circle cx="340.00" cy="350.00" r="30.00" fill="#ffffff" stroke="#111111" stroke-width="2.0"/>
<circle cx="340.00" cy="320.00" r="4.0" fill="#111111"/>
<circle cx="340.00" cy="380.00" r="3.3" fill="#ffffff" stroke="#111111" stroke-width="1.4"/>
<text x="340.00" y="354.00" text-anchor="middle" font-family="Times New Roman, serif" font-size="12" fill="#111111">VAR</text>
<circle cx="880.00" cy="570.00" r="30.00" fill="#ffffff" stroke="#111111" stroke-width="2.0"/>
<circle cx="880.00" cy="540.00" r="4.0" fill="#111111"/>
<circle cx="880.00" cy="600.00" r="3.3" fill="#ffffff" stroke="#111111" stroke-width="1.4"/>
<text x="880.00" y="574.00" text-anchor="middle" font-family="Times New Roman, serif" font-size="12" fill="#111111">VAR</text>
<circle cx="700.00" cy="460.00" r="30.00" fill="#ffffff" stroke="#111111" stroke-width="2.0"/>
<circle cx="700.00" cy="430.00" r="4.0" fill="#111111"/>
<circle cx="674.02" cy="445.00" r="3.3" fill="#ffffff" stroke="#111111" stroke-width="1.4"/>
<circle cx="725.98" cy="445.00" r="3.3" fill="#ffffff" stroke="#111111" stroke-width="1.4"/>
<text x="700.00" y="464.00" text-anchor="middle" font-family="Times New Roman, serif" font-size="12" fill="#111111">LAM</text>
<circle cx="880.00" cy="460.00" r="30.00" fill="#ffffff" stroke="#111111" stroke-width="2.0"/>
<circle cx="880.00" cy="430.00" r="4.0" fill="#111111"/>
<text x="880.00" y="464.00" text-anchor="middle" font-family="Times New Roman, serif" font-size="12" fill="#111111">NIL</text>
<circle cx="880.00" cy="350.00" r="30.00" fill="#ffffff" stroke="#111111" stroke-width="2.0"/>
<circle cx="880.00" cy="320.00" r="4.0" fill="#111111"/>
<circle cx="880.00" cy="380.00" r="3.3" fill="#ffffff" stroke="#111111" stroke-width="1.4"/>
<text x="880.00" y="354.00" text-anchor="middle" font-family="Times New Roman, serif" font-size="12" fill="#111111">VAR</text>
<circle cx="1060.00" cy="515.00" r="30.00" fill="#ffffff" stroke="#111111" stroke-width="2.0"/>
<circle cx="1060.00" cy="485.00" r="4.0" fill="#111111"/>
<circle cx="1060.00" cy="545.00" r="3.3" fill="#ffffff" stroke="#111111" stroke-width="1.4"/>
<text x="1060.00" y="519.00" text-anchor="middle" font-family="Times New Roman, serif" font-size="12" fill="#111111">VAR</text>
<circle cx="1060.00" cy="405.00" r="30.00" fill="#ffffff" stroke="#111111" stroke-width="2.0"/>
<circle cx="1060.00" cy="375.00" r="4.0" fill="#111111"/>
<circle cx="1034.02" cy="390.00" r="3.3" fill="#ffffff" stroke="#111111" stroke-width="1.4"/>
<circle cx="1085.98" cy="390.00" r="3.3" fill="#ffffff" stroke="#111111" stroke-width="1.4"/>
<text x="1060.00" y="409.00" text-anchor="middle" font-family="Times New Roman, serif" font-size="12" fill="#111111">DUP</text>
<circle cx="1240.00" cy="570.00" r="30.00" fill="#ffffff" stroke="#111111" stroke-width="2.0"/>
<circle cx="1240.00" cy="540.00" r="4.0" fill="#111111"/>
<circle cx="1240.00" cy="600.00" r="3.3" fill="#ffffff" stroke="#111111" stroke-width="1.4"/>
<text x="1240.00" y="574.00" text-anchor="middle" font-family="Times New Roman, serif" font-size="12" fill="#111111">VAR</text>
<circle cx="1240.00" cy="460.00" r="30.00" fill="#ffffff" stroke="#111111" stroke-width="2.0"/>
<circle cx="1240.00" cy="430.00" r="4.0" fill="#111111"/>
<circle cx="1240.00" cy="490.00" r="3.3" fill="#ffffff" stroke="#111111" stroke-width="1.4"/>
<text x="1240.00" y="464.00" text-anchor="middle" font-family="Times New Roman, serif" font-size="12" fill="#111111">VAR</text>
<circle cx="1420.00" cy="680.00" r="30.00" fill="#ffffff" stroke="#111111" stroke-width="2.0"/>
<circle cx="1420.00" cy="650.00" r="4.0" fill="#111111"/>
<circle cx="1394.02" cy="665.00" r="3.3" fill="#ffffff" stroke="#111111" stroke-width="1.4"/>
<circle cx="1445.98" cy="665.00" r="3.3" fill="#ffffff" stroke="#111111" stroke-width="1.4"/>
<text x="1420.00" y="684.00" text-anchor="middle" font-family="Times New Roman, serif" font-size="12" fill="#111111">DUP</text>
<circle cx="1600.00" cy="680.00" r="30.00" fill="#ffffff" stroke="#111111" stroke-width="2.0"/>
<circle cx="1600.00" cy="650.00" r="4.0" fill="#111111"/>
<circle cx="1600.00" cy="710.00" r="3.3" fill="#ffffff" stroke="#111111" stroke-width="1.4"/>
<text x="1600.00" y="684.00" text-anchor="middle" font-family="Times New Roman, serif" font-size="12" fill="#111111">VAR</text>
<circle cx="1600.00" cy="570.00" r="30.00" fill="#ffffff" stroke="#111111" stroke-width="2.0"/>
<circle cx="1600.00" cy="540.00" r="4.0" fill="#111111"/>
<circle cx="1600.00" cy="600.00" r="3.3" fill="#ffffff" stroke="#111111" stroke-width="1.4"/>
<text x="1600.00" y="574.00" text-anchor="middle" font-family="Times New Roman, serif" font-size="12" fill="#111111">VAR</text>
<circle cx="1240.00" cy="350.00" r="30.00" fill="#ffffff" stroke="#111111" stroke-width="2.0"/>
<circle cx="1240.00" cy="320.00" r="4.0" fill="#111111"/>
<circle cx="1214.02" cy="335.00" r="3.3" fill="#ffffff" stroke="#111111" stroke-width="1.4"/>
<circle cx="1265.98" cy="335.00" r="3.3" fill="#ffffff" stroke="#111111" stroke-width="1.4"/>
<text x="1240.00" y="354.00" text-anchor="middle" font-family="Times New Roman, serif" font-size="12" fill="#111111">DUP</text>
<circle cx="1420.00" cy="570.00" r="30.00" fill="#ffffff" stroke="#111111" stroke-width="2.0"/>
<circle cx="1420.00" cy="540.00" r="4.0" fill="#111111"/>
<circle cx="1420.00" cy="600.00" r="3.3" fill="#ffffff" stroke="#111111" stroke-width="1.4"/>
<text x="1420.00" y="574.00" text-anchor="middle" font-family="Times New Roman, serif" font-size="12" fill="#111111">VAR</text>
<circle cx="1420.00" cy="460.00" r="30.00" fill="#ffffff" stroke="#111111" stroke-width="2.0"/>
<circle cx="1420.00" cy="430.00" r="4.0" fill="#111111"/>
<circle cx="1420.00" cy="490.00" r="3.3" fill="#ffffff" stroke="#111111" stroke-width="1.4"/>
<text x="1420.00" y="464.00" text-anchor="middle" font-family="Times New Roman, serif" font-size="12" fill="#111111">VAR</text>
<circle cx="1780.00" cy="570.00" r="30.00" fill="#ffffff" stroke="#111111" stroke-width="2.0"/>
<circle cx="1780.00" cy="540.00" r="4.0" fill="#111111"/>
<text x="1780.00" y="568.00" text-anchor="middle" font-family="Times New Roman, serif" font-size="11" fill="#111111">FREF</text>
<text x="1780.00" y="582.00" text-anchor="middle" font-family="Times New Roman, serif" font-size="9" fill="#111111">qs</text>
<circle cx="1600.00" cy="460.00" r="30.00" fill="#ffffff" stroke="#111111" stroke-width="2.0"/>
<circle cx="1600.00" cy="430.00" r="4.0" fill="#111111"/>
<circle cx="1574.02" cy="445.00" r="3.3" fill="#ffffff" stroke="#111111" stroke-width="1.4"/>
<circle cx="1625.98" cy="445.00" r="3.3" fill="#ffffff" stroke="#111111" stroke-width="1.4"/>
<text x="1600.00" y="464.00" text-anchor="middle" font-family="Times New Roman, serif" font-size="12" fill="#111111">APP</text>
<circle cx="1420.00" cy="350.00" r="30.00" fill="#ffffff" stroke="#111111" stroke-width="2.0"/>
<circle cx="1420.00" cy="320.00" r="4.0" fill="#111111"/>
<circle cx="1394.02" cy="335.00" r="3.3" fill="#ffffff" stroke="#111111" stroke-width="1.4"/>
<circle cx="1420.00" cy="380.00" r="3.3" fill="#ffffff" stroke="#111111" stroke-width="1.4"/>
<circle cx="1445.98" cy="335.00" r="3.3" fill="#ffffff" stroke="#111111" stroke-width="1.4"/>
<text x="1420.00" y="354.00" text-anchor="middle" font-family="Times New Roman, serif" font-size="12" fill="#111111">FILTER_LE</text>
<circle cx="1600.00" cy="350.00" r="30.00" fill="#ffffff" stroke="#111111" stroke-width="2.0"/>
<circle cx="1600.00" cy="320.00" r="4.0" fill="#111111"/>
<circle cx="1600.00" cy="380.00" r="3.3" fill="#ffffff" stroke="#111111" stroke-width="1.4"/>
<text x="1600.00" y="354.00" text-anchor="middle" font-family="Times New Roman, serif" font-size="12" fill="#111111">VAR</text>
<circle cx="1420.00" cy="240.00" r="30.00" fill="#ffffff" stroke="#111111" stroke-width="2.0"/>
<circle cx="1420.00" cy="210.00" r="4.0" fill="#111111"/>
<circle cx="1420.00" cy="270.00" r="3.3" fill="#ffffff" stroke="#111111" stroke-width="1.4"/>
<text x="1420.00" y="244.00" text-anchor="middle" font-family="Times New Roman, serif" font-size="12" fill="#111111">VAR</text>
<circle cx="1960.00" cy="460.00" r="30.00" fill="#ffffff" stroke="#111111" stroke-width="2.0"/>
<circle cx="1960.00" cy="430.00" r="4.0" fill="#111111"/>
<text x="1960.00" y="464.00" text-anchor="middle" font-family="Times New Roman, serif" font-size="12" fill="#111111">NIL</text>
<circle cx="1780.00" cy="460.00" r="30.00" fill="#ffffff" stroke="#111111" stroke-width="2.0"/>
<circle cx="1780.00" cy="430.00" r="4.0" fill="#111111"/>
<circle cx="1754.02" cy="445.00" r="3.3" fill="#ffffff" stroke="#111111" stroke-width="1.4"/>
<circle cx="1805.98" cy="445.00" r="3.3" fill="#ffffff" stroke="#111111" stroke-width="1.4"/>
<text x="1780.00" y="464.00" text-anchor="middle" font-family="Times New Roman, serif" font-size="12" fill="#111111">CON</text>
<circle cx="2140.00" cy="405.00" r="30.00" fill="#ffffff" stroke="#111111" stroke-width="2.0"/>
<circle cx="2140.00" cy="375.00" r="4.0" fill="#111111"/>
<text x="2140.00" y="403.00" text-anchor="middle" font-family="Times New Roman, serif" font-size="11" fill="#111111">FREF</text>
<text x="2140.00" y="417.00" text-anchor="middle" font-family="Times New Roman, serif" font-size="9" fill="#111111">qs</text>
<circle cx="1960.00" cy="350.00" r="30.00" fill="#ffffff" stroke="#111111" stroke-width="2.0"/>
<circle cx="1960.00" cy="320.00" r="4.0" fill="#111111"/>
<circle cx="1934.02" cy="335.00" r="3.3" fill="#ffffff" stroke="#111111" stroke-width="1.4"/>
<circle cx="1985.98" cy="335.00" r="3.3" fill="#ffffff" stroke="#111111" stroke-width="1.4"/>
<text x="1960.00" y="354.00" text-anchor="middle" font-family="Times New Roman, serif" font-size="12" fill="#111111">APP</text>
<circle cx="1600.00" cy="240.00" r="30.00" fill="#ffffff" stroke="#111111" stroke-width="2.0"/>
<circle cx="1600.00" cy="210.00" r="4.0" fill="#111111"/>
<circle cx="1574.02" cy="225.00" r="3.3" fill="#ffffff" stroke="#111111" stroke-width="1.4"/>
<circle cx="1600.00" cy="270.00" r="3.3" fill="#ffffff" stroke="#111111" stroke-width="1.4"/>
<circle cx="1625.98" cy="225.00" r="3.3" fill="#ffffff" stroke="#111111" stroke-width="1.4"/>
<text x="1600.00" y="244.00" text-anchor="middle" font-family="Times New Roman, serif" font-size="12" fill="#111111">FILTER_GT</text>
<circle cx="1780.00" cy="350.00" r="30.00" fill="#ffffff" stroke="#111111" stroke-width="2.0"/>
<circle cx="1780.00" cy="320.00" r="4.0" fill="#111111"/>
<circle cx="1780.00" cy="380.00" r="3.3" fill="#ffffff" stroke="#111111" stroke-width="1.4"/>
<text x="1780.00" y="354.00" text-anchor="middle" font-family="Times New Roman, serif" font-size="12" fill="#111111">VAR</text>
<circle cx="1780.00" cy="240.00" r="30.00" fill="#ffffff" stroke="#111111" stroke-width="2.0"/>
<circle cx="1780.00" cy="210.00" r="4.0" fill="#111111"/>
<circle cx="1780.00" cy="270.00" r="3.3" fill="#ffffff" stroke="#111111" stroke-width="1.4"/>
<text x="1780.00" y="244.00" text-anchor="middle" font-family="Times New Roman, serif" font-size="12" fill="#111111">VAR</text>
<circle cx="1600.00" cy="130.00" r="30.00" fill="#ffffff" stroke="#111111" stroke-width="2.0"/>
<circle cx="1600.00" cy="100.00" r="4.0" fill="#111111"/>
<circle cx="1574.02" cy="115.00" r="3.3" fill="#ffffff" stroke="#111111" stroke-width="1.4"/>
<circle cx="1600.00" cy="160.00" r="3.3" fill="#ffffff" stroke="#111111" stroke-width="1.4"/>
<circle cx="1625.98" cy="115.00" r="3.3" fill="#ffffff" stroke="#111111" stroke-width="1.4"/>
<text x="1600.00" y="134.00" text-anchor="middle" font-family="Times New Roman, serif" font-size="12" fill="#111111">APPEND</text>
<circle cx="1420.00" cy="130.00" r="30.00" fill="#ffffff" stroke="#111111" stroke-width="2.0"/>
<circle cx="1420.00" cy="100.00" r="4.0" fill="#111111"/>
<circle cx="1420.00" cy="160.00" r="3.3" fill="#ffffff" stroke="#111111" stroke-width="1.4"/>
<text x="1420.00" y="134.00" text-anchor="middle" font-family="Times New Roman, serif" font-size="12" fill="#111111">VAR</text>
<circle cx="1240.00" cy="240.00" r="30.00" fill="#ffffff" stroke="#111111" stroke-width="2.0"/>
<circle cx="1240.00" cy="210.00" r="4.0" fill="#111111"/>
<circle cx="1214.02" cy="225.00" r="3.3" fill="#ffffff" stroke="#111111" stroke-width="1.4"/>
<circle cx="1240.00" cy="270.00" r="3.3" fill="#ffffff" stroke="#111111" stroke-width="1.4"/>
<circle cx="1265.98" cy="225.00" r="3.3" fill="#ffffff" stroke="#111111" stroke-width="1.4"/>
<text x="1240.00" y="244.00" text-anchor="middle" font-family="Times New Roman, serif" font-size="12" fill="#111111">APPEND</text>
<circle cx="1060.00" cy="295.00" r="30.00" fill="#ffffff" stroke="#111111" stroke-width="2.0"/>
<circle cx="1060.00" cy="265.00" r="4.0" fill="#111111"/>
<circle cx="1060.00" cy="325.00" r="3.3" fill="#ffffff" stroke="#111111" stroke-width="1.4"/>
<text x="1060.00" y="299.00" text-anchor="middle" font-family="Times New Roman, serif" font-size="12" fill="#111111">VAR</text>
<circle cx="880.00" cy="240.00" r="30.00" fill="#ffffff" stroke="#111111" stroke-width="2.0"/>
<circle cx="880.00" cy="210.00" r="4.0" fill="#111111"/>
<circle cx="854.02" cy="225.00" r="3.3" fill="#ffffff" stroke="#111111" stroke-width="1.4"/>
<circle cx="905.98" cy="225.00" r="3.3" fill="#ffffff" stroke="#111111" stroke-width="1.4"/>
<text x="880.00" y="244.00" text-anchor="middle" font-family="Times New Roman, serif" font-size="12" fill="#111111">LAM</text>
<circle cx="700.00" cy="350.00" r="30.00" fill="#ffffff" stroke="#111111" stroke-width="2.0"/>
<circle cx="700.00" cy="320.00" r="4.0" fill="#111111"/>
<circle cx="674.02" cy="335.00" r="3.3" fill="#ffffff" stroke="#111111" stroke-width="1.4"/>
<circle cx="725.98" cy="335.00" r="3.3" fill="#ffffff" stroke="#111111" stroke-width="1.4"/>
<text x="700.00" y="354.00" text-anchor="middle" font-family="Times New Roman, serif" font-size="12" fill="#111111">LAM</text>
<circle cx="160.00" cy="405.00" r="30.00" fill="#f5f5f5" stroke="#111111" stroke-width="2.8"/>
<circle cx="160.00" cy="375.00" r="4.0" fill="#111111"/>
<circle cx="134.02" cy="390.00" r="3.3" fill="#ffffff" stroke="#111111" stroke-width="1.4"/>
<circle cx="185.98" cy="390.00" r="3.3" fill="#ffffff" stroke="#111111" stroke-width="1.4"/>
<text x="160.00" y="409.00" text-anchor="middle" font-family="Times New Roman, serif" font-size="12" fill="#111111">LAM</text>
<rect x="16" y="16" width="260" height="70" fill="#ffffff" stroke="#111111" stroke-width="1.2"/>
<text x="24" y="30" font-family="Times New Roman, serif" font-size="11" fill="#111111">Function Legend (entry closure)</text>
<text x="24" y="44" font-family="Times New Roman, serif" font-size="10" fill="#111111">entry: qs</text>
<text x="24" y="58" font-family="Times New Roman, serif" font-size="10" fill="#111111">count: 1</text>
<text x="24" y="72" font-family="Times New Roman, serif" font-size="10" fill="#111111">- qs</text>
<rect x="292" y="16" width="320" height="154" fill="#ffffff" stroke="#111111" stroke-width="1.2"/>
<text x="300" y="30" font-family="Times New Roman, serif" font-size="11" fill="#111111">NELA-S -> Interaction Net</text>
<text x="300" y="44" font-family="Times New Roman, serif" font-size="10" fill="#111111">def / binder -> LAM</text>
<text x="300" y="58" font-family="Times New Roman, serif" font-size="10" fill="#111111">f x / call -> APP + FREF(fn)</text>
<text x="300" y="72" font-family="Times New Roman, serif" font-size="10" fill="#111111">if c then a else b -> IFT</text>
<text x="300" y="86" font-family="Times New Roman, serif" font-size="10" fill="#111111">h :: t / [] -> CON / NIL</text>
<text x="300" y="100" font-family="Times New Roman, serif" font-size="10" fill="#111111">match ... -> MAT (+ branch LAMs)</text>
<text x="300" y="114" font-family="Times New Roman, serif" font-size="10" fill="#111111">x + y, x * y, ... -> ADD, MUL, ...</text>
<text x="300" y="128" font-family="Times New Roman, serif" font-size="10" fill="#111111">io_key / io_print -> IOKEY / IOPRT</text>
<text x="300" y="142" font-family="Times New Roman, serif" font-size="10" fill="#111111">variable usage wiring -> VAR</text>
<text x="300" y="156" font-family="Times New Roman, serif" font-size="10" fill="#111111">copy/discard (linear) -> DUP / ERA</text>
</svg>