<svg xmlns="http://www.w3.org/2000/svg" width="2520" height="1580" viewBox="0 0 2520 1580">
<rect x="0" y="0" width="100%" height="100%" fill="#ffffff"/>
<path d="M 340.00 705.00 Q 434.09 690.89 520.00 650.00" stroke="#111111" stroke-width="1.6" fill="none"/>
<path d="M 340.00 765.00 Q 262.08 756.03 185.98 775.00" stroke="#111111" stroke-width="1.6" fill="none"/>
<path d="M 494.02 665.00 Q 601.22 645.85 700.00 600.00" stroke="#111111" stroke-width="1.6" fill="none"/>
<path d="M 545.98 665.00 Q 619.06 700.94 700.00 710.00" stroke="#111111" stroke-width="1.6" fill="none"/>
<path d="M 700.00 540.00 Q 790.54 746.41 905.98 940.00" stroke="#111111" stroke-width="1.6" fill="none"/>
<path d="M 700.00 650.00 Q 799.46 577.82 880.00 485.00" stroke="#111111" stroke-width="1.6" fill="none"/>
<path d="M 854.02 500.00 Q 967.44 394.34 1060.00 270.00" stroke="#111111" stroke-width="1.6" fill="none"/>
<path d="M 905.98 500.00 Q 991.59 451.04 1060.00 380.00" stroke="#111111" stroke-width="1.6" fill="none"/>
<path d="M 1060.00 210.00 Q 1151.58 363.11 1265.98 500.00" stroke="#111111" stroke-width="1.6" fill="none"/>
<path d="M 1060.00 320.00 Q 1151.58 473.11 1265.98 610.00" stroke="#111111" stroke-width="1.6" fill="none"/>
<path d="M 520.00 760.00 Q 610.00 774.00 700.00 760.00" stroke="#111111" stroke-width="1.6" fill="none"/>
<path d="M 520.00 820.00 Q 442.08 811.03 365.98 830.00" stroke="#111111" stroke-width="1.6" fill="none"/>
<path d="M 674.02 775.00 Q 784.06 727.10 880.00 655.00" stroke="#111111" stroke-width="1.6" fill="none"/>
<path d="M 725.98 775.00 Q 803.90 783.97 880.00 765.00" stroke="#111111" stroke-width="1.6" fill="none"/>
<path d="M 880.00 595.00 Q 970.01 855.24 1085.98 1105.00" stroke="#111111" stroke-width="1.6" fill="none"/>
<path d="M 880.00 705.00 Q 981.71 575.17 1060.00 430.00" stroke="#111111" stroke-width="1.6" fill="none"/>
<path d="M 1034.02 445.00 Q 1144.06 397.10 1240.00 325.00" stroke="#111111" stroke-width="1.6" fill="none"/>
<path d="M 1085.98 445.00 Q 1059.18 520.19 1060.00 600.00" stroke="#111111" stroke-width="1.6" fill="none"/>
<path d="M 1240.00 265.00 Q 1213.01 767.14 1214.02 1270.00" stroke="#111111" stroke-width="1.6" fill="none"/>
<path d="M 1060.00 540.00 Q 956.68 813.18 880.00 1095.00" stroke="#111111" stroke-width="1.6" fill="none"/>
<path d="M 700.00 870.00 Q 794.09 855.89 880.00 815.00" stroke="#111111" stroke-width="1.6" fill="none"/>
<path d="M 700.00 930.00 Q 626.92 894.06 545.98 885.00" stroke="#111111" stroke-width="1.6" fill="none"/>
<path d="M 854.02 830.00 Q 964.06 782.10 1060.00 710.00" stroke="#111111" stroke-width="1.6" fill="none"/>
<path d="M 905.98 830.00 Q 983.90 838.97 1060.00 820.00" stroke="#111111" stroke-width="1.6" fill="none"/>
<path d="M 1060.00 650.00 Q 1151.58 803.11 1265.98 940.00" stroke="#111111" stroke-width="1.6" fill="none"/>
<path d="M 1060.00 760.00 Q 1137.02 987.75 1240.00 1205.00" stroke="#111111" stroke-width="1.6" fill="none"/>
<path d="M 1240.00 375.00 Q 1306.37 474.10 1394.02 555.00" stroke="#111111" stroke-width="1.6" fill="none"/>
<path d="M 1240.00 435.00 Q 1136.71 703.11 1060.00 980.00" stroke="#111111" stroke-width="1.6" fill="none"/>
<path d="M 1060.00 870.00 Q 965.91 884.11 880.00 925.00" stroke="#111111" stroke-width="1.6" fill="none"/>
<path d="M 854.02 940.00 Q 950.90 1002.59 1060.00 1040.00" stroke="#111111" stroke-width="1.6" fill="none"/>
<path d="M 1600.00 320.00 Q 1663.31 687.89 1754.02 1050.00" stroke="#111111" stroke-width="1.6" fill="none"/>
<path d="M 1600.00 380.00 Q 1519.61 284.82 1420.00 210.00" stroke="#111111" stroke-width="1.6" fill="none"/>
<path d="M 1420.00 100.00 Q 1317.32 286.57 1240.00 485.00" stroke="#111111" stroke-width="1.6" fill="none"/>
<path d="M 1214.02 500.00 Q 1327.44 394.34 1420.00 270.00" stroke="#111111" stroke-width="1.6" fill="none"/>
<path d="M 1600.00 430.00 Q 1705.66 423.74 1805.98 390.00" stroke="#111111" stroke-width="1.6" fill="none"/>
<path d="M 1600.00 490.00 Q 1514.43 446.72 1420.00 430.00" stroke="#111111" stroke-width="1.6" fill="none"/>
<path d="M 1420.00 320.00 Q 1318.29 449.83 1240.00 595.00" stroke="#111111" stroke-width="1.6" fill="none"/>
<path d="M 1214.02 610.00 Q 1324.06 562.10 1420.00 490.00" stroke="#111111" stroke-width="1.6" fill="none"/>
<path d="M 2140.00 595.00 Q 2126.00 650.00 2140.00 705.00" stroke="#111111" stroke-width="1.6" fill="none"/>
<path d="M 2140.00 655.00 Q 2059.61 559.82 1960.00 485.00" stroke="#111111" stroke-width="1.6" fill="none"/>
<path d="M 1960.00 375.00 Q 1870.00 361.00 1780.00 375.00" stroke="#111111" stroke-width="1.6" fill="none"/>
<path d="M 1754.02 390.00 Q 1848.59 478.69 1960.00 545.00" stroke="#111111" stroke-width="1.6" fill="none"/>
<path d="M 2114.02 720.00 Q 2042.45 674.60 1960.00 655.00" stroke="#111111" stroke-width="1.6" fill="none"/>
<path d="M 2165.98 720.00 Q 2235.37 781.74 2320.00 820.00" stroke="#111111" stroke-width="1.6" fill="none"/>
<path d="M 1960.00 595.00 Q 1862.87 534.79 1754.02 500.00" stroke="#111111" stroke-width="1.6" fill="none"/>
<path d="M 2320.00 760.00 Q 2212.50 781.74 2114.02 830.00" stroke="#111111" stroke-width="1.6" fill="none"/>
<path d="M 1960.00 705.00 Q 1870.00 691.00 1780.00 705.00" stroke="#111111" stroke-width="1.6" fill="none"/>
<path d="M 1960.00 765.00 Q 1946.00 790.00 1960.00 815.00" stroke="#111111" stroke-width="1.6" fill="none"/>
<path d="M 1805.98 500.00 Q 1696.88 537.41 1600.00 600.00" stroke="#111111" stroke-width="1.6" fill="none"/>
<path d="M 1600.00 540.00 Q 1505.57 556.72 1420.00 600.00" stroke="#111111" stroke-width="1.6" fill="none"/>
<path d="M 1445.98 555.00 Q 1513.06 642.37 1600.00 710.00" stroke="#111111" stroke-width="1.6" fill="none"/>
<path d="M 1600.00 650.00 Q 1680.53 643.55 1754.02 610.00" stroke="#111111" stroke-width="1.6" fill="none"/>
<path d="M 1805.98 610.00 Q 1870.89 749.53 1960.00 875.00" stroke="#111111" stroke-width="1.6" fill="none"/>
<path d="M 1754.02 720.00 Q 1669.39 758.26 1600.00 820.00" stroke="#111111" stroke-width="1.6" fill="none"/>
<path d="M 1805.98 720.00 Q 1779.18 795.19 1780.00 875.00" stroke="#111111" stroke-width="1.6" fill="none"/>
<path d="M 1600.00 760.00 Q 1521.63 753.57 1445.98 775.00" stroke="#111111" stroke-width="1.6" fill="none"/>
<path d="M 1780.00 815.00 Q 1664.56 1008.59 1574.02 1215.00" stroke="#111111" stroke-width="1.6" fill="none"/>
<path d="M 1780.00 925.00 Q 1694.09 884.11 1600.00 870.00" stroke="#111111" stroke-width="1.6" fill="none"/>
<path d="M 1780.00 985.00 Q 1860.70 1075.46 1960.00 1145.00" stroke="#111111" stroke-width="1.6" fill="none"/>
<path d="M 2165.98 830.00 Q 2054.57 896.31 1960.00 985.00" stroke="#111111" stroke-width="1.6" fill="none"/>
<path d="M 1960.00 925.00 Q 1860.39 999.82 1780.00 1095.00" stroke="#111111" stroke-width="1.6" fill="none"/>
<path d="M 1805.98 1050.00 Q 1879.06 1085.94 1960.00 1095.00" stroke="#111111" stroke-width="1.6" fill="none"/>
<path d="M 1960.00 1035.00 Q 2044.36 999.42 2114.02 940.00" stroke="#111111" stroke-width="1.6" fill="none"/>
<path d="M 2165.98 940.00 Q 2051.94 1063.91 1960.00 1205.00" stroke="#111111" stroke-width="1.6" fill="none"/>
<path d="M 1574.02 885.00 Q 1665.24 1052.58 1780.00 1205.00" stroke="#111111" stroke-width="1.6" fill="none"/>
<path d="M 1625.98 885.00 Q 1532.05 786.83 1420.00 710.00" stroke="#111111" stroke-width="1.6" fill="none"/>
<path d="M 1780.00 1145.00 Q 1706.51 1111.45 1625.98 1105.00" stroke="#111111" stroke-width="1.6" fill="none"/>
<path d="M 1420.00 650.00 Q 1304.03 899.76 1214.02 1160.00" stroke="#111111" stroke-width="1.6" fill="none"/>
<path d="M 1240.00 705.00 Q 1137.32 891.57 1060.00 1090.00" stroke="#111111" stroke-width="1.6" fill="none"/>
<path d="M 1034.02 1105.00 Q 1147.44 999.34 1240.00 875.00" stroke="#111111" stroke-width="1.6" fill="none"/>
<path d="M 1240.00 815.00 Q 1334.09 800.89 1420.00 760.00" stroke="#111111" stroke-width="1.6" fill="none"/>
<path d="M 1394.02 775.00 Q 1485.96 916.09 1600.00 1040.00" stroke="#111111" stroke-width="1.6" fill="none"/>
<path d="M 1600.00 980.00 Q 1586.00 1035.00 1600.00 1090.00" stroke="#111111" stroke-width="1.6" fill="none"/>
<path d="M 1574.02 1105.00 Q 1507.52 1008.25 1420.00 930.00" stroke="#111111" stroke-width="1.6" fill="none"/>
<path d="M 1420.00 870.00 Q 1325.91 884.11 1240.00 925.00" stroke="#111111" stroke-width="1.6" fill="none"/>
<path d="M 1214.02 940.00 Q 1310.90 1002.59 1420.00 1040.00" stroke="#111111" stroke-width="1.6" fill="none"/>
<path d="M 1420.00 980.00 Q 1312.50 1001.74 1214.02 1050.00" stroke="#111111" stroke-width="1.6" fill="none"/>
<path d="M 1420.00 1090.00 Q 1329.61 1078.51 1240.00 1095.00" stroke="#111111" stroke-width="1.6" fill="none"/>
<path d="M 1265.98 1050.00 Q 1153.00 1145.20 1060.00 1260.00" stroke="#111111" stroke-width="1.6" fill="none"/>
<path d="M 1060.00 1200.00 Q 979.46 1107.18 880.00 1035.00" stroke="#111111" stroke-width="1.6" fill="none"/>
<path d="M 1265.98 1160.00 Q 1335.37 1221.74 1420.00 1260.00" stroke="#111111" stroke-width="1.6" fill="none"/>
<path d="M 1420.00 1200.00 Q 1505.57 1243.28 1600.00 1260.00" stroke="#111111" stroke-width="1.6" fill="none"/>
<path d="M 1625.98 1215.00 Q 1514.57 1281.31 1420.00 1370.00" stroke="#111111" stroke-width="1.6" fill="none"/>
<path d="M 1420.00 1310.00 Q 1320.50 1294.99 1220.72 1307.98" stroke="#111111" stroke-width="1.6" fill="none"/>
<path d="M 1420.00 1420.00 Q 1347.65 1352.51 1259.28 1307.98" stroke="#111111" stroke-width="1.6" fill="none"/>
<path d="M 1265.98 1270.00 Q 1156.88 1307.41 1060.00 1370.00" stroke="#111111" stroke-width="1.6" fill="none"/>
<path d="M 1060.00 1310.00 Q 967.98 1171.31 854.02 1050.00" stroke="#111111" stroke-width="1.6" fill="none"/>
<path d="M 905.98 1050.00 Q 803.67 1031.02 700.00 1040.00" stroke="#111111" stroke-width="1.6" fill="none"/>
<path d="M 700.00 980.00 Q 602.87 919.79 494.02 885.00" stroke="#111111" stroke-width="1.6" fill="none"/>
<path d="M 520.00 870.00 Q 419.68 836.26 314.02 830.00" stroke="#111111" stroke-width="1.6" fill="none"/>
<path d="M 340.00 815.00 Q 239.68 781.26 134.02 775.00" stroke="#111111" stroke-width="1.6" fill="none"/>
<circle cx="340.00" cy="735.00" r="30.00" fill="#ffffff" stroke="#111111" stroke-width="2.0"/>
<circle cx="340.00" cy="705.00" r="4.0" fill="#111111"/>
<circle cx="340.00" cy="765.00" r="3.3" fill="#ffffff" stroke="#111111" stroke-width="1.4"/>
<text x="340.00" y="739.00" text-anchor="middle" font-family="Times New Roman, serif" font-size="12" fill="#111111">VAR</text>
<circle cx="520.00" cy="680.00" r="30.00" fill="#ffffff" stroke="#111111" stroke-width="2.0"/>
<circle cx="520.00" cy="650.00" r="4.0" fill="#111111"/>
<circle cx="494.02" cy="665.00" r="3.3" fill="#ffffff" stroke="#111111" stroke-width="1.4"/>
<circle cx="545.98" cy="665.00" r="3.3" fill="#ffffff" stroke="#111111" stroke-width="1.4"/>
<text x="520.00" y="684.00" text-anchor="middle" font-family="Times New Roman, serif" font-size="12" fill="#111111">DUP</text>
<circle cx="700.00" cy="570.00" r="30.00" fill="#ffffff" stroke="#111111" stroke-width="2.0"/>
<circle cx="700.00" cy="540.00" r="4.0" fill="#111111"/>
<circle cx="700.00" cy="600.00" r="3.3" fill="#ffffff" stroke="#111111" stroke-width="1.4"/>
<text x="700.00" y="574.00" text-anchor="middle" font-family="Times New Roman, serif" font-size="12" fill="#111111">VAR</text>
<circle cx="700.00" cy="680.00" r="30.00" fill="#ffffff" stroke="#111111" stroke-width="2.0"/>
<circle cx="700.00" cy="650.00" r="4.0" fill="#111111"/>
<circle cx="700.00" cy="710.00" r="3.3" fill="#ffffff" stroke="#111111" stroke-width="1.4"/>
<text x="700.00" y="684.00" text-anchor="middle" font-family="Times New Roman, serif" font-size="12" fill="#111111">VAR</text>
<circle cx="880.00" cy="515.00" r="30.00" fill="#ffffff" stroke="#111111" stroke-width="2.0"/>
<circle cx="880.00" cy="485.00" r="4.0" fill="#111111"/>
<circle cx="854.02" cy="500.00" r="3.3" fill="#ffffff" stroke="#111111" stroke-width="1.4"/>
<circle cx="905.98" cy="500.00" r="3.3" fill="#ffffff" stroke="#111111" stroke-width="1.4"/>
<text x="880.00" y="519.00" text-anchor="middle" font-family="Times New Roman, serif" font-size="12" fill="#111111">DUP</text>
<circle cx="1060.00" cy="240.00" r="30.00" fill="#ffffff" stroke="#111111" stroke-width="2.0"/>
<circle cx="1060.00" cy="210.00" r="4.0" fill="#111111"/>
<circle cx="1060.00" cy="270.00" r="3.3" fill="#ffffff" stroke="#111111" stroke-width="1.4"/>
<text x="1060.00" y="244.00" text-anchor="middle" font-family="Times New Roman, serif" font-size="12" fill="#111111">VAR</text>
<circle cx="1060.00" cy="350.00" r="30.00" fill="#ffffff" stroke="#111111" stroke-width="2.0"/>
<circle cx="1060.00" cy="320.00" r="4.0" fill="#111111"/>
<circle cx="1060.00" cy="380.00" r="3.3" fill="#ffffff" stroke="#111111" stroke-width="1.4"/>
<text x="1060.00" y="354.00" text-anchor="middle" font-family="Times New Roman, serif" font-size="12" fill="#111111">VAR</text>
<circle cx="520.00" cy="790.00" r="30.00" fill="#ffffff" stroke="#111111" stroke-width="2.0"/>
<circle cx="520.00" cy="760.00" r="4.0" fill="#111111"/>
<circle cx="520.00" cy="820.00" r="3.3" fill="#ffffff" stroke="#111111" stroke-width="1.4"/>
<text x="520.00" y="794.00" text-anchor="middle" font-family="Times New Roman, serif" font-size="12" fill="#111111">VAR</text>
<circle cx="700.00" cy="790.00" r="30.00" fill="#ffffff" stroke="#111111" stroke-width="2.0"/>
<circle cx="700.00" cy="760.00" r="4.0" fill="#111111"/>
<circle cx="674.02" cy="775.00" r="3.3" fill="#ffffff" stroke="#111111" stroke-width="1.4"/>
<circle cx="725.98" cy="775.00" r="3.3" fill="#ffffff" stroke="#111111" stroke-width="1.4"/>
<text x="700.00" y="794.00" text-anchor="middle" font-family="Times New Roman, serif" font-size="12" fill="#111111">DUP</text>
<circle cx="880.00" cy="625.00" r="30.00" fill="#ffffff" stroke="#111111" stroke-width="2.0"/>
<circle cx="880.00" cy="595.00" r="4.0" fill="#111111"/>
<circle cx="880.00" cy="655.00" r="3.3" fill="#ffffff" stroke="#111111" stroke-width="1.4"/>
<text x="880.00" y="629.00" text-anchor="middle" font-family="Times New Roman, serif" font-size="12" fill="#111111">VAR</text>
<circle cx="880.00" cy="735.00" r="30.00" fill="#ffffff" stroke="#111111" stroke-width="2.0"/>
<circle cx="880.00" cy="705.00" r="4.0" fill="#111111"/>
<circle cx="880.00" cy="765.00" r="3.3" fill="#ffffff" stroke="#111111" stroke-width="1.4"/>
<text x="880.00" y="739.00" text-anchor="middle" font-family="Times New Roman, serif" font-size="12" fill="#111111">VAR</text>
<circle cx="1060.00" cy="460.00" r="30.00" fill="#ffffff" stroke="#111111" stroke-width="2.0"/>
<circle cx="1060.00" cy="430.00" r="4.0" fill="#111111"/>
<circle cx="1034.02" cy="445.00" r="3.3" fill="#ffffff" stroke="#111111" stroke-width="1.4"/>
<circle cx="1085.98" cy="445.00" r="3.3" fill="#ffffff" stroke="#111111" stroke-width="1.4"/>
<text x="1060.00" y="464.00" text-anchor="middle" font-family="Times New Roman, serif" font-size="12" fill="#111111">DUP</text>
<circle cx="1240.00" cy="295.00" r="30.00" fill="#ffffff" stroke="#111111" stroke-width="2.0"/>
<circle cx="1240.00" cy="265.00" r="4.0" fill="#111111"/>
<circle cx="1240.00" cy="325.00" r="3.3" fill="#ffffff" stroke="#111111" stroke-width="1.4"/>
<text x="1240.00" y="299.00" text-anchor="middle" font-family="Times New Roman, serif" font-size="12" fill="#111111">VAR</text>
<circle cx="1060.00" cy="570.00" r="30.00" fill="#ffffff" stroke="#111111" stroke-width="2.0"/>
<circle cx="1060.00" cy="540.00" r="4.0" fill="#111111"/>
<circle cx="1060.00" cy="600.00" r="3.3" fill="#ffffff" stroke="#111111" stroke-width="1.4"/>
<text x="1060.00" y="574.00" text-anchor="middle" font-family="Times New Roman, serif" font-size="12" fill="#111111">VAR</text>
<circle cx="700.00" cy="900.00" r="30.00" fill="#ffffff" stroke="#111111" stroke-width="2.0"/>
<circle cx="700.00" cy="870.00" r="4.0" fill="#111111"/>
<circle cx="700.00" cy="930.00" r="3.3" fill="#ffffff" stroke="#111111" stroke-width="1.4"/>
<text x="700.00" y="904.00" text-anchor="middle" font-family="Times New Roman, serif" font-size="12" fill="#111111">VAR</text>
<circle cx="880.00" cy="845.00" r="30.00" fill="#ffffff" stroke="#111111" stroke-width="2.0"/>
<circle cx="880.00" cy="815.00" r="4.0" fill="#111111"/>
<circle cx="854.02" cy="830.00" r="3.3" fill="#ffffff" stroke="#111111" stroke-width="1.4"/>
<circle cx="905.98" cy="830.00" r="3.3" fill="#ffffff" stroke="#111111" stroke-width="1.4"/>
<text x="880.00" y="849.00" text-anchor="middle" font-family="Times New Roman, serif" font-size="12" fill="#111111">DUP</text>
<circle cx="1060.00" cy="680.00" r="30.00" fill="#ffffff" stroke="#111111" stroke-width="2.0"/>
<circle cx="1060.00" cy="650.00" r="4.0" fill="#111111"/>
<circle cx="1060.00" cy="710.00" r="3.3" fill="#ffffff" stroke="#111111" stroke-width="1.4"/>
<text x="1060.00" y="684.00" text-anchor="middle" font-family="Times New Roman, serif" font-size="12" fill="#111111">VAR</text>
<circle cx="1060.00" cy="790.00" r="30.00" fill="#ffffff" stroke="#111111" stroke-width="2.0"/>
<circle cx="1060.00" cy="760.00" r="4.0" fill="#111111"/>
<circle cx="1060.00" cy="820.00" r="3.3" fill="#ffffff" stroke="#111111" stroke-width="1.4"/>
<text x="1060.00" y="794.00" text-anchor="middle" font-family="Times New Roman, serif" font-size="12" fill="#111111">VAR</text>
<circle cx="1240.00" cy="405.00" r="30.00" fill="#ffffff" stroke="#111111" stroke-width="2.0"/>
<circle cx="1240.00" cy="375.00" r="4.0" fill="#111111"/>
<circle cx="1240.00" cy="435.00" r="3.3" fill="#ffffff" stroke="#111111" stroke-width="1.4"/>
<text x="1240.00" y="409.00" text-anchor="middle" font-family="Times New Roman, serif" font-size="12" fill="#111111">VAR</text>
<circle cx="1060.00" cy="900.00" r="30.00" fill="#ffffff" stroke="#111111" stroke-width="2.0"/>
<circle cx="1060.00" cy="870.00" r="4.0" fill="#111111"/>
<text x="1060.00" y="898.00" text-anchor="middle" font-family="Times New Roman, serif" font-size="11" fill="#111111">FREF</text>
<text x="1060.00" y="912.00" text-anchor="middle" font-family="Times New Roman, serif" font-size="9" fill="#111111">state_px</text>
<circle cx="880.00" cy="955.00" r="30.00" fill="#ffffff" stroke="#111111" stroke-width="2.0"/>
<circle cx="880.00" cy="925.00" r="4.0" fill="#111111"/>
<circle cx="854.02" cy="940.00" r="3.3" fill="#ffffff" stroke="#111111" stroke-width="1.4"/>
<circle cx="905.98" cy="940.00" r="3.3" fill="#ffffff" stroke="#111111" stroke-width="1.4"/>
<text x="880.00" y="959.00" text-anchor="middle" font-family="Times New Roman, serif" font-size="12" fill="#111111">APP</text>
<circle cx="1060.00" cy="1010.00" r="30.00" fill="#ffffff" stroke="#111111" stroke-width="2.0"/>
<circle cx="1060.00" cy="980.00" r="4.0" fill="#111111"/>
<circle cx="1060.00" cy="1040.00" r="3.3" fill="#ffffff" stroke="#111111" stroke-width="1.4"/>
<text x="1060.00" y="1014.00" text-anchor="middle" font-family="Times New Roman, serif" font-size="12" fill="#111111">VAR</text>
<circle cx="1600.00" cy="350.00" r="30.00" fill="#ffffff" stroke="#111111" stroke-width="2.0"/>
<circle cx="1600.00" cy="320.00" r="4.0" fill="#111111"/>
<circle cx="1600.00" cy="380.00" r="3.3" fill="#ffffff" stroke="#111111" stroke-width="1.4"/>
<text x="1600.00" y="354.00" text-anchor="middle" font-family="Times New Roman, serif" font-size="12" fill="#111111">VAR</text>
<circle cx="1420.00" cy="130.00" r="30.00" fill="#ffffff" stroke="#111111" stroke-width="2.0"/>
<circle cx="1420.00" cy="100.00" r="4.0" fill="#111111"/>
<text x="1420.00" y="128.00" text-anchor="middle" font-family="Times New Roman, serif" font-size="11" fill="#111111">FREF</text>
<text x="1420.00" y="142.00" text-anchor="middle" font-family="Times New Roman, serif" font-size="9" fill="#111111">state_py</text>
<circle cx="1240.00" cy="515.00" r="30.00" fill="#ffffff" stroke="#111111" stroke-width="2.0"/>
<circle cx="1240.00" cy="485.00" r="4.0" fill="#111111"/>
<circle cx="1214.02" cy="500.00" r="3.3" fill="#ffffff" stroke="#111111" stroke-width="1.4"/>
<circle cx="1265.98" cy="500.00" r="3.3" fill="#ffffff" stroke="#111111" stroke-width="1.4"/>
<text x="1240.00" y="519.00" text-anchor="middle" font-family="Times New Roman, serif" font-size="12" fill="#111111">APP</text>
<circle cx="1420.00" cy="240.00" r="30.00" fill="#ffffff" stroke="#111111" stroke-width="2.0"/>
<circle cx="1420.00" cy="210.00" r="4.0" fill="#111111"/>
<circle cx="1420.00" cy="270.00" r="3.3" fill="#ffffff" stroke="#111111" stroke-width="1.4"/>
<text x="1420.00" y="244.00" text-anchor="middle" font-family="Times New Roman, serif" font-size="12" fill="#111111">VAR</text>
<circle cx="1600.00" cy="460.00" r="30.00" fill="#ffffff" stroke="#111111" stroke-width="2.0"/>
<circle cx="1600.00" cy="430.00" r="4.0" fill="#111111"/>
<circle cx="1600.00" cy="490.00" r="3.3" fill="#ffffff" stroke="#111111" stroke-width="1.4"/>
<text x="1600.00" y="464.00" text-anchor="middle" font-family="Times New Roman, serif" font-size="12" fill="#111111">VAR</text>
<circle cx="1420.00" cy="350.00" r="30.00" fill="#ffffff" stroke="#111111" stroke-width="2.0"/>
<circle cx="1420.00" cy="320.00" r="4.0" fill="#111111"/>
<text x="1420.00" y="348.00" text-anchor="middle" font-family="Times New Roman, serif" font-size="11" fill="#111111">FREF</text>
<text x="1420.00" y="362.00" text-anchor="middle" font-family="Times New Roman, serif" font-size="9" fill="#111111">state_angle</text>
<circle cx="1240.00" cy="625.00" r="30.00" fill="#ffffff" stroke="#111111" stroke-width="2.0"/>
<circle cx="1240.00" cy="595.00" r="4.0" fill="#111111"/>
<circle cx="1214.02" cy="610.00" r="3.3" fill="#ffffff" stroke="#111111" stroke-width="1.4"/>
<circle cx="1265.98" cy="610.00" r="3.3" fill="#ffffff" stroke="#111111" stroke-width="1.4"/>
<text x="1240.00" y="629.00" text-anchor="middle" font-family="Times New Roman, serif" font-size="12" fill="#111111">APP</text>
<circle cx="1420.00" cy="460.00" r="30.00" fill="#ffffff" stroke="#111111" stroke-width="2.0"/>
<circle cx="1420.00" cy="430.00" r="4.0" fill="#111111"/>
<circle cx="1420.00" cy="490.00" r="3.3" fill="#ffffff" stroke="#111111" stroke-width="1.4"/>
<text x="1420.00" y="464.00" text-anchor="middle" font-family="Times New Roman, serif" font-size="12" fill="#111111">VAR</text>
<circle cx="2140.00" cy="625.00" r="30.00" fill="#ffffff" stroke="#111111" stroke-width="2.0"/>
<circle cx="2140.00" cy="595.00" r="4.0" fill="#111111"/>
<circle cx="2140.00" cy="655.00" r="3.3" fill="#ffffff" stroke="#111111" stroke-width="1.4"/>
<text x="2140.00" y="629.00" text-anchor="middle" font-family="Times New Roman, serif" font-size="12" fill="#111111">VAR</text>
<circle cx="1960.00" cy="405.00" r="30.00" fill="#ffffff" stroke="#111111" stroke-width="2.0"/>
<circle cx="1960.00" cy="375.00" r="4.0" fill="#111111"/>
<text x="1960.00" y="403.00" text-anchor="middle" font-family="Times New Roman, serif" font-size="11" fill="#111111">FREF</text>
<text x="1960.00" y="417.00" text-anchor="middle" font-family="Times New Roman, serif" font-size="9" fill="#111111">deg_to_rad</text>
<circle cx="1780.00" cy="405.00" r="30.00" fill="#ffffff" stroke="#111111" stroke-width="2.0"/>
<circle cx="1780.00" cy="375.00" r="4.0" fill="#111111"/>
<circle cx="1754.02" cy="390.00" r="3.3" fill="#ffffff" stroke="#111111" stroke-width="1.4"/>
<circle cx="1805.98" cy="390.00" r="3.3" fill="#ffffff" stroke="#111111" stroke-width="1.4"/>
<text x="1780.00" y="409.00" text-anchor="middle" font-family="Times New Roman, serif" font-size="12" fill="#111111">APP</text>
<circle cx="1960.00" cy="515.00" r="30.00" fill="#ffffff" stroke="#111111" stroke-width="2.0"/>
<circle cx="1960.00" cy="485.00" r="4.0" fill="#111111"/>
<circle cx="1960.00" cy="545.00" r="3.3" fill="#ffffff" stroke="#111111" stroke-width="1.4"/>
<text x="1960.00" y="519.00" text-anchor="middle" font-family="Times New Roman, serif" font-size="12" fill="#111111">VAR</text>
<circle cx="2140.00" cy="735.00" r="30.00" fill="#ffffff" stroke="#111111" stroke-width="2.0"/>
<circle cx="2140.00" cy="705.00" r="4.0" fill="#111111"/>
<circle cx="2114.02" cy="720.00" r="3.3" fill="#ffffff" stroke="#111111" stroke-width="1.4"/>
<circle cx="2165.98" cy="720.00" r="3.3" fill="#ffffff" stroke="#111111" stroke-width="1.4"/>
<text x="2140.00" y="739.00" text-anchor="middle" font-family="Times New Roman, serif" font-size="12" fill="#111111">DUP</text>
<circle cx="1960.00" cy="625.00" r="30.00" fill="#ffffff" stroke="#111111" stroke-width="2.0"/>
<circle cx="1960.00" cy="595.00" r="4.0" fill="#111111"/>
<circle cx="1960.00" cy="655.00" r="3.3" fill="#ffffff" stroke="#111111" stroke-width="1.4"/>
<text x="1960.00" y="629.00" text-anchor="middle" font-family="Times New Roman, serif" font-size="12" fill="#111111">VAR</text>
<circle cx="2320.00" cy="790.00" r="30.00" fill="#ffffff" stroke="#111111" stroke-width="2.0"/>
<circle cx="2320.00" cy="760.00" r="4.0" fill="#111111"/>
<circle cx="2320.00" cy="820.00" r="3.3" fill="#ffffff" stroke="#111111" stroke-width="1.4"/>
<text x="2320.00" y="794.00" text-anchor="middle" font-family="Times New Roman, serif" font-size="12" fill="#111111">VAR</text>
<circle cx="1960.00" cy="735.00" r="30.00" fill="#ffffff" stroke="#111111" stroke-width="2.0"/>
<circle cx="1960.00" cy="705.00" r="4.0" fill="#111111"/>
<circle cx="1960.00" cy="765.00" r="3.3" fill="#ffffff" stroke="#111111" stroke-width="1.4"/>
<text x="1960.00" y="739.00" text-anchor="middle" font-family="Times New Roman, serif" font-size="12" fill="#111111">VAR</text>
<circle cx="1780.00" cy="515.00" r="30.00" fill="#ffffff" stroke="#111111" stroke-width="2.0"/>
<circle cx="1780.00" cy="485.00" r="4.0" fill="#111111"/>
<circle cx="1754.02" cy="500.00" r="3.3" fill="#ffffff" stroke="#111111" stroke-width="1.4"/>
<circle cx="1805.98" cy="500.00" r="3.3" fill="#ffffff" stroke="#111111" stroke-width="1.4"/>
<text x="1780.00" y="519.00" text-anchor="middle" font-family="Times New Roman, serif" font-size="12" fill="#111111">0xe0</text>
<circle cx="1600.00" cy="570.00" r="30.00" fill="#ffffff" stroke="#111111" stroke-width="2.0"/>
<circle cx="1600.00" cy="540.00" r="4.0" fill="#111111"/>
<circle cx="1600.00" cy="600.00" r="3.3" fill="#ffffff" stroke="#111111" stroke-width="1.4"/>
<text x="1600.00" y="574.00" text-anchor="middle" font-family="Times New Roman, serif" font-size="12" fill="#111111">VAR</text>
<circle cx="1420.00" cy="570.00" r="30.00" fill="#ffffff" stroke="#111111" stroke-width="2.0"/>
<circle cx="1420.00" cy="540.00" r="4.0" fill="#111111"/>
<circle cx="1394.02" cy="555.00" r="3.3" fill="#ffffff" stroke="#111111" stroke-width="1.4"/>
<circle cx="1420.00" cy="600.00" r="3.3" fill="#ffffff" stroke="#111111" stroke-width="1.4"/>
<circle cx="1445.98" cy="555.00" r="3.3" fill="#ffffff" stroke="#111111" stroke-width="1.4"/>
<text x="1420.00" y="574.00" text-anchor="middle" font-family="Times New Roman, serif" font-size="12" fill="#111111">ADD</text>
<circle cx="1600.00" cy="680.00" r="30.00" fill="#ffffff" stroke="#111111" stroke-width="2.0"/>
<circle cx="1600.00" cy="650.00" r="4.0" fill="#111111"/>
<circle cx="1600.00" cy="710.00" r="3.3" fill="#ffffff" stroke="#111111" stroke-width="1.4"/>
<text x="1600.00" y="684.00" text-anchor="middle" font-family="Times New Roman, serif" font-size="12" fill="#111111">VAR</text>
<circle cx="1780.00" cy="625.00" r="30.00" fill="#ffffff" stroke="#111111" stroke-width="2.0"/>
<circle cx="1780.00" cy="595.00" r="4.0" fill="#111111"/>
<circle cx="1754.02" cy="610.00" r="3.3" fill="#ffffff" stroke="#111111" stroke-width="1.4"/>
<circle cx="1805.98" cy="610.00" r="3.3" fill="#ffffff" stroke="#111111" stroke-width="1.4"/>
<text x="1780.00" y="629.00" text-anchor="middle" font-family="Times New Roman, serif" font-size="12" fill="#111111">0xe3</text>
<circle cx="1960.00" cy="845.00" r="30.00" fill="#ffffff" stroke="#111111" stroke-width="2.0"/>
<circle cx="1960.00" cy="815.00" r="4.0" fill="#111111"/>
<circle cx="1960.00" cy="875.00" r="3.3" fill="#ffffff" stroke="#111111" stroke-width="1.4"/>
<text x="1960.00" y="849.00" text-anchor="middle" font-family="Times New Roman, serif" font-size="12" fill="#111111">VAR</text>
<circle cx="1780.00" cy="735.00" r="30.00" fill="#ffffff" stroke="#111111" stroke-width="2.0"/>
<circle cx="1780.00" cy="705.00" r="4.0" fill="#111111"/>
<circle cx="1754.02" cy="720.00" r="3.3" fill="#ffffff" stroke="#111111" stroke-width="1.4"/>
<circle cx="1805.98" cy="720.00" r="3.3" fill="#ffffff" stroke="#111111" stroke-width="1.4"/>
<text x="1780.00" y="739.00" text-anchor="middle" font-family="Times New Roman, serif" font-size="12" fill="#111111">DUP</text>
<circle cx="1600.00" cy="790.00" r="30.00" fill="#ffffff" stroke="#111111" stroke-width="2.0"/>
<circle cx="1600.00" cy="760.00" r="4.0" fill="#111111"/>
<circle cx="1600.00" cy="820.00" r="3.3" fill="#ffffff" stroke="#111111" stroke-width="1.4"/>
<text x="1600.00" y="794.00" text-anchor="middle" font-family="Times New Roman, serif" font-size="12" fill="#111111">VAR</text>
<circle cx="1780.00" cy="845.00" r="30.00" fill="#ffffff" stroke="#111111" stroke-width="2.0"/>
<circle cx="1780.00" cy="815.00" r="4.0" fill="#111111"/>
<circle cx="1780.00" cy="875.00" r="3.3" fill="#ffffff" stroke="#111111" stroke-width="1.4"/>
<text x="1780.00" y="849.00" text-anchor="middle" font-family="Times New Roman, serif" font-size="12" fill="#111111">VAR</text>
<circle cx="1780.00" cy="955.00" r="30.00" fill="#ffffff" stroke="#111111" stroke-width="2.0"/>
<circle cx="1780.00" cy="925.00" r="4.0" fill="#111111"/>
<circle cx="1780.00" cy="985.00" r="3.3" fill="#ffffff" stroke="#111111" stroke-width="1.4"/>
<text x="1780.00" y="959.00" text-anchor="middle" font-family="Times New Roman, serif" font-size="12" fill="#111111">VAR</text>
<circle cx="2140.00" cy="845.00" r="30.00" fill="#ffffff" stroke="#111111" stroke-width="2.0"/>
<circle cx="2140.00" cy="815.00" r="4.0" fill="#111111"/>
<circle cx="2114.02" cy="830.00" r="3.3" fill="#ffffff" stroke="#111111" stroke-width="1.4"/>
<circle cx="2165.98" cy="830.00" r="3.3" fill="#ffffff" stroke="#111111" stroke-width="1.4"/>
<text x="2140.00" y="849.00" text-anchor="middle" font-family="Times New Roman, serif" font-size="12" fill="#111111">0xe1</text>
<circle cx="1960.00" cy="955.00" r="30.00" fill="#ffffff" stroke="#111111" stroke-width="2.0"/>
<circle cx="1960.00" cy="925.00" r="4.0" fill="#111111"/>
<circle cx="1960.00" cy="985.00" r="3.3" fill="#ffffff" stroke="#111111" stroke-width="1.4"/>
<text x="1960.00" y="959.00" text-anchor="middle" font-family="Times New Roman, serif" font-size="12" fill="#111111">VAR</text>
<circle cx="1780.00" cy="1065.00" r="30.00" fill="#ffffff" stroke="#111111" stroke-width="2.0"/>
<circle cx="1780.00" cy="1035.00" r="4.0" fill="#111111"/>
<circle cx="1754.02" cy="1050.00" r="3.3" fill="#ffffff" stroke="#111111" stroke-width="1.4"/>
<circle cx="1780.00" cy="1095.00" r="3.3" fill="#ffffff" stroke="#111111" stroke-width="1.4"/>
<circle cx="1805.98" cy="1050.00" r="3.3" fill="#ffffff" stroke="#111111" stroke-width="1.4"/>
<text x="1780.00" y="1069.00" text-anchor="middle" font-family="Times New Roman, serif" font-size="12" fill="#111111">ADD</text>
<circle cx="1960.00" cy="1065.00" r="30.00" fill="#ffffff" stroke="#111111" stroke-width="2.0"/>
<circle cx="1960.00" cy="1035.00" r="4.0" fill="#111111"/>
<circle cx="1960.00" cy="1095.00" r="3.3" fill="#ffffff" stroke="#111111" stroke-width="1.4"/>
<text x="1960.00" y="1069.00" text-anchor="middle" font-family="Times New Roman, serif" font-size="12" fill="#111111">VAR</text>
<circle cx="2140.00" cy="955.00" r="30.00" fill="#ffffff" stroke="#111111" stroke-width="2.0"/>
<circle cx="2140.00" cy="925.00" r="4.0" fill="#111111"/>
<circle cx="2114.02" cy="940.00" r="3.3" fill="#ffffff" stroke="#111111" stroke-width="1.4"/>
<circle cx="2165.98" cy="940.00" r="3.3" fill="#ffffff" stroke="#111111" stroke-width="1.4"/>
<text x="2140.00" y="959.00" text-anchor="middle" font-family="Times New Roman, serif" font-size="12" fill="#111111">0xe3</text>
<circle cx="1960.00" cy="1175.00" r="30.00" fill="#ffffff" stroke="#111111" stroke-width="2.0"/>
<circle cx="1960.00" cy="1145.00" r="4.0" fill="#111111"/>
<circle cx="1960.00" cy="1205.00" r="3.3" fill="#ffffff" stroke="#111111" stroke-width="1.4"/>
<text x="1960.00" y="1179.00" text-anchor="middle" font-family="Times New Roman, serif" font-size="12" fill="#111111">VAR</text>
<circle cx="1600.00" cy="900.00" r="30.00" fill="#ffffff" stroke="#111111" stroke-width="2.0"/>
<circle cx="1600.00" cy="870.00" r="4.0" fill="#111111"/>
<circle cx="1574.02" cy="885.00" r="3.3" fill="#ffffff" stroke="#111111" stroke-width="1.4"/>
<circle cx="1625.98" cy="885.00" r="3.3" fill="#ffffff" stroke="#111111" stroke-width="1.4"/>
<text x="1600.00" y="904.00" text-anchor="middle" font-family="Times New Roman, serif" font-size="12" fill="#111111">DUP</text>
<circle cx="1780.00" cy="1175.00" r="30.00" fill="#ffffff" stroke="#111111" stroke-width="2.0"/>
<circle cx="1780.00" cy="1145.00" r="4.0" fill="#111111"/>
<circle cx="1780.00" cy="1205.00" r="3.3" fill="#ffffff" stroke="#111111" stroke-width="1.4"/>
<text x="1780.00" y="1179.00" text-anchor="middle" font-family="Times New Roman, serif" font-size="12" fill="#111111">VAR</text>
<circle cx="1420.00" cy="680.00" r="30.00" fill="#ffffff" stroke="#111111" stroke-width="2.0"/>
<circle cx="1420.00" cy="650.00" r="4.0" fill="#111111"/>
<circle cx="1420.00" cy="710.00" r="3.3" fill="#ffffff" stroke="#111111" stroke-width="1.4"/>
<text x="1420.00" y="684.00" text-anchor="middle" font-family="Times New Roman, serif" font-size="12" fill="#111111">VAR</text>
<circle cx="1240.00" cy="735.00" r="30.00" fill="#ffffff" stroke="#111111" stroke-width="2.0"/>
<circle cx="1240.00" cy="705.00" r="4.0" fill="#111111"/>
<text x="1240.00" y="733.00" text-anchor="middle" font-family="Times New Roman, serif" font-size="11" fill="#111111">FREF</text>
<text x="1240.00" y="747.00" text-anchor="middle" font-family="Times New Roman, serif" font-size="9" fill="#111111">is_wall</text>
<circle cx="1060.00" cy="1120.00" r="30.00" fill="#ffffff" stroke="#111111" stroke-width="2.0"/>
<circle cx="1060.00" cy="1090.00" r="4.0" fill="#111111"/>
<circle cx="1034.02" cy="1105.00" r="3.3" fill="#ffffff" stroke="#111111" stroke-width="1.4"/>
<circle cx="1085.98" cy="1105.00" r="3.3" fill="#ffffff" stroke="#111111" stroke-width="1.4"/>
<text x="1060.00" y="1124.00" text-anchor="middle" font-family="Times New Roman, serif" font-size="12" fill="#111111">APP</text>
<circle cx="1240.00" cy="845.00" r="30.00" fill="#ffffff" stroke="#111111" stroke-width="2.0"/>
<circle cx="1240.00" cy="815.00" r="4.0" fill="#111111"/>
<circle cx="1240.00" cy="875.00" r="3.3" fill="#ffffff" stroke="#111111" stroke-width="1.4"/>
<text x="1240.00" y="849.00" text-anchor="middle" font-family="Times New Roman, serif" font-size="12" fill="#111111">VAR</text>
<circle cx="1420.00" cy="790.00" r="30.00" fill="#ffffff" stroke="#111111" stroke-width="2.0"/>
<circle cx="1420.00" cy="760.00" r="4.0" fill="#111111"/>
<circle cx="1394.02" cy="775.00" r="3.3" fill="#ffffff" stroke="#111111" stroke-width="1.4"/>
<circle cx="1445.98" cy="775.00" r="3.3" fill="#ffffff" stroke="#111111" stroke-width="1.4"/>
<text x="1420.00" y="794.00" text-anchor="middle" font-family="Times New Roman, serif" font-size="12" fill="#111111">APP</text>
<circle cx="1600.00" cy="1010.00" r="30.00" fill="#ffffff" stroke="#111111" stroke-width="2.0"/>
<circle cx="1600.00" cy="980.00" r="4.0" fill="#111111"/>
<circle cx="1600.00" cy="1040.00" r="3.3" fill="#ffffff" stroke="#111111" stroke-width="1.4"/>
<text x="1600.00" y="1014.00" text-anchor="middle" font-family="Times New Roman, serif" font-size="12" fill="#111111">VAR</text>
<circle cx="1600.00" cy="1120.00" r="30.00" fill="#ffffff" stroke="#111111" stroke-width="2.0"/>
<circle cx="1600.00" cy="1090.00" r="4.0" fill="#111111"/>
<circle cx="1574.02" cy="1105.00" r="3.3" fill="#ffffff" stroke="#111111" stroke-width="1.4"/>
<circle cx="1625.98" cy="1105.00" r="3.3" fill="#ffffff" stroke="#111111" stroke-width="1.4"/>
<text x="1600.00" y="1124.00" text-anchor="middle" font-family="Times New Roman, serif" font-size="12" fill="#111111">APP</text>
<circle cx="1420.00" cy="900.00" r="30.00" fill="#ffffff" stroke="#111111" stroke-width="2.0"/>
<circle cx="1420.00" cy="870.00" r="4.0" fill="#111111"/>
<circle cx="1420.00" cy="930.00" r="3.3" fill="#ffffff" stroke="#111111" stroke-width="1.4"/>
<text x="1420.00" y="904.00" text-anchor="middle" font-family="Times New Roman, serif" font-size="12" fill="#111111">VAR</text>
<circle cx="1240.00" cy="955.00" r="30.00" fill="#ffffff" stroke="#111111" stroke-width="2.0"/>
<circle cx="1240.00" cy="925.00" r="4.0" fill="#111111"/>
<circle cx="1214.02" cy="940.00" r="3.3" fill="#ffffff" stroke="#111111" stroke-width="1.4"/>
<circle cx="1265.98" cy="940.00" r="3.3" fill="#ffffff" stroke="#111111" stroke-width="1.4"/>
<text x="1240.00" y="959.00" text-anchor="middle" font-family="Times New Roman, serif" font-size="12" fill="#111111">APP</text>
<circle cx="1420.00" cy="1010.00" r="30.00" fill="#ffffff" stroke="#111111" stroke-width="2.0"/>
<circle cx="1420.00" cy="980.00" r="4.0" fill="#111111"/>
<circle cx="1420.00" cy="1040.00" r="3.3" fill="#ffffff" stroke="#111111" stroke-width="1.4"/>
<text x="1420.00" y="1014.00" text-anchor="middle" font-family="Times New Roman, serif" font-size="12" fill="#111111">VAR</text>
<circle cx="1420.00" cy="1120.00" r="30.00" fill="#ffffff" stroke="#111111" stroke-width="2.0"/>
<circle cx="1420.00" cy="1090.00" r="4.0" fill="#111111"/>
<text x="1420.00" y="1124.00" text-anchor="middle" font-family="Times New Roman, serif" font-size="12" fill="#111111">INT</text>
<circle cx="1240.00" cy="1065.00" r="30.00" fill="#ffffff" stroke="#111111" stroke-width="2.0"/>
<circle cx="1240.00" cy="1035.00" r="4.0" fill="#111111"/>
<circle cx="1214.02" cy="1050.00" r="3.3" fill="#ffffff" stroke="#111111" stroke-width="1.4"/>
<circle cx="1240.00" cy="1095.00" r="3.3" fill="#ffffff" stroke="#111111" stroke-width="1.4"/>
<circle cx="1265.98" cy="1050.00" r="3.3" fill="#ffffff" stroke="#111111" stroke-width="1.4"/>
<text x="1240.00" y="1069.00" text-anchor="middle" font-family="Times New Roman, serif" font-size="12" fill="#111111">EQL</text>
<circle cx="1060.00" cy="1230.00" r="30.00" fill="#ffffff" stroke="#111111" stroke-width="2.0"/>
<circle cx="1060.00" cy="1200.00" r="4.0" fill="#111111"/>
<circle cx="1060.00" cy="1260.00" r="3.3" fill="#ffffff" stroke="#111111" stroke-width="1.4"/>
<text x="1060.00" y="1234.00" text-anchor="middle" font-family="Times New Roman, serif" font-size="12" fill="#111111">VAR</text>
<circle cx="1240.00" cy="1175.00" r="30.00" fill="#ffffff" stroke="#111111" stroke-width="2.0"/>
<circle cx="1240.00" cy="1145.00" r="4.0" fill="#111111"/>
<circle cx="1214.02" cy="1160.00" r="3.3" fill="#ffffff" stroke="#111111" stroke-width="1.4"/>
<circle cx="1240.00" cy="1205.00" r="3.3" fill="#ffffff" stroke="#111111" stroke-width="1.4"/>
<circle cx="1265.98" cy="1160.00" r="3.3" fill="#ffffff" stroke="#111111" stroke-width="1.4"/>
<text x="1240.00" y="1179.00" text-anchor="middle" font-family="Times New Roman, serif" font-size="12" fill="#111111">MUL</text>
<circle cx="1420.00" cy="1230.00" r="30.00" fill="#ffffff" stroke="#111111" stroke-width="2.0"/>
<circle cx="1420.00" cy="1200.00" r="4.0" fill="#111111"/>
<circle cx="1420.00" cy="1260.00" r="3.3" fill="#ffffff" stroke="#111111" stroke-width="1.4"/>
<text x="1420.00" y="1234.00" text-anchor="middle" font-family="Times New Roman, serif" font-size="12" fill="#111111">VAR</text>
<circle cx="1600.00" cy="1230.00" r="30.00" fill="#ffffff" stroke="#111111" stroke-width="2.0"/>
<circle cx="1600.00" cy="1200.00" r="4.0" fill="#111111"/>
<circle cx="1574.02" cy="1215.00" r="3.3" fill="#ffffff" stroke="#111111" stroke-width="1.4"/>
<circle cx="1600.00" cy="1260.00" r="3.3" fill="#ffffff" stroke="#111111" stroke-width="1.4"/>
<circle cx="1625.98" cy="1215.00" r="3.3" fill="#ffffff" stroke="#111111" stroke-width="1.4"/>
<text x="1600.00" y="1234.00" text-anchor="middle" font-family="Times New Roman, serif" font-size="12" fill="#111111">ADD</text>
<circle cx="1420.00" cy="1340.00" r="30.00" fill="#ffffff" stroke="#111111" stroke-width="2.0"/>
<circle cx="1420.00" cy="1310.00" r="4.0" fill="#111111"/>
<circle cx="1420.00" cy="1370.00" r="3.3" fill="#ffffff" stroke="#111111" stroke-width="1.4"/>
<text x="1420.00" y="1344.00" text-anchor="middle" font-family="Times New Roman, serif" font-size="12" fill="#111111">VAR</text>
<circle cx="1420.00" cy="1450.00" r="30.00" fill="#ffffff" stroke="#111111" stroke-width="2.0"/>
<circle cx="1420.00" cy="1420.00" r="4.0" fill="#111111"/>
<text x="1420.00" y="1454.00" text-anchor="middle" font-family="Times New Roman, serif" font-size="12" fill="#111111">INT</text>
<circle cx="1240.00" cy="1285.00" r="30.00" fill="#ffffff" stroke="#111111" stroke-width="2.0"/>
<circle cx="1240.00" cy="1255.00" r="4.0" fill="#111111"/>
<circle cx="1214.02" cy="1270.00" r="3.3" fill="#ffffff" stroke="#111111" stroke-width="1.4"/>
<circle cx="1220.72" cy="1307.98" r="3.3" fill="#ffffff" stroke="#111111" stroke-width="1.4"/>
<circle cx="1259.28" cy="1307.98" r="3.3" fill="#ffffff" stroke="#111111" stroke-width="1.4"/>
<circle cx="1265.98" cy="1270.00" r="3.3" fill="#ffffff" stroke="#111111" stroke-width="1.4"/>
<text x="1240.00" y="1289.00" text-anchor="middle" font-family="Times New Roman, serif" font-size="12" fill="#111111">AST</text>
<circle cx="1060.00" cy="1340.00" r="30.00" fill="#ffffff" stroke="#111111" stroke-width="2.0"/>
<circle cx="1060.00" cy="1310.00" r="4.0" fill="#111111"/>
<circle cx="1060.00" cy="1370.00" r="3.3" fill="#ffffff" stroke="#111111" stroke-width="1.4"/>
<text x="1060.00" y="1344.00" text-anchor="middle" font-family="Times New Roman, serif" font-size="12" fill="#111111">VAR</text>
<circle cx="880.00" cy="1065.00" r="30.00" fill="#ffffff" stroke="#111111" stroke-width="2.0"/>
<circle cx="880.00" cy="1035.00" r="4.0" fill="#111111"/>
<circle cx="854.02" cy="1050.00" r="3.3" fill="#ffffff" stroke="#111111" stroke-width="1.4"/>
<circle cx="880.00" cy="1095.00" r="3.3" fill="#ffffff" stroke="#111111" stroke-width="1.4"/>
<circle cx="905.98" cy="1050.00" r="3.3" fill="#ffffff" stroke="#111111" stroke-width="1.4"/>
<text x="880.00" y="1069.00" text-anchor="middle" font-family="Times New Roman, serif" font-size="12" fill="#111111">IFT</text>
<circle cx="700.00" cy="1010.00" r="30.00" fill="#ffffff" stroke="#111111" stroke-width="2.0"/>
<circle cx="700.00" cy="980.00" r="4.0" fill="#111111"/>
<circle cx="700.00" cy="1040.00" r="3.3" fill="#ffffff" stroke="#111111" stroke-width="1.4"/>
<text x="700.00" y="1014.00" text-anchor="middle" font-family="Times New Roman, serif" font-size="12" fill="#111111">VAR</text>
<circle cx="520.00" cy="900.00" r="30.00" fill="#ffffff" stroke="#111111" stroke-width="2.0"/>
<circle cx="520.00" cy="870.00" r="4.0" fill="#111111"/>
<circle cx="494.02" cy="885.00" r="3.3" fill="#ffffff" stroke="#111111" stroke-width="1.4"/>
<circle cx="545.98" cy="885.00" r="3.3" fill="#ffffff" stroke="#111111" stroke-width="1.4"/>
<text x="520.00" y="904.00" text-anchor="middle" font-family="Times New Roman, serif" font-size="12" fill="#111111">LAM</text>
<circle cx="340.00" cy="845.00" r="30.00" fill="#ffffff" stroke="#111111" stroke-width="2.0"/>
<circle cx="340.00" cy="815.00" r="4.0" fill="#111111"/>
<circle cx="314.02" cy="830.00" r="3.3" fill="#ffffff" stroke="#111111" stroke-width="1.4"/>
<circle cx="365.98" cy="830.00" r="3.3" fill="#ffffff" stroke="#111111" stroke-width="1.4"/>
<text x="340.00" y="849.00" text-anchor="middle" font-family="Times New Roman, serif" font-size="12" fill="#111111">LAM</text>
<circle cx="160.00" cy="790.00" r="30.00" fill="#f5f5f5" stroke="#111111" stroke-width="2.8"/>
<circle cx="160.00" cy="760.00" r="4.0" fill="#111111"/>
<circle cx="134.02" cy="775.00" r="3.3" fill="#ffffff" stroke="#111111" stroke-width="1.4"/>
<circle cx="185.98" cy="775.00" r="3.3" fill="#ffffff" stroke="#111111" stroke-width="1.4"/>
<text x="160.00" y="794.00" text-anchor="middle" font-family="Times New Roman, serif" font-size="12" fill="#111111">LAM</text>
<rect x="16" y="16" width="260" height="154" fill="#ffffff" stroke="#111111" stroke-width="1.2"/>
<text x="24" y="30" font-family="Times New Roman, serif" font-size="11" fill="#111111">AST Reachable Functions:</text>
<text x="24" y="44" font-family="Times New Roman, serif" font-size="10" fill="#111111">entry: use_door</text>
<text x="24" y="58" font-family="Times New Roman, serif" font-size="10" fill="#111111">count: 7</text>
<text x="24" y="72" font-family="Times New Roman, serif" font-size="10" fill="#111111">- use_door</text>
<text x="24" y="86" font-family="Times New Roman, serif" font-size="10" fill="#111111">- deg_to_rad</text>
<text x="24" y="100" font-family="Times New Roman, serif" font-size="10" fill="#111111">- is_wall</text>
<text x="24" y="114" font-family="Times New Roman, serif" font-size="10" fill="#111111">- map_get</text>
<text x="24" y="128" font-family="Times New Roman, serif" font-size="10" fill="#111111">- state_angle</text>
<text x="24" y="142" font-family="Times New Roman, serif" font-size="10" fill="#111111">- state_px</text>
<text x="24" y="156" font-family="Times New Roman, serif" font-size="10" fill="#111111">- state_py</text>
</svg>