<svg xmlns="http://www.w3.org/2000/svg" width="2700" height="810" viewBox="0 0 2700 810">
<rect x="0" y="0" width="100%" height="100%" fill="#ffffff"/>
<path d="M 340.00 320.00 Q 438.49 368.26 545.98 390.00" stroke="#111111" stroke-width="1.6" fill="none"/>
<path d="M 340.00 380.00 Q 262.08 371.03 185.98 390.00" stroke="#111111" stroke-width="1.6" fill="none"/>
<path d="M 520.00 265.00 Q 612.46 391.73 725.98 500.00" stroke="#111111" stroke-width="1.6" fill="none"/>
<path d="M 520.00 325.00 Q 434.39 373.96 365.98 445.00" stroke="#111111" stroke-width="1.6" fill="none"/>
<path d="M 700.00 155.00 Q 791.58 308.11 905.98 445.00" stroke="#111111" stroke-width="1.6" fill="none"/>
<path d="M 700.00 215.00 Q 610.67 350.84 545.98 500.00" stroke="#111111" stroke-width="1.6" fill="none"/>
<path d="M 880.00 210.00 Q 972.46 336.73 1085.98 445.00" stroke="#111111" stroke-width="1.6" fill="none"/>
<path d="M 880.00 270.00 Q 790.24 434.22 725.98 610.00" stroke="#111111" stroke-width="1.6" fill="none"/>
<path d="M 700.00 265.00 Q 602.70 308.05 520.00 375.00" stroke="#111111" stroke-width="1.6" fill="none"/>
<path d="M 494.02 390.00 Q 594.02 426.18 700.00 435.00" stroke="#111111" stroke-width="1.6" fill="none"/>
<path d="M 700.00 375.00 Q 686.00 430.00 700.00 485.00" stroke="#111111" stroke-width="1.6" fill="none"/>
<path d="M 674.02 500.00 Q 784.06 452.10 880.00 380.00" stroke="#111111" stroke-width="1.6" fill="none"/>
<path d="M 880.00 320.00 Q 866.00 375.00 880.00 430.00" stroke="#111111" stroke-width="1.6" fill="none"/>
<path d="M 854.02 445.00 Q 961.22 425.85 1060.00 380.00" stroke="#111111" stroke-width="1.6" fill="none"/>
<path d="M 1060.00 320.00 Q 1150.00 334.00 1240.00 320.00" stroke="#111111" stroke-width="1.6" fill="none"/>
<path d="M 1214.02 335.00 Q 1310.90 397.59 1420.00 435.00" stroke="#111111" stroke-width="1.6" fill="none"/>
<path d="M 1265.98 335.00 Q 1348.78 312.75 1420.00 265.00" stroke="#111111" stroke-width="1.6" fill="none"/>
<path d="M 1780.00 155.00 Q 1675.99 148.54 1574.02 170.00" stroke="#111111" stroke-width="1.6" fill="none"/>
<path d="M 1960.00 100.00 Q 1847.80 179.46 1754.02 280.00" stroke="#111111" stroke-width="1.6" fill="none"/>
<path d="M 2140.00 100.00 Q 2029.75 150.53 1934.02 225.00" stroke="#111111" stroke-width="1.6" fill="none"/>
<path d="M 2140.00 210.00 Q 2061.63 203.57 1985.98 225.00" stroke="#111111" stroke-width="1.6" fill="none"/>
<path d="M 1960.00 210.00 Q 1877.20 232.25 1805.98 280.00" stroke="#111111" stroke-width="1.6" fill="none"/>
<path d="M 1780.00 265.00 Q 1710.34 205.58 1625.98 170.00" stroke="#111111" stroke-width="1.6" fill="none"/>
<path d="M 1600.00 155.00 Q 1489.75 205.53 1394.02 280.00" stroke="#111111" stroke-width="1.6" fill="none"/>
<path d="M 1960.00 320.00 Q 1852.50 341.74 1754.02 390.00" stroke="#111111" stroke-width="1.6" fill="none"/>
<path d="M 2140.00 320.00 Q 2029.75 370.53 1934.02 445.00" stroke="#111111" stroke-width="1.6" fill="none"/>
<path d="M 2320.00 210.00 Q 2206.48 318.27 2114.02 445.00" stroke="#111111" stroke-width="1.6" fill="none"/>
<path d="M 2320.00 320.00 Q 2234.17 371.63 2165.98 445.00" stroke="#111111" stroke-width="1.6" fill="none"/>
<path d="M 2140.00 430.00 Q 2061.63 423.57 1985.98 445.00" stroke="#111111" stroke-width="1.6" fill="none"/>
<path d="M 1960.00 430.00 Q 1886.51 396.45 1805.98 390.00" stroke="#111111" stroke-width="1.6" fill="none"/>
<path d="M 1780.00 375.00 Q 1682.87 314.79 1574.02 280.00" stroke="#111111" stroke-width="1.6" fill="none"/>
<path d="M 2140.00 540.00 Q 2035.99 533.54 1934.02 555.00" stroke="#111111" stroke-width="1.6" fill="none"/>
<path d="M 2320.00 430.00 Q 2206.48 538.27 2114.02 665.00" stroke="#111111" stroke-width="1.6" fill="none"/>
<path d="M 2500.00 320.00 Q 2386.48 428.27 2294.02 555.00" stroke="#111111" stroke-width="1.6" fill="none"/>
<path d="M 2500.00 430.00 Q 2414.17 481.63 2345.98 555.00" stroke="#111111" stroke-width="1.6" fill="none"/>
<path d="M 2320.00 540.00 Q 2234.17 591.63 2165.98 665.00" stroke="#111111" stroke-width="1.6" fill="none"/>
<path d="M 2140.00 650.00 Q 2070.34 590.58 1985.98 555.00" stroke="#111111" stroke-width="1.6" fill="none"/>
<path d="M 1960.00 540.00 Q 1859.68 506.26 1754.02 500.00" stroke="#111111" stroke-width="1.6" fill="none"/>
<path d="M 1960.00 650.00 Q 1892.76 564.97 1805.98 500.00" stroke="#111111" stroke-width="1.6" fill="none"/>
<path d="M 1780.00 485.00 Q 1714.18 374.09 1625.98 280.00" stroke="#111111" stroke-width="1.6" fill="none"/>
<path d="M 1600.00 265.00 Q 1521.63 258.57 1445.98 280.00" stroke="#111111" stroke-width="1.6" fill="none"/>
<path d="M 1420.00 375.00 Q 1510.00 389.00 1600.00 375.00" stroke="#111111" stroke-width="1.6" fill="none"/>
<path d="M 1574.02 390.00 Q 1573.20 469.81 1600.00 545.00" stroke="#111111" stroke-width="1.6" fill="none"/>
<path d="M 1625.98 390.00 Q 1691.80 500.91 1780.00 595.00" stroke="#111111" stroke-width="1.6" fill="none"/>
<path d="M 1600.00 485.00 Q 1510.00 471.00 1420.00 485.00" stroke="#111111" stroke-width="1.6" fill="none"/>
<path d="M 1394.02 500.00 Q 1317.92 481.03 1240.00 490.00" stroke="#111111" stroke-width="1.6" fill="none"/>
<path d="M 1445.98 500.00 Q 1515.64 559.42 1600.00 595.00" stroke="#111111" stroke-width="1.6" fill="none"/>
<path d="M 1240.00 430.00 Q 1150.00 416.00 1060.00 430.00" stroke="#111111" stroke-width="1.6" fill="none"/>
<path d="M 1034.02 445.00 Q 947.08 512.63 880.00 600.00" stroke="#111111" stroke-width="1.6" fill="none"/>
<path d="M 880.00 540.00 Q 772.50 561.74 674.02 610.00" stroke="#111111" stroke-width="1.6" fill="none"/>
<path d="M 700.00 595.00 Q 602.87 534.79 494.02 500.00" stroke="#111111" stroke-width="1.6" fill="none"/>
<path d="M 520.00 485.00 Q 419.68 451.26 314.02 445.00" stroke="#111111" stroke-width="1.6" fill="none"/>
<path d="M 340.00 430.00 Q 239.68 396.26 134.02 390.00" stroke="#111111" stroke-width="1.6" fill="none"/>
<circle cx="340.00" cy="350.00" r="30.00" fill="#ffffff" stroke="#111111" stroke-width="2.0"/>
<circle cx="340.00" cy="320.00" r="4.0" fill="#111111"/>
<circle cx="340.00" cy="380.00" r="3.3" fill="#ffffff" stroke="#111111" stroke-width="1.4"/>
<text x="340.00" y="354.00" text-anchor="middle" font-family="Times New Roman, serif" font-size="12" fill="#111111">VAR</text>
<circle cx="520.00" cy="295.00" r="30.00" fill="#ffffff" stroke="#111111" stroke-width="2.0"/>
<circle cx="520.00" cy="265.00" r="4.0" fill="#111111"/>
<circle cx="520.00" cy="325.00" r="3.3" fill="#ffffff" stroke="#111111" stroke-width="1.4"/>
<text x="520.00" y="299.00" text-anchor="middle" font-family="Times New Roman, serif" font-size="12" fill="#111111">VAR</text>
<circle cx="700.00" cy="185.00" r="30.00" fill="#ffffff" stroke="#111111" stroke-width="2.0"/>
<circle cx="700.00" cy="155.00" r="4.0" fill="#111111"/>
<circle cx="700.00" cy="215.00" r="3.3" fill="#ffffff" stroke="#111111" stroke-width="1.4"/>
<text x="700.00" y="189.00" text-anchor="middle" font-family="Times New Roman, serif" font-size="12" fill="#111111">VAR</text>
<circle cx="880.00" cy="240.00" r="30.00" fill="#ffffff" stroke="#111111" stroke-width="2.0"/>
<circle cx="880.00" cy="210.00" r="4.0" fill="#111111"/>
<circle cx="880.00" cy="270.00" r="3.3" fill="#ffffff" stroke="#111111" stroke-width="1.4"/>
<text x="880.00" y="244.00" text-anchor="middle" font-family="Times New Roman, serif" font-size="12" fill="#111111">VAR</text>
<circle cx="700.00" cy="295.00" r="30.00" fill="#ffffff" stroke="#111111" stroke-width="2.0"/>
<circle cx="700.00" cy="265.00" r="4.0" fill="#111111"/>
<text x="700.00" y="293.00" text-anchor="middle" font-family="Times New Roman, serif" font-size="11" fill="#111111">FREF</text>
<text x="700.00" y="307.00" text-anchor="middle" font-family="Times New Roman, serif" font-size="9" fill="#111111">game_loop_rec</text>
<circle cx="520.00" cy="405.00" r="30.00" fill="#ffffff" stroke="#111111" stroke-width="2.0"/>
<circle cx="520.00" cy="375.00" r="4.0" fill="#111111"/>
<circle cx="494.02" cy="390.00" r="3.3" fill="#ffffff" stroke="#111111" stroke-width="1.4"/>
<circle cx="545.98" cy="390.00" r="3.3" fill="#ffffff" stroke="#111111" stroke-width="1.4"/>
<text x="520.00" y="409.00" text-anchor="middle" font-family="Times New Roman, serif" font-size="12" fill="#111111">APP</text>
<circle cx="700.00" cy="405.00" r="30.00" fill="#ffffff" stroke="#111111" stroke-width="2.0"/>
<circle cx="700.00" cy="375.00" r="4.0" fill="#111111"/>
<circle cx="700.00" cy="435.00" r="3.3" fill="#ffffff" stroke="#111111" stroke-width="1.4"/>
<text x="700.00" y="409.00" text-anchor="middle" font-family="Times New Roman, serif" font-size="12" fill="#111111">VAR</text>
<circle cx="700.00" cy="515.00" r="30.00" fill="#ffffff" stroke="#111111" stroke-width="2.0"/>
<circle cx="700.00" cy="485.00" r="4.0" fill="#111111"/>
<circle cx="674.02" cy="500.00" r="3.3" fill="#ffffff" stroke="#111111" stroke-width="1.4"/>
<circle cx="725.98" cy="500.00" r="3.3" fill="#ffffff" stroke="#111111" stroke-width="1.4"/>
<text x="700.00" y="519.00" text-anchor="middle" font-family="Times New Roman, serif" font-size="12" fill="#111111">APP</text>
<circle cx="880.00" cy="350.00" r="30.00" fill="#ffffff" stroke="#111111" stroke-width="2.0"/>
<circle cx="880.00" cy="320.00" r="4.0" fill="#111111"/>
<circle cx="880.00" cy="380.00" r="3.3" fill="#ffffff" stroke="#111111" stroke-width="1.4"/>
<text x="880.00" y="354.00" text-anchor="middle" font-family="Times New Roman, serif" font-size="12" fill="#111111">VAR</text>
<circle cx="880.00" cy="460.00" r="30.00" fill="#ffffff" stroke="#111111" stroke-width="2.0"/>
<circle cx="880.00" cy="430.00" r="4.0" fill="#111111"/>
<circle cx="854.02" cy="445.00" r="3.3" fill="#ffffff" stroke="#111111" stroke-width="1.4"/>
<circle cx="905.98" cy="445.00" r="3.3" fill="#ffffff" stroke="#111111" stroke-width="1.4"/>
<text x="880.00" y="464.00" text-anchor="middle" font-family="Times New Roman, serif" font-size="12" fill="#111111">APP</text>
<circle cx="1060.00" cy="350.00" r="30.00" fill="#ffffff" stroke="#111111" stroke-width="2.0"/>
<circle cx="1060.00" cy="320.00" r="4.0" fill="#111111"/>
<circle cx="1060.00" cy="380.00" r="3.3" fill="#ffffff" stroke="#111111" stroke-width="1.4"/>
<text x="1060.00" y="354.00" text-anchor="middle" font-family="Times New Roman, serif" font-size="12" fill="#111111">VAR</text>
<circle cx="1240.00" cy="350.00" r="30.00" fill="#ffffff" stroke="#111111" stroke-width="2.0"/>
<circle cx="1240.00" cy="320.00" r="4.0" fill="#111111"/>
<circle cx="1214.02" cy="335.00" r="3.3" fill="#ffffff" stroke="#111111" stroke-width="1.4"/>
<circle cx="1265.98" cy="335.00" r="3.3" fill="#ffffff" stroke="#111111" stroke-width="1.4"/>
<text x="1240.00" y="354.00" text-anchor="middle" font-family="Times New Roman, serif" font-size="12" fill="#111111">APP</text>
<circle cx="1780.00" cy="185.00" r="30.00" fill="#ffffff" stroke="#111111" stroke-width="2.0"/>
<circle cx="1780.00" cy="155.00" r="4.0" fill="#111111"/>
<text x="1780.00" y="189.00" text-anchor="middle" font-family="Times New Roman, serif" font-size="12" fill="#111111">FLT</text>
<circle cx="1960.00" cy="130.00" r="30.00" fill="#ffffff" stroke="#111111" stroke-width="2.0"/>
<circle cx="1960.00" cy="100.00" r="4.0" fill="#111111"/>
<text x="1960.00" y="134.00" text-anchor="middle" font-family="Times New Roman, serif" font-size="12" fill="#111111">FLT</text>
<circle cx="2140.00" cy="130.00" r="30.00" fill="#ffffff" stroke="#111111" stroke-width="2.0"/>
<circle cx="2140.00" cy="100.00" r="4.0" fill="#111111"/>
<text x="2140.00" y="134.00" text-anchor="middle" font-family="Times New Roman, serif" font-size="12" fill="#111111">INT</text>
<circle cx="2140.00" cy="240.00" r="30.00" fill="#ffffff" stroke="#111111" stroke-width="2.0"/>
<circle cx="2140.00" cy="210.00" r="4.0" fill="#111111"/>
<text x="2140.00" y="244.00" text-anchor="middle" font-family="Times New Roman, serif" font-size="12" fill="#111111">NIL</text>
<circle cx="1960.00" cy="240.00" r="30.00" fill="#ffffff" stroke="#111111" stroke-width="2.0"/>
<circle cx="1960.00" cy="210.00" r="4.0" fill="#111111"/>
<circle cx="1934.02" cy="225.00" r="3.3" fill="#ffffff" stroke="#111111" stroke-width="1.4"/>
<circle cx="1985.98" cy="225.00" r="3.3" fill="#ffffff" stroke="#111111" stroke-width="1.4"/>
<text x="1960.00" y="244.00" text-anchor="middle" font-family="Times New Roman, serif" font-size="12" fill="#111111">CON</text>
<circle cx="1780.00" cy="295.00" r="30.00" fill="#ffffff" stroke="#111111" stroke-width="2.0"/>
<circle cx="1780.00" cy="265.00" r="4.0" fill="#111111"/>
<circle cx="1754.02" cy="280.00" r="3.3" fill="#ffffff" stroke="#111111" stroke-width="1.4"/>
<circle cx="1805.98" cy="280.00" r="3.3" fill="#ffffff" stroke="#111111" stroke-width="1.4"/>
<text x="1780.00" y="299.00" text-anchor="middle" font-family="Times New Roman, serif" font-size="12" fill="#111111">CON</text>
<circle cx="1600.00" cy="185.00" r="30.00" fill="#ffffff" stroke="#111111" stroke-width="2.0"/>
<circle cx="1600.00" cy="155.00" r="4.0" fill="#111111"/>
<circle cx="1574.02" cy="170.00" r="3.3" fill="#ffffff" stroke="#111111" stroke-width="1.4"/>
<circle cx="1625.98" cy="170.00" r="3.3" fill="#ffffff" stroke="#111111" stroke-width="1.4"/>
<text x="1600.00" y="189.00" text-anchor="middle" font-family="Times New Roman, serif" font-size="12" fill="#111111">CON</text>
<circle cx="1960.00" cy="350.00" r="30.00" fill="#ffffff" stroke="#111111" stroke-width="2.0"/>
<circle cx="1960.00" cy="320.00" r="4.0" fill="#111111"/>
<text x="1960.00" y="354.00" text-anchor="middle" font-family="Times New Roman, serif" font-size="12" fill="#111111">FLT</text>
<circle cx="2140.00" cy="350.00" r="30.00" fill="#ffffff" stroke="#111111" stroke-width="2.0"/>
<circle cx="2140.00" cy="320.00" r="4.0" fill="#111111"/>
<text x="2140.00" y="354.00" text-anchor="middle" font-family="Times New Roman, serif" font-size="12" fill="#111111">FLT</text>
<circle cx="2320.00" cy="240.00" r="30.00" fill="#ffffff" stroke="#111111" stroke-width="2.0"/>
<circle cx="2320.00" cy="210.00" r="4.0" fill="#111111"/>
<text x="2320.00" y="244.00" text-anchor="middle" font-family="Times New Roman, serif" font-size="12" fill="#111111">INT</text>
<circle cx="2320.00" cy="350.00" r="30.00" fill="#ffffff" stroke="#111111" stroke-width="2.0"/>
<circle cx="2320.00" cy="320.00" r="4.0" fill="#111111"/>
<text x="2320.00" y="354.00" text-anchor="middle" font-family="Times New Roman, serif" font-size="12" fill="#111111">NIL</text>
<circle cx="2140.00" cy="460.00" r="30.00" fill="#ffffff" stroke="#111111" stroke-width="2.0"/>
<circle cx="2140.00" cy="430.00" r="4.0" fill="#111111"/>
<circle cx="2114.02" cy="445.00" r="3.3" fill="#ffffff" stroke="#111111" stroke-width="1.4"/>
<circle cx="2165.98" cy="445.00" r="3.3" fill="#ffffff" stroke="#111111" stroke-width="1.4"/>
<text x="2140.00" y="464.00" text-anchor="middle" font-family="Times New Roman, serif" font-size="12" fill="#111111">CON</text>
<circle cx="1960.00" cy="460.00" r="30.00" fill="#ffffff" stroke="#111111" stroke-width="2.0"/>
<circle cx="1960.00" cy="430.00" r="4.0" fill="#111111"/>
<circle cx="1934.02" cy="445.00" r="3.3" fill="#ffffff" stroke="#111111" stroke-width="1.4"/>
<circle cx="1985.98" cy="445.00" r="3.3" fill="#ffffff" stroke="#111111" stroke-width="1.4"/>
<text x="1960.00" y="464.00" text-anchor="middle" font-family="Times New Roman, serif" font-size="12" fill="#111111">CON</text>
<circle cx="1780.00" cy="405.00" r="30.00" fill="#ffffff" stroke="#111111" stroke-width="2.0"/>
<circle cx="1780.00" cy="375.00" r="4.0" fill="#111111"/>
<circle cx="1754.02" cy="390.00" r="3.3" fill="#ffffff" stroke="#111111" stroke-width="1.4"/>
<circle cx="1805.98" cy="390.00" r="3.3" fill="#ffffff" stroke="#111111" stroke-width="1.4"/>
<text x="1780.00" y="409.00" text-anchor="middle" font-family="Times New Roman, serif" font-size="12" fill="#111111">CON</text>
<circle cx="2140.00" cy="570.00" r="30.00" fill="#ffffff" stroke="#111111" stroke-width="2.0"/>
<circle cx="2140.00" cy="540.00" r="4.0" fill="#111111"/>
<text x="2140.00" y="574.00" text-anchor="middle" font-family="Times New Roman, serif" font-size="12" fill="#111111">FLT</text>
<circle cx="2320.00" cy="460.00" r="30.00" fill="#ffffff" stroke="#111111" stroke-width="2.0"/>
<circle cx="2320.00" cy="430.00" r="4.0" fill="#111111"/>
<text x="2320.00" y="464.00" text-anchor="middle" font-family="Times New Roman, serif" font-size="12" fill="#111111">FLT</text>
<circle cx="2500.00" cy="350.00" r="30.00" fill="#ffffff" stroke="#111111" stroke-width="2.0"/>
<circle cx="2500.00" cy="320.00" r="4.0" fill="#111111"/>
<text x="2500.00" y="354.00" text-anchor="middle" font-family="Times New Roman, serif" font-size="12" fill="#111111">INT</text>
<circle cx="2500.00" cy="460.00" r="30.00" fill="#ffffff" stroke="#111111" stroke-width="2.0"/>
<circle cx="2500.00" cy="430.00" r="4.0" fill="#111111"/>
<text x="2500.00" y="464.00" text-anchor="middle" font-family="Times New Roman, serif" font-size="12" fill="#111111">NIL</text>
<circle cx="2320.00" cy="570.00" r="30.00" fill="#ffffff" stroke="#111111" stroke-width="2.0"/>
<circle cx="2320.00" cy="540.00" r="4.0" fill="#111111"/>
<circle cx="2294.02" cy="555.00" r="3.3" fill="#ffffff" stroke="#111111" stroke-width="1.4"/>
<circle cx="2345.98" cy="555.00" r="3.3" fill="#ffffff" stroke="#111111" stroke-width="1.4"/>
<text x="2320.00" y="574.00" text-anchor="middle" font-family="Times New Roman, serif" font-size="12" fill="#111111">CON</text>
<circle cx="2140.00" cy="680.00" r="30.00" fill="#ffffff" stroke="#111111" stroke-width="2.0"/>
<circle cx="2140.00" cy="650.00" r="4.0" fill="#111111"/>
<circle cx="2114.02" cy="665.00" r="3.3" fill="#ffffff" stroke="#111111" stroke-width="1.4"/>
<circle cx="2165.98" cy="665.00" r="3.3" fill="#ffffff" stroke="#111111" stroke-width="1.4"/>
<text x="2140.00" y="684.00" text-anchor="middle" font-family="Times New Roman, serif" font-size="12" fill="#111111">CON</text>
<circle cx="1960.00" cy="570.00" r="30.00" fill="#ffffff" stroke="#111111" stroke-width="2.0"/>
<circle cx="1960.00" cy="540.00" r="4.0" fill="#111111"/>
<circle cx="1934.02" cy="555.00" r="3.3" fill="#ffffff" stroke="#111111" stroke-width="1.4"/>
<circle cx="1985.98" cy="555.00" r="3.3" fill="#ffffff" stroke="#111111" stroke-width="1.4"/>
<text x="1960.00" y="574.00" text-anchor="middle" font-family="Times New Roman, serif" font-size="12" fill="#111111">CON</text>
<circle cx="1960.00" cy="680.00" r="30.00" fill="#ffffff" stroke="#111111" stroke-width="2.0"/>
<circle cx="1960.00" cy="650.00" r="4.0" fill="#111111"/>
<text x="1960.00" y="684.00" text-anchor="middle" font-family="Times New Roman, serif" font-size="12" fill="#111111">NIL</text>
<circle cx="1780.00" cy="515.00" r="30.00" fill="#ffffff" stroke="#111111" stroke-width="2.0"/>
<circle cx="1780.00" cy="485.00" r="4.0" fill="#111111"/>
<circle cx="1754.02" cy="500.00" r="3.3" fill="#ffffff" stroke="#111111" stroke-width="1.4"/>
<circle cx="1805.98" cy="500.00" r="3.3" fill="#ffffff" stroke="#111111" stroke-width="1.4"/>
<text x="1780.00" y="519.00" text-anchor="middle" font-family="Times New Roman, serif" font-size="12" fill="#111111">CON</text>
<circle cx="1600.00" cy="295.00" r="30.00" fill="#ffffff" stroke="#111111" stroke-width="2.0"/>
<circle cx="1600.00" cy="265.00" r="4.0" fill="#111111"/>
<circle cx="1574.02" cy="280.00" r="3.3" fill="#ffffff" stroke="#111111" stroke-width="1.4"/>
<circle cx="1625.98" cy="280.00" r="3.3" fill="#ffffff" stroke="#111111" stroke-width="1.4"/>
<text x="1600.00" y="299.00" text-anchor="middle" font-family="Times New Roman, serif" font-size="12" fill="#111111">CON</text>
<circle cx="1420.00" cy="295.00" r="30.00" fill="#ffffff" stroke="#111111" stroke-width="2.0"/>
<circle cx="1420.00" cy="265.00" r="4.0" fill="#111111"/>
<circle cx="1394.02" cy="280.00" r="3.3" fill="#ffffff" stroke="#111111" stroke-width="1.4"/>
<circle cx="1445.98" cy="280.00" r="3.3" fill="#ffffff" stroke="#111111" stroke-width="1.4"/>
<text x="1420.00" y="299.00" text-anchor="middle" font-family="Times New Roman, serif" font-size="12" fill="#111111">CON</text>
<circle cx="1420.00" cy="405.00" r="30.00" fill="#ffffff" stroke="#111111" stroke-width="2.0"/>
<circle cx="1420.00" cy="375.00" r="4.0" fill="#111111"/>
<circle cx="1420.00" cy="435.00" r="3.3" fill="#ffffff" stroke="#111111" stroke-width="1.4"/>
<text x="1420.00" y="409.00" text-anchor="middle" font-family="Times New Roman, serif" font-size="12" fill="#111111">VAR</text>
<circle cx="1600.00" cy="405.00" r="30.00" fill="#ffffff" stroke="#111111" stroke-width="2.0"/>
<circle cx="1600.00" cy="375.00" r="4.0" fill="#111111"/>
<circle cx="1574.02" cy="390.00" r="3.3" fill="#ffffff" stroke="#111111" stroke-width="1.4"/>
<circle cx="1625.98" cy="390.00" r="3.3" fill="#ffffff" stroke="#111111" stroke-width="1.4"/>
<text x="1600.00" y="409.00" text-anchor="middle" font-family="Times New Roman, serif" font-size="12" fill="#111111">APP</text>
<circle cx="1780.00" cy="625.00" r="30.00" fill="#ffffff" stroke="#111111" stroke-width="2.0"/>
<circle cx="1780.00" cy="595.00" r="4.0" fill="#111111"/>
<text x="1780.00" y="629.00" text-anchor="middle" font-family="Times New Roman, serif" font-size="12" fill="#111111">INT</text>
<circle cx="1600.00" cy="515.00" r="30.00" fill="#ffffff" stroke="#111111" stroke-width="2.0"/>
<circle cx="1600.00" cy="485.00" r="4.0" fill="#111111"/>
<circle cx="1600.00" cy="545.00" r="3.3" fill="#ffffff" stroke="#111111" stroke-width="1.4"/>
<text x="1600.00" y="519.00" text-anchor="middle" font-family="Times New Roman, serif" font-size="12" fill="#111111">VAR</text>
<circle cx="1420.00" cy="515.00" r="30.00" fill="#ffffff" stroke="#111111" stroke-width="2.0"/>
<circle cx="1420.00" cy="485.00" r="4.0" fill="#111111"/>
<circle cx="1394.02" cy="500.00" r="3.3" fill="#ffffff" stroke="#111111" stroke-width="1.4"/>
<circle cx="1445.98" cy="500.00" r="3.3" fill="#ffffff" stroke="#111111" stroke-width="1.4"/>
<text x="1420.00" y="519.00" text-anchor="middle" font-family="Times New Roman, serif" font-size="12" fill="#111111">APP</text>
<circle cx="1600.00" cy="625.00" r="30.00" fill="#ffffff" stroke="#111111" stroke-width="2.0"/>
<circle cx="1600.00" cy="595.00" r="4.0" fill="#111111"/>
<text x="1600.00" y="629.00" text-anchor="middle" font-family="Times New Roman, serif" font-size="12" fill="#111111">INT</text>
<circle cx="1240.00" cy="460.00" r="30.00" fill="#ffffff" stroke="#111111" stroke-width="2.0"/>
<circle cx="1240.00" cy="430.00" r="4.0" fill="#111111"/>
<circle cx="1240.00" cy="490.00" r="3.3" fill="#ffffff" stroke="#111111" stroke-width="1.4"/>
<text x="1240.00" y="464.00" text-anchor="middle" font-family="Times New Roman, serif" font-size="12" fill="#111111">VAR</text>
<circle cx="1060.00" cy="460.00" r="30.00" fill="#ffffff" stroke="#111111" stroke-width="2.0"/>
<circle cx="1060.00" cy="430.00" r="4.0" fill="#111111"/>
<circle cx="1034.02" cy="445.00" r="3.3" fill="#ffffff" stroke="#111111" stroke-width="1.4"/>
<circle cx="1085.98" cy="445.00" r="3.3" fill="#ffffff" stroke="#111111" stroke-width="1.4"/>
<text x="1060.00" y="464.00" text-anchor="middle" font-family="Times New Roman, serif" font-size="12" fill="#111111">APP</text>
<circle cx="880.00" cy="570.00" r="30.00" fill="#ffffff" stroke="#111111" stroke-width="2.0"/>
<circle cx="880.00" cy="540.00" r="4.0" fill="#111111"/>
<circle cx="880.00" cy="600.00" r="3.3" fill="#ffffff" stroke="#111111" stroke-width="1.4"/>
<text x="880.00" y="574.00" text-anchor="middle" font-family="Times New Roman, serif" font-size="12" fill="#111111">VAR</text>
<circle cx="700.00" cy="625.00" r="30.00" fill="#ffffff" stroke="#111111" stroke-width="2.0"/>
<circle cx="700.00" cy="595.00" r="4.0" fill="#111111"/>
<circle cx="674.02" cy="610.00" r="3.3" fill="#ffffff" stroke="#111111" stroke-width="1.4"/>
<circle cx="725.98" cy="610.00" r="3.3" fill="#ffffff" stroke="#111111" stroke-width="1.4"/>
<text x="700.00" y="629.00" text-anchor="middle" font-family="Times New Roman, serif" font-size="12" fill="#111111">LAM</text>
<circle cx="520.00" cy="515.00" r="30.00" fill="#ffffff" stroke="#111111" stroke-width="2.0"/>
<circle cx="520.00" cy="485.00" r="4.0" fill="#111111"/>
<circle cx="494.02" cy="500.00" r="3.3" fill="#ffffff" stroke="#111111" stroke-width="1.4"/>
<circle cx="545.98" cy="500.00" r="3.3" fill="#ffffff" stroke="#111111" stroke-width="1.4"/>
<text x="520.00" y="519.00" text-anchor="middle" font-family="Times New Roman, serif" font-size="12" fill="#111111">LAM</text>
<circle cx="340.00" cy="460.00" r="30.00" fill="#ffffff" stroke="#111111" stroke-width="2.0"/>
<circle cx="340.00" cy="430.00" r="4.0" fill="#111111"/>
<circle cx="314.02" cy="445.00" r="3.3" fill="#ffffff" stroke="#111111" stroke-width="1.4"/>
<circle cx="365.98" cy="445.00" r="3.3" fill="#ffffff" stroke="#111111" stroke-width="1.4"/>
<text x="340.00" y="464.00" text-anchor="middle" font-family="Times New Roman, serif" font-size="12" fill="#111111">LAM</text>
<circle cx="160.00" cy="405.00" r="30.00" fill="#f5f5f5" stroke="#111111" stroke-width="2.8"/>
<circle cx="160.00" cy="375.00" r="4.0" fill="#111111"/>
<circle cx="134.02" cy="390.00" r="3.3" fill="#ffffff" stroke="#111111" stroke-width="1.4"/>
<circle cx="185.98" cy="390.00" r="3.3" fill="#ffffff" stroke="#111111" stroke-width="1.4"/>
<text x="160.00" y="409.00" text-anchor="middle" font-family="Times New Roman, serif" font-size="12" fill="#111111">LAM</text>
<rect x="16" y="16" width="260" height="910" fill="#ffffff" stroke="#111111" stroke-width="1.2"/>
<text x="24" y="30" font-family="Times New Roman, serif" font-size="11" fill="#111111">AST Reachable Functions:</text>
<text x="24" y="44" font-family="Times New Roman, serif" font-size="10" fill="#111111">Function Legend (all defs)</text>
<text x="24" y="58" font-family="Times New Roman, serif" font-size="10" fill="#111111">entry: game_loop</text>
<text x="24" y="72" font-family="Times New Roman, serif" font-size="10" fill="#111111">count: 60</text>
<text x="24" y="86" font-family="Times New Roman, serif" font-size="10" fill="#111111">- deg_to_rad</text>
<text x="24" y="100" font-family="Times New Roman, serif" font-size="10" fill="#111111">- norm_angle</text>
<text x="24" y="114" font-family="Times New Roman, serif" font-size="10" fill="#111111">- map_get</text>
<text x="24" y="128" font-family="Times New Roman, serif" font-size="10" fill="#111111">- is_wall</text>
<text x="24" y="142" font-family="Times New Roman, serif" font-size="10" fill="#111111">- state_px</text>
<text x="24" y="156" font-family="Times New Roman, serif" font-size="10" fill="#111111">- state_py</text>
<text x="24" y="170" font-family="Times New Roman, serif" font-size="10" fill="#111111">- state_angle</text>
<text x="24" y="184" font-family="Times New Roman, serif" font-size="10" fill="#111111">- ray_march</text>
<text x="24" y="198" font-family="Times New Roman, serif" font-size="10" fill="#111111">- enemy_hit_point</text>
<text x="24" y="212" font-family="Times New Roman, serif" font-size="10" fill="#111111">- ray_march_kind</text>
<text x="24" y="226" font-family="Times New Roman, serif" font-size="10" fill="#111111">- render_col_data</text>
<text x="24" y="240" font-family="Times New Roman, serif" font-size="10" fill="#111111">- render_cols_data</text>
<text x="24" y="254" font-family="Times New Roman, serif" font-size="10" fill="#111111">- shade_of</text>
<text x="24" y="268" font-family="Times New Roman, serif" font-size="10" fill="#111111">- tex_size</text>
<text x="24" y="282" font-family="Times New Roman, serif" font-size="10" fill="#111111">- tex_brick</text>
<text x="24" y="296" font-family="Times New Roman, serif" font-size="10" fill="#111111">- tex_planks</text>
<text x="24" y="310" font-family="Times New Roman, serif" font-size="10" fill="#111111">- tex_metal</text>
<text x="24" y="324" font-family="Times New Roman, serif" font-size="10" fill="#111111">- enemy_sprite</text>
<text x="24" y="338" font-family="Times New Roman, serif" font-size="10" fill="#111111">- wall_tex_id</text>
<text x="24" y="352" font-family="Times New Roman, serif" font-size="10" fill="#111111">- wrap16</text>
<text x="24" y="366" font-family="Times New Roman, serif" font-size="10" fill="#111111">- frac16</text>
<text x="24" y="380" font-family="Times New Roman, serif" font-size="10" fill="#111111">- wall_u</text>
<text x="24" y="394" font-family="Times New Roman, serif" font-size="10" fill="#111111">- tex_pick</text>
<text x="24" y="408" font-family="Times New Roman, serif" font-size="10" fill="#111111">- tex_sample</text>
<text x="24" y="422" font-family="Times New Roman, serif" font-size="10" fill="#111111">- enemy_tex_sample</text>
<text x="24" y="436" font-family="Times New Roman, serif" font-size="10" fill="#111111">- cap</text>
<text x="24" y="450" font-family="Times New Roman, serif" font-size="10" fill="#111111">- frame_cell</text>
<text x="24" y="464" font-family="Times New Roman, serif" font-size="10" fill="#111111">- frame_row</text>
<text x="24" y="478" font-family="Times New Roman, serif" font-size="10" fill="#111111">- make_frame</text>
<text x="24" y="492" font-family="Times New Roman, serif" font-size="10" fill="#111111">- render_frame</text>
<text x="24" y="506" font-family="Times New Roman, serif" font-size="10" fill="#111111">- try_move</text>
<text x="24" y="520" font-family="Times New Roman, serif" font-size="10" fill="#111111">- move_forward</text>
<text x="24" y="534" font-family="Times New Roman, serif" font-size="10" fill="#111111">- move_back</text>
<text x="24" y="548" font-family="Times New Roman, serif" font-size="10" fill="#111111">- turn</text>
<text x="24" y="562" font-family="Times New Roman, serif" font-size="10" fill="#111111">- update</text>
<text x="24" y="576" font-family="Times New Roman, serif" font-size="10" fill="#111111">- key_action</text>
<text x="24" y="590" font-family="Times New Roman, serif" font-size="10" fill="#111111">- use_door</text>
<text x="24" y="604" font-family="Times New Roman, serif" font-size="10" fill="#111111">- enemy_x</text>
<text x="24" y="618" font-family="Times New Roman, serif" font-size="10" fill="#111111">- enemy_y</text>
<text x="24" y="632" font-family="Times New Roman, serif" font-size="10" fill="#111111">- enemy_alert</text>
<text x="24" y="646" font-family="Times New Roman, serif" font-size="10" fill="#111111">- dist</text>
<text x="24" y="660" font-family="Times New Roman, serif" font-size="10" fill="#111111">- enemy_step_toward</text>
<text x="24" y="674" font-family="Times New Roman, serif" font-size="10" fill="#111111">- update_enemy</text>
<text x="24" y="688" font-family="Times New Roman, serif" font-size="10" fill="#111111">- update_enemies</text>
<text x="24" y="702" font-family="Times New Roman, serif" font-size="10" fill="#111111">- is_wall_fat</text>
<text x="24" y="716" font-family="Times New Roman, serif" font-size="10" fill="#111111">- los_clear</text>
<text x="24" y="730" font-family="Times New Roman, serif" font-size="10" fill="#111111">- enemy_visible</text>
<text x="24" y="744" font-family="Times New Roman, serif" font-size="10" fill="#111111">- visible_enemies</text>
<text x="24" y="758" font-family="Times New Roman, serif" font-size="10" fill="#111111">- enemy_cell</text>
<text x="24" y="772" font-family="Times New Roman, serif" font-size="10" fill="#111111">- minimap_cell</text>
<text x="24" y="786" font-family="Times New Roman, serif" font-size="10" fill="#111111">- minimap_row</text>
<text x="24" y="800" font-family="Times New Roman, serif" font-size="10" fill="#111111">- build_minimap</text>
<text x="24" y="814" font-family="Times New Roman, serif" font-size="10" fill="#111111">- init_enemies</text>
<text x="24" y="828" font-family="Times New Roman, serif" font-size="10" fill="#111111">- render_packet</text>
<text x="24" y="842" font-family="Times New Roman, serif" font-size="10" fill="#111111">- sfx_step</text>
<text x="24" y="856" font-family="Times New Roman, serif" font-size="10" fill="#111111">- sfx_door</text>
<text x="24" y="870" font-family="Times New Roman, serif" font-size="10" fill="#111111">- sfx_enemy</text>
<text x="24" y="884" font-family="Times New Roman, serif" font-size="10" fill="#111111">- emit_sound</text>
<text x="24" y="898" font-family="Times New Roman, serif" font-size="10" fill="#111111">- game_loop_rec</text>
<text x="24" y="912" font-family="Times New Roman, serif" font-size="10" fill="#111111">- game_loop</text>
</svg>