<svg xmlns="http://www.w3.org/2000/svg" width="2700" height="810" viewBox="0 0 2700 810">
<rect x="0" y="0" width="100%" height="100%" fill="#ffffff"/>
<path d="M 340.00 430.00 Q 445.66 423.74 545.98 390.00" stroke="#111111" stroke-width="1.6" fill="none"/>
<path d="M 340.00 490.00 Q 270.61 428.26 185.98 390.00" stroke="#111111" stroke-width="1.6" fill="none"/>
<path d="M 520.00 485.00 Q 632.87 392.42 725.98 280.00" stroke="#111111" stroke-width="1.6" fill="none"/>
<path d="M 520.00 545.00 Q 454.28 431.72 365.98 335.00" stroke="#111111" stroke-width="1.6" fill="none"/>
<path d="M 700.00 595.00 Q 813.96 473.69 905.98 335.00" stroke="#111111" stroke-width="1.6" fill="none"/>
<path d="M 700.00 655.00 Q 635.94 462.18 545.98 280.00" stroke="#111111" stroke-width="1.6" fill="none"/>
<path d="M 880.00 540.00 Q 992.87 447.42 1085.98 335.00" stroke="#111111" stroke-width="1.6" fill="none"/>
<path d="M 880.00 600.00 Q 816.17 380.28 725.98 170.00" stroke="#111111" stroke-width="1.6" fill="none"/>
<path d="M 700.00 485.00 Q 617.30 418.05 520.00 375.00" stroke="#111111" stroke-width="1.6" fill="none"/>
<path d="M 494.02 390.00 Q 594.02 426.18 700.00 435.00" stroke="#111111" stroke-width="1.6" fill="none"/>
<path d="M 700.00 375.00 Q 714.00 320.00 700.00 265.00" stroke="#111111" stroke-width="1.6" fill="none"/>
<path d="M 674.02 280.00 Q 767.01 394.80 880.00 490.00" stroke="#111111" stroke-width="1.6" fill="none"/>
<path d="M 880.00 430.00 Q 894.00 375.00 880.00 320.00" stroke="#111111" stroke-width="1.6" fill="none"/>
<path d="M 854.02 335.00 Q 948.59 423.69 1060.00 490.00" stroke="#111111" stroke-width="1.6" fill="none"/>
<path d="M 1060.00 430.00 Q 1150.00 444.00 1240.00 430.00" stroke="#111111" stroke-width="1.6" fill="none"/>
<path d="M 1214.02 445.00 Q 1317.69 453.98 1420.00 435.00" stroke="#111111" stroke-width="1.6" fill="none"/>
<path d="M 1265.98 445.00 Q 1339.47 478.55 1420.00 485.00" stroke="#111111" stroke-width="1.6" fill="none"/>
<path d="M 1780.00 595.00 Q 1675.99 588.54 1574.02 610.00" stroke="#111111" stroke-width="1.6" fill="none"/>
<path d="M 1960.00 650.00 Q 1865.25 563.68 1754.02 500.00" stroke="#111111" stroke-width="1.6" fill="none"/>
<path d="M 2140.00 650.00 Q 2042.87 589.79 1934.02 555.00" stroke="#111111" stroke-width="1.6" fill="none"/>
<path d="M 2140.00 540.00 Q 2061.63 533.57 1985.98 555.00" stroke="#111111" stroke-width="1.6" fill="none"/>
<path d="M 1960.00 540.00 Q 1886.51 506.45 1805.98 500.00" stroke="#111111" stroke-width="1.6" fill="none"/>
<path d="M 1780.00 485.00 Q 1694.17 536.63 1625.98 610.00" stroke="#111111" stroke-width="1.6" fill="none"/>
<path d="M 1600.00 595.00 Q 1502.87 534.79 1394.02 500.00" stroke="#111111" stroke-width="1.6" fill="none"/>
<path d="M 1960.00 430.00 Q 1859.68 396.26 1754.02 390.00" stroke="#111111" stroke-width="1.6" fill="none"/>
<path d="M 2140.00 430.00 Q 2042.87 369.79 1934.02 335.00" stroke="#111111" stroke-width="1.6" fill="none"/>
<path d="M 2320.00 540.00 Q 2226.89 427.58 2114.02 335.00" stroke="#111111" stroke-width="1.6" fill="none"/>
<path d="M 2320.00 430.00 Q 2250.34 370.58 2165.98 335.00" stroke="#111111" stroke-width="1.6" fill="none"/>
<path d="M 2140.00 320.00 Q 2061.63 313.57 1985.98 335.00" stroke="#111111" stroke-width="1.6" fill="none"/>
<path d="M 1960.00 320.00 Q 1877.20 342.25 1805.98 390.00" stroke="#111111" stroke-width="1.6" fill="none"/>
<path d="M 1780.00 375.00 Q 1669.75 425.53 1574.02 500.00" stroke="#111111" stroke-width="1.6" fill="none"/>
<path d="M 2140.00 210.00 Q 2035.99 203.54 1934.02 225.00" stroke="#111111" stroke-width="1.6" fill="none"/>
<path d="M 2320.00 320.00 Q 2226.89 207.58 2114.02 115.00" stroke="#111111" stroke-width="1.6" fill="none"/>
<path d="M 2500.00 430.00 Q 2406.89 317.58 2294.02 225.00" stroke="#111111" stroke-width="1.6" fill="none"/>
<path d="M 2500.00 320.00 Q 2430.34 260.58 2345.98 225.00" stroke="#111111" stroke-width="1.6" fill="none"/>
<path d="M 2320.00 210.00 Q 2250.34 150.58 2165.98 115.00" stroke="#111111" stroke-width="1.6" fill="none"/>
<path d="M 2140.00 100.00 Q 2054.17 151.63 1985.98 225.00" stroke="#111111" stroke-width="1.6" fill="none"/>
<path d="M 1960.00 210.00 Q 1852.50 231.74 1754.02 280.00" stroke="#111111" stroke-width="1.6" fill="none"/>
<path d="M 1960.00 100.00 Q 1872.35 180.90 1805.98 280.00" stroke="#111111" stroke-width="1.6" fill="none"/>
<path d="M 1780.00 265.00 Q 1691.28 374.83 1625.98 500.00" stroke="#111111" stroke-width="1.6" fill="none"/>
<path d="M 1600.00 485.00 Q 1521.63 478.57 1445.98 500.00" stroke="#111111" stroke-width="1.6" fill="none"/>
<path d="M 1420.00 375.00 Q 1510.00 389.00 1600.00 375.00" stroke="#111111" stroke-width="1.6" fill="none"/>
<path d="M 1574.02 390.00 Q 1600.01 362.70 1600.00 325.00" stroke="#111111" stroke-width="1.6" fill="none"/>
<path d="M 1625.98 390.00 Q 1714.70 280.17 1780.00 155.00" stroke="#111111" stroke-width="1.6" fill="none"/>
<path d="M 1600.00 265.00 Q 1510.00 251.00 1420.00 265.00" stroke="#111111" stroke-width="1.6" fill="none"/>
<path d="M 1394.02 280.00 Q 1309.39 318.26 1240.00 380.00" stroke="#111111" stroke-width="1.6" fill="none"/>
<path d="M 1445.98 280.00 Q 1531.81 228.37 1600.00 155.00" stroke="#111111" stroke-width="1.6" fill="none"/>
<path d="M 1240.00 320.00 Q 1150.00 306.00 1060.00 320.00" stroke="#111111" stroke-width="1.6" fill="none"/>
<path d="M 1034.02 335.00 Q 962.45 289.60 880.00 270.00" stroke="#111111" stroke-width="1.6" fill="none"/>
<path d="M 880.00 210.00 Q 779.68 176.26 674.02 170.00" stroke="#111111" stroke-width="1.6" fill="none"/>
<path d="M 700.00 155.00 Q 589.75 205.53 494.02 280.00" stroke="#111111" stroke-width="1.6" fill="none"/>
<path d="M 520.00 265.00 Q 412.50 286.74 314.02 335.00" stroke="#111111" stroke-width="1.6" fill="none"/>
<path d="M 340.00 320.00 Q 232.50 341.74 134.02 390.00" stroke="#111111" stroke-width="1.6" fill="none"/>
<circle cx="340.00" cy="460.00" r="30.00" fill="#ffffff" stroke="#111111" stroke-width="2.0"/>
<circle cx="340.00" cy="430.00" r="4.0" fill="#111111"/>
<circle cx="340.00" cy="490.00" r="3.3" fill="#ffffff" stroke="#111111" stroke-width="1.4"/>
<text x="340.00" y="464.00" text-anchor="middle" font-family="Times New Roman, serif" font-size="12" fill="#111111">VAR</text>
<circle cx="520.00" cy="515.00" r="30.00" fill="#ffffff" stroke="#111111" stroke-width="2.0"/>
<circle cx="520.00" cy="485.00" r="4.0" fill="#111111"/>
<circle cx="520.00" cy="545.00" r="3.3" fill="#ffffff" stroke="#111111" stroke-width="1.4"/>
<text x="520.00" y="519.00" text-anchor="middle" font-family="Times New Roman, serif" font-size="12" fill="#111111">VAR</text>
<circle cx="700.00" cy="625.00" r="30.00" fill="#ffffff" stroke="#111111" stroke-width="2.0"/>
<circle cx="700.00" cy="595.00" r="4.0" fill="#111111"/>
<circle cx="700.00" cy="655.00" r="3.3" fill="#ffffff" stroke="#111111" stroke-width="1.4"/>
<text x="700.00" y="629.00" text-anchor="middle" font-family="Times New Roman, serif" font-size="12" fill="#111111">VAR</text>
<circle cx="880.00" cy="570.00" r="30.00" fill="#ffffff" stroke="#111111" stroke-width="2.0"/>
<circle cx="880.00" cy="540.00" r="4.0" fill="#111111"/>
<circle cx="880.00" cy="600.00" r="3.3" fill="#ffffff" stroke="#111111" stroke-width="1.4"/>
<text x="880.00" y="574.00" text-anchor="middle" font-family="Times New Roman, serif" font-size="12" fill="#111111">VAR</text>
<circle cx="700.00" cy="515.00" r="30.00" fill="#ffffff" stroke="#111111" stroke-width="2.0"/>
<circle cx="700.00" cy="485.00" r="4.0" fill="#111111"/>
<text x="700.00" y="513.00" text-anchor="middle" font-family="Times New Roman, serif" font-size="11" fill="#111111">FREF</text>
<text x="700.00" y="527.00" text-anchor="middle" font-family="Times New Roman, serif" font-size="9" fill="#111111">game_loop_rec</text>
<circle cx="520.00" cy="405.00" r="30.00" fill="#ffffff" stroke="#111111" stroke-width="2.0"/>
<circle cx="520.00" cy="375.00" r="4.0" fill="#111111"/>
<circle cx="494.02" cy="390.00" r="3.3" fill="#ffffff" stroke="#111111" stroke-width="1.4"/>
<circle cx="545.98" cy="390.00" r="3.3" fill="#ffffff" stroke="#111111" stroke-width="1.4"/>
<text x="520.00" y="409.00" text-anchor="middle" font-family="Times New Roman, serif" font-size="12" fill="#111111">APP</text>
<circle cx="700.00" cy="405.00" r="30.00" fill="#ffffff" stroke="#111111" stroke-width="2.0"/>
<circle cx="700.00" cy="375.00" r="4.0" fill="#111111"/>
<circle cx="700.00" cy="435.00" r="3.3" fill="#ffffff" stroke="#111111" stroke-width="1.4"/>
<text x="700.00" y="409.00" text-anchor="middle" font-family="Times New Roman, serif" font-size="12" fill="#111111">VAR</text>
<circle cx="700.00" cy="295.00" r="30.00" fill="#ffffff" stroke="#111111" stroke-width="2.0"/>
<circle cx="700.00" cy="265.00" r="4.0" fill="#111111"/>
<circle cx="674.02" cy="280.00" r="3.3" fill="#ffffff" stroke="#111111" stroke-width="1.4"/>
<circle cx="725.98" cy="280.00" r="3.3" fill="#ffffff" stroke="#111111" stroke-width="1.4"/>
<text x="700.00" y="299.00" text-anchor="middle" font-family="Times New Roman, serif" font-size="12" fill="#111111">APP</text>
<circle cx="880.00" cy="460.00" r="30.00" fill="#ffffff" stroke="#111111" stroke-width="2.0"/>
<circle cx="880.00" cy="430.00" r="4.0" fill="#111111"/>
<circle cx="880.00" cy="490.00" r="3.3" fill="#ffffff" stroke="#111111" stroke-width="1.4"/>
<text x="880.00" y="464.00" text-anchor="middle" font-family="Times New Roman, serif" font-size="12" fill="#111111">VAR</text>
<circle cx="880.00" cy="350.00" r="30.00" fill="#ffffff" stroke="#111111" stroke-width="2.0"/>
<circle cx="880.00" cy="320.00" r="4.0" fill="#111111"/>
<circle cx="854.02" cy="335.00" r="3.3" fill="#ffffff" stroke="#111111" stroke-width="1.4"/>
<circle cx="905.98" cy="335.00" r="3.3" fill="#ffffff" stroke="#111111" stroke-width="1.4"/>
<text x="880.00" y="354.00" text-anchor="middle" font-family="Times New Roman, serif" font-size="12" fill="#111111">APP</text>
<circle cx="1060.00" cy="460.00" r="30.00" fill="#ffffff" stroke="#111111" stroke-width="2.0"/>
<circle cx="1060.00" cy="430.00" r="4.0" fill="#111111"/>
<circle cx="1060.00" cy="490.00" r="3.3" fill="#ffffff" stroke="#111111" stroke-width="1.4"/>
<text x="1060.00" y="464.00" text-anchor="middle" font-family="Times New Roman, serif" font-size="12" fill="#111111">VAR</text>
<circle cx="1240.00" cy="460.00" r="30.00" fill="#ffffff" stroke="#111111" stroke-width="2.0"/>
<circle cx="1240.00" cy="430.00" r="4.0" fill="#111111"/>
<circle cx="1214.02" cy="445.00" r="3.3" fill="#ffffff" stroke="#111111" stroke-width="1.4"/>
<circle cx="1265.98" cy="445.00" r="3.3" fill="#ffffff" stroke="#111111" stroke-width="1.4"/>
<text x="1240.00" y="464.00" text-anchor="middle" font-family="Times New Roman, serif" font-size="12" fill="#111111">APP</text>
<circle cx="1780.00" cy="625.00" r="30.00" fill="#ffffff" stroke="#111111" stroke-width="2.0"/>
<circle cx="1780.00" cy="595.00" r="4.0" fill="#111111"/>
<text x="1780.00" y="629.00" text-anchor="middle" font-family="Times New Roman, serif" font-size="12" fill="#111111">FLT</text>
<circle cx="1960.00" cy="680.00" r="30.00" fill="#ffffff" stroke="#111111" stroke-width="2.0"/>
<circle cx="1960.00" cy="650.00" r="4.0" fill="#111111"/>
<text x="1960.00" y="684.00" text-anchor="middle" font-family="Times New Roman, serif" font-size="12" fill="#111111">FLT</text>
<circle cx="2140.00" cy="680.00" r="30.00" fill="#ffffff" stroke="#111111" stroke-width="2.0"/>
<circle cx="2140.00" cy="650.00" r="4.0" fill="#111111"/>
<text x="2140.00" y="684.00" text-anchor="middle" font-family="Times New Roman, serif" font-size="12" fill="#111111">INT</text>
<circle cx="2140.00" cy="570.00" r="30.00" fill="#ffffff" stroke="#111111" stroke-width="2.0"/>
<circle cx="2140.00" cy="540.00" r="4.0" fill="#111111"/>
<text x="2140.00" y="574.00" text-anchor="middle" font-family="Times New Roman, serif" font-size="12" fill="#111111">NIL</text>
<circle cx="1960.00" cy="570.00" r="30.00" fill="#ffffff" stroke="#111111" stroke-width="2.0"/>
<circle cx="1960.00" cy="540.00" r="4.0" fill="#111111"/>
<circle cx="1934.02" cy="555.00" r="3.3" fill="#ffffff" stroke="#111111" stroke-width="1.4"/>
<circle cx="1985.98" cy="555.00" r="3.3" fill="#ffffff" stroke="#111111" stroke-width="1.4"/>
<text x="1960.00" y="574.00" text-anchor="middle" font-family="Times New Roman, serif" font-size="12" fill="#111111">CON</text>
<circle cx="1780.00" cy="515.00" r="30.00" fill="#ffffff" stroke="#111111" stroke-width="2.0"/>
<circle cx="1780.00" cy="485.00" r="4.0" fill="#111111"/>
<circle cx="1754.02" cy="500.00" r="3.3" fill="#ffffff" stroke="#111111" stroke-width="1.4"/>
<circle cx="1805.98" cy="500.00" r="3.3" fill="#ffffff" stroke="#111111" stroke-width="1.4"/>
<text x="1780.00" y="519.00" text-anchor="middle" font-family="Times New Roman, serif" font-size="12" fill="#111111">CON</text>
<circle cx="1600.00" cy="625.00" r="30.00" fill="#ffffff" stroke="#111111" stroke-width="2.0"/>
<circle cx="1600.00" cy="595.00" r="4.0" fill="#111111"/>
<circle cx="1574.02" cy="610.00" r="3.3" fill="#ffffff" stroke="#111111" stroke-width="1.4"/>
<circle cx="1625.98" cy="610.00" r="3.3" fill="#ffffff" stroke="#111111" stroke-width="1.4"/>
<text x="1600.00" y="629.00" text-anchor="middle" font-family="Times New Roman, serif" font-size="12" fill="#111111">CON</text>
<circle cx="1960.00" cy="460.00" r="30.00" fill="#ffffff" stroke="#111111" stroke-width="2.0"/>
<circle cx="1960.00" cy="430.00" r="4.0" fill="#111111"/>
<text x="1960.00" y="464.00" text-anchor="middle" font-family="Times New Roman, serif" font-size="12" fill="#111111">FLT</text>
<circle cx="2140.00" cy="460.00" r="30.00" fill="#ffffff" stroke="#111111" stroke-width="2.0"/>
<circle cx="2140.00" cy="430.00" r="4.0" fill="#111111"/>
<text x="2140.00" y="464.00" text-anchor="middle" font-family="Times New Roman, serif" font-size="12" fill="#111111">FLT</text>
<circle cx="2320.00" cy="570.00" r="30.00" fill="#ffffff" stroke="#111111" stroke-width="2.0"/>
<circle cx="2320.00" cy="540.00" r="4.0" fill="#111111"/>
<text x="2320.00" y="574.00" text-anchor="middle" font-family="Times New Roman, serif" font-size="12" fill="#111111">INT</text>
<circle cx="2320.00" cy="460.00" r="30.00" fill="#ffffff" stroke="#111111" stroke-width="2.0"/>
<circle cx="2320.00" cy="430.00" r="4.0" fill="#111111"/>
<text x="2320.00" y="464.00" text-anchor="middle" font-family="Times New Roman, serif" font-size="12" fill="#111111">NIL</text>
<circle cx="2140.00" cy="350.00" r="30.00" fill="#ffffff" stroke="#111111" stroke-width="2.0"/>
<circle cx="2140.00" cy="320.00" r="4.0" fill="#111111"/>
<circle cx="2114.02" cy="335.00" r="3.3" fill="#ffffff" stroke="#111111" stroke-width="1.4"/>
<circle cx="2165.98" cy="335.00" r="3.3" fill="#ffffff" stroke="#111111" stroke-width="1.4"/>
<text x="2140.00" y="354.00" text-anchor="middle" font-family="Times New Roman, serif" font-size="12" fill="#111111">CON</text>
<circle cx="1960.00" cy="350.00" r="30.00" fill="#ffffff" stroke="#111111" stroke-width="2.0"/>
<circle cx="1960.00" cy="320.00" r="4.0" fill="#111111"/>
<circle cx="1934.02" cy="335.00" r="3.3" fill="#ffffff" stroke="#111111" stroke-width="1.4"/>
<circle cx="1985.98" cy="335.00" r="3.3" fill="#ffffff" stroke="#111111" stroke-width="1.4"/>
<text x="1960.00" y="354.00" text-anchor="middle" font-family="Times New Roman, serif" font-size="12" fill="#111111">CON</text>
<circle cx="1780.00" cy="405.00" r="30.00" fill="#ffffff" stroke="#111111" stroke-width="2.0"/>
<circle cx="1780.00" cy="375.00" r="4.0" fill="#111111"/>
<circle cx="1754.02" cy="390.00" r="3.3" fill="#ffffff" stroke="#111111" stroke-width="1.4"/>
<circle cx="1805.98" cy="390.00" r="3.3" fill="#ffffff" stroke="#111111" stroke-width="1.4"/>
<text x="1780.00" y="409.00" text-anchor="middle" font-family="Times New Roman, serif" font-size="12" fill="#111111">CON</text>
<circle cx="2140.00" cy="240.00" r="30.00" fill="#ffffff" stroke="#111111" stroke-width="2.0"/>
<circle cx="2140.00" cy="210.00" r="4.0" fill="#111111"/>
<text x="2140.00" y="244.00" text-anchor="middle" font-family="Times New Roman, serif" font-size="12" fill="#111111">FLT</text>
<circle cx="2320.00" cy="350.00" r="30.00" fill="#ffffff" stroke="#111111" stroke-width="2.0"/>
<circle cx="2320.00" cy="320.00" r="4.0" fill="#111111"/>
<text x="2320.00" y="354.00" text-anchor="middle" font-family="Times New Roman, serif" font-size="12" fill="#111111">FLT</text>
<circle cx="2500.00" cy="460.00" r="30.00" fill="#ffffff" stroke="#111111" stroke-width="2.0"/>
<circle cx="2500.00" cy="430.00" r="4.0" fill="#111111"/>
<text x="2500.00" y="464.00" text-anchor="middle" font-family="Times New Roman, serif" font-size="12" fill="#111111">INT</text>
<circle cx="2500.00" cy="350.00" r="30.00" fill="#ffffff" stroke="#111111" stroke-width="2.0"/>
<circle cx="2500.00" cy="320.00" r="4.0" fill="#111111"/>
<text x="2500.00" y="354.00" text-anchor="middle" font-family="Times New Roman, serif" font-size="12" fill="#111111">NIL</text>
<circle cx="2320.00" cy="240.00" r="30.00" fill="#ffffff" stroke="#111111" stroke-width="2.0"/>
<circle cx="2320.00" cy="210.00" r="4.0" fill="#111111"/>
<circle cx="2294.02" cy="225.00" r="3.3" fill="#ffffff" stroke="#111111" stroke-width="1.4"/>
<circle cx="2345.98" cy="225.00" r="3.3" fill="#ffffff" stroke="#111111" stroke-width="1.4"/>
<text x="2320.00" y="244.00" text-anchor="middle" font-family="Times New Roman, serif" font-size="12" fill="#111111">CON</text>
<circle cx="2140.00" cy="130.00" r="30.00" fill="#ffffff" stroke="#111111" stroke-width="2.0"/>
<circle cx="2140.00" cy="100.00" r="4.0" fill="#111111"/>
<circle cx="2114.02" cy="115.00" r="3.3" fill="#ffffff" stroke="#111111" stroke-width="1.4"/>
<circle cx="2165.98" cy="115.00" r="3.3" fill="#ffffff" stroke="#111111" stroke-width="1.4"/>
<text x="2140.00" y="134.00" text-anchor="middle" font-family="Times New Roman, serif" font-size="12" fill="#111111">CON</text>
<circle cx="1960.00" cy="240.00" r="30.00" fill="#ffffff" stroke="#111111" stroke-width="2.0"/>
<circle cx="1960.00" cy="210.00" r="4.0" fill="#111111"/>
<circle cx="1934.02" cy="225.00" r="3.3" fill="#ffffff" stroke="#111111" stroke-width="1.4"/>
<circle cx="1985.98" cy="225.00" r="3.3" fill="#ffffff" stroke="#111111" stroke-width="1.4"/>
<text x="1960.00" y="244.00" text-anchor="middle" font-family="Times New Roman, serif" font-size="12" fill="#111111">CON</text>
<circle cx="1960.00" cy="130.00" r="30.00" fill="#ffffff" stroke="#111111" stroke-width="2.0"/>
<circle cx="1960.00" cy="100.00" r="4.0" fill="#111111"/>
<text x="1960.00" y="134.00" text-anchor="middle" font-family="Times New Roman, serif" font-size="12" fill="#111111">NIL</text>
<circle cx="1780.00" cy="295.00" r="30.00" fill="#ffffff" stroke="#111111" stroke-width="2.0"/>
<circle cx="1780.00" cy="265.00" r="4.0" fill="#111111"/>
<circle cx="1754.02" cy="280.00" r="3.3" fill="#ffffff" stroke="#111111" stroke-width="1.4"/>
<circle cx="1805.98" cy="280.00" r="3.3" fill="#ffffff" stroke="#111111" stroke-width="1.4"/>
<text x="1780.00" y="299.00" text-anchor="middle" font-family="Times New Roman, serif" font-size="12" fill="#111111">CON</text>
<circle cx="1600.00" cy="515.00" r="30.00" fill="#ffffff" stroke="#111111" stroke-width="2.0"/>
<circle cx="1600.00" cy="485.00" r="4.0" fill="#111111"/>
<circle cx="1574.02" cy="500.00" r="3.3" fill="#ffffff" stroke="#111111" stroke-width="1.4"/>
<circle cx="1625.98" cy="500.00" r="3.3" fill="#ffffff" stroke="#111111" stroke-width="1.4"/>
<text x="1600.00" y="519.00" text-anchor="middle" font-family="Times New Roman, serif" font-size="12" fill="#111111">CON</text>
<circle cx="1420.00" cy="515.00" r="30.00" fill="#ffffff" stroke="#111111" stroke-width="2.0"/>
<circle cx="1420.00" cy="485.00" r="4.0" fill="#111111"/>
<circle cx="1394.02" cy="500.00" r="3.3" fill="#ffffff" stroke="#111111" stroke-width="1.4"/>
<circle cx="1445.98" cy="500.00" r="3.3" fill="#ffffff" stroke="#111111" stroke-width="1.4"/>
<text x="1420.00" y="519.00" text-anchor="middle" font-family="Times New Roman, serif" font-size="12" fill="#111111">CON</text>
<circle cx="1420.00" cy="405.00" r="30.00" fill="#ffffff" stroke="#111111" stroke-width="2.0"/>
<circle cx="1420.00" cy="375.00" r="4.0" fill="#111111"/>
<circle cx="1420.00" cy="435.00" r="3.3" fill="#ffffff" stroke="#111111" stroke-width="1.4"/>
<text x="1420.00" y="409.00" text-anchor="middle" font-family="Times New Roman, serif" font-size="12" fill="#111111">VAR</text>
<circle cx="1600.00" cy="405.00" r="30.00" fill="#ffffff" stroke="#111111" stroke-width="2.0"/>
<circle cx="1600.00" cy="375.00" r="4.0" fill="#111111"/>
<circle cx="1574.02" cy="390.00" r="3.3" fill="#ffffff" stroke="#111111" stroke-width="1.4"/>
<circle cx="1625.98" cy="390.00" r="3.3" fill="#ffffff" stroke="#111111" stroke-width="1.4"/>
<text x="1600.00" y="409.00" text-anchor="middle" font-family="Times New Roman, serif" font-size="12" fill="#111111">APP</text>
<circle cx="1780.00" cy="185.00" r="30.00" fill="#ffffff" stroke="#111111" stroke-width="2.0"/>
<circle cx="1780.00" cy="155.00" r="4.0" fill="#111111"/>
<text x="1780.00" y="189.00" text-anchor="middle" font-family="Times New Roman, serif" font-size="12" fill="#111111">INT</text>
<circle cx="1600.00" cy="295.00" r="30.00" fill="#ffffff" stroke="#111111" stroke-width="2.0"/>
<circle cx="1600.00" cy="265.00" r="4.0" fill="#111111"/>
<circle cx="1600.00" cy="325.00" r="3.3" fill="#ffffff" stroke="#111111" stroke-width="1.4"/>
<text x="1600.00" y="299.00" text-anchor="middle" font-family="Times New Roman, serif" font-size="12" fill="#111111">VAR</text>
<circle cx="1420.00" cy="295.00" r="30.00" fill="#ffffff" stroke="#111111" stroke-width="2.0"/>
<circle cx="1420.00" cy="265.00" r="4.0" fill="#111111"/>
<circle cx="1394.02" cy="280.00" r="3.3" fill="#ffffff" stroke="#111111" stroke-width="1.4"/>
<circle cx="1445.98" cy="280.00" r="3.3" fill="#ffffff" stroke="#111111" stroke-width="1.4"/>
<text x="1420.00" y="299.00" text-anchor="middle" font-family="Times New Roman, serif" font-size="12" fill="#111111">APP</text>
<circle cx="1600.00" cy="185.00" r="30.00" fill="#ffffff" stroke="#111111" stroke-width="2.0"/>
<circle cx="1600.00" cy="155.00" r="4.0" fill="#111111"/>
<text x="1600.00" y="189.00" text-anchor="middle" font-family="Times New Roman, serif" font-size="12" fill="#111111">INT</text>
<circle cx="1240.00" cy="350.00" r="30.00" fill="#ffffff" stroke="#111111" stroke-width="2.0"/>
<circle cx="1240.00" cy="320.00" r="4.0" fill="#111111"/>
<circle cx="1240.00" cy="380.00" r="3.3" fill="#ffffff" stroke="#111111" stroke-width="1.4"/>
<text x="1240.00" y="354.00" text-anchor="middle" font-family="Times New Roman, serif" font-size="12" fill="#111111">VAR</text>
<circle cx="1060.00" cy="350.00" r="30.00" fill="#ffffff" stroke="#111111" stroke-width="2.0"/>
<circle cx="1060.00" cy="320.00" r="4.0" fill="#111111"/>
<circle cx="1034.02" cy="335.00" r="3.3" fill="#ffffff" stroke="#111111" stroke-width="1.4"/>
<circle cx="1085.98" cy="335.00" r="3.3" fill="#ffffff" stroke="#111111" stroke-width="1.4"/>
<text x="1060.00" y="354.00" text-anchor="middle" font-family="Times New Roman, serif" font-size="12" fill="#111111">APP</text>
<circle cx="880.00" cy="240.00" r="30.00" fill="#ffffff" stroke="#111111" stroke-width="2.0"/>
<circle cx="880.00" cy="210.00" r="4.0" fill="#111111"/>
<circle cx="880.00" cy="270.00" r="3.3" fill="#ffffff" stroke="#111111" stroke-width="1.4"/>
<text x="880.00" y="244.00" text-anchor="middle" font-family="Times New Roman, serif" font-size="12" fill="#111111">VAR</text>
<circle cx="700.00" cy="185.00" r="30.00" fill="#ffffff" stroke="#111111" stroke-width="2.0"/>
<circle cx="700.00" cy="155.00" r="4.0" fill="#111111"/>
<circle cx="674.02" cy="170.00" r="3.3" fill="#ffffff" stroke="#111111" stroke-width="1.4"/>
<circle cx="725.98" cy="170.00" r="3.3" fill="#ffffff" stroke="#111111" stroke-width="1.4"/>
<text x="700.00" y="189.00" text-anchor="middle" font-family="Times New Roman, serif" font-size="12" fill="#111111">LAM</text>
<circle cx="520.00" cy="295.00" r="30.00" fill="#ffffff" stroke="#111111" stroke-width="2.0"/>
<circle cx="520.00" cy="265.00" r="4.0" fill="#111111"/>
<circle cx="494.02" cy="280.00" r="3.3" fill="#ffffff" stroke="#111111" stroke-width="1.4"/>
<circle cx="545.98" cy="280.00" r="3.3" fill="#ffffff" stroke="#111111" stroke-width="1.4"/>
<text x="520.00" y="299.00" text-anchor="middle" font-family="Times New Roman, serif" font-size="12" fill="#111111">LAM</text>
<circle cx="340.00" cy="350.00" r="30.00" fill="#ffffff" stroke="#111111" stroke-width="2.0"/>
<circle cx="340.00" cy="320.00" r="4.0" fill="#111111"/>
<circle cx="314.02" cy="335.00" r="3.3" fill="#ffffff" stroke="#111111" stroke-width="1.4"/>
<circle cx="365.98" cy="335.00" r="3.3" fill="#ffffff" stroke="#111111" stroke-width="1.4"/>
<text x="340.00" y="354.00" text-anchor="middle" font-family="Times New Roman, serif" font-size="12" fill="#111111">LAM</text>
<circle cx="160.00" cy="405.00" r="30.00" fill="#f5f5f5" stroke="#111111" stroke-width="2.8"/>
<circle cx="160.00" cy="375.00" r="4.0" fill="#111111"/>
<circle cx="134.02" cy="390.00" r="3.3" fill="#ffffff" stroke="#111111" stroke-width="1.4"/>
<circle cx="185.98" cy="390.00" r="3.3" fill="#ffffff" stroke="#111111" stroke-width="1.4"/>
<text x="160.00" y="409.00" text-anchor="middle" font-family="Times New Roman, serif" font-size="12" fill="#111111">LAM</text>
<rect x="16" y="16" width="260" height="896" fill="#ffffff" stroke="#111111" stroke-width="1.2"/>
<text x="24" y="30" font-family="Times New Roman, serif" font-size="11" fill="#111111">Function Legend (all defs)</text>
<text x="24" y="44" font-family="Times New Roman, serif" font-size="10" fill="#111111">entry: game_loop</text>
<text x="24" y="58" font-family="Times New Roman, serif" font-size="10" fill="#111111">count: 60</text>
<text x="24" y="72" font-family="Times New Roman, serif" font-size="10" fill="#111111">- deg_to_rad</text>
<text x="24" y="86" font-family="Times New Roman, serif" font-size="10" fill="#111111">- norm_angle</text>
<text x="24" y="100" font-family="Times New Roman, serif" font-size="10" fill="#111111">- map_get</text>
<text x="24" y="114" font-family="Times New Roman, serif" font-size="10" fill="#111111">- is_wall</text>
<text x="24" y="128" font-family="Times New Roman, serif" font-size="10" fill="#111111">- state_px</text>
<text x="24" y="142" font-family="Times New Roman, serif" font-size="10" fill="#111111">- state_py</text>
<text x="24" y="156" font-family="Times New Roman, serif" font-size="10" fill="#111111">- state_angle</text>
<text x="24" y="170" font-family="Times New Roman, serif" font-size="10" fill="#111111">- ray_march</text>
<text x="24" y="184" font-family="Times New Roman, serif" font-size="10" fill="#111111">- enemy_hit_point</text>
<text x="24" y="198" font-family="Times New Roman, serif" font-size="10" fill="#111111">- ray_march_kind</text>
<text x="24" y="212" font-family="Times New Roman, serif" font-size="10" fill="#111111">- render_col_data</text>
<text x="24" y="226" font-family="Times New Roman, serif" font-size="10" fill="#111111">- render_cols_data</text>
<text x="24" y="240" font-family="Times New Roman, serif" font-size="10" fill="#111111">- shade_of</text>
<text x="24" y="254" font-family="Times New Roman, serif" font-size="10" fill="#111111">- tex_size</text>
<text x="24" y="268" font-family="Times New Roman, serif" font-size="10" fill="#111111">- tex_brick</text>
<text x="24" y="282" font-family="Times New Roman, serif" font-size="10" fill="#111111">- tex_planks</text>
<text x="24" y="296" font-family="Times New Roman, serif" font-size="10" fill="#111111">- tex_metal</text>
<text x="24" y="310" font-family="Times New Roman, serif" font-size="10" fill="#111111">- enemy_sprite</text>
<text x="24" y="324" font-family="Times New Roman, serif" font-size="10" fill="#111111">- wall_tex_id</text>
<text x="24" y="338" font-family="Times New Roman, serif" font-size="10" fill="#111111">- wrap16</text>
<text x="24" y="352" font-family="Times New Roman, serif" font-size="10" fill="#111111">- frac16</text>
<text x="24" y="366" font-family="Times New Roman, serif" font-size="10" fill="#111111">- wall_u</text>
<text x="24" y="380" font-family="Times New Roman, serif" font-size="10" fill="#111111">- tex_pick</text>
<text x="24" y="394" font-family="Times New Roman, serif" font-size="10" fill="#111111">- tex_sample</text>
<text x="24" y="408" font-family="Times New Roman, serif" font-size="10" fill="#111111">- enemy_tex_sample</text>
<text x="24" y="422" font-family="Times New Roman, serif" font-size="10" fill="#111111">- cap</text>
<text x="24" y="436" font-family="Times New Roman, serif" font-size="10" fill="#111111">- frame_cell</text>
<text x="24" y="450" font-family="Times New Roman, serif" font-size="10" fill="#111111">- frame_row</text>
<text x="24" y="464" font-family="Times New Roman, serif" font-size="10" fill="#111111">- make_frame</text>
<text x="24" y="478" font-family="Times New Roman, serif" font-size="10" fill="#111111">- render_frame</text>
<text x="24" y="492" font-family="Times New Roman, serif" font-size="10" fill="#111111">- try_move</text>
<text x="24" y="506" font-family="Times New Roman, serif" font-size="10" fill="#111111">- move_forward</text>
<text x="24" y="520" font-family="Times New Roman, serif" font-size="10" fill="#111111">- move_back</text>
<text x="24" y="534" font-family="Times New Roman, serif" font-size="10" fill="#111111">- turn</text>
<text x="24" y="548" font-family="Times New Roman, serif" font-size="10" fill="#111111">- update</text>
<text x="24" y="562" font-family="Times New Roman, serif" font-size="10" fill="#111111">- key_action</text>
<text x="24" y="576" font-family="Times New Roman, serif" font-size="10" fill="#111111">- use_door</text>
<text x="24" y="590" font-family="Times New Roman, serif" font-size="10" fill="#111111">- enemy_x</text>
<text x="24" y="604" font-family="Times New Roman, serif" font-size="10" fill="#111111">- enemy_y</text>
<text x="24" y="618" font-family="Times New Roman, serif" font-size="10" fill="#111111">- enemy_alert</text>
<text x="24" y="632" font-family="Times New Roman, serif" font-size="10" fill="#111111">- dist</text>
<text x="24" y="646" font-family="Times New Roman, serif" font-size="10" fill="#111111">- enemy_step_toward</text>
<text x="24" y="660" font-family="Times New Roman, serif" font-size="10" fill="#111111">- update_enemy</text>
<text x="24" y="674" font-family="Times New Roman, serif" font-size="10" fill="#111111">- update_enemies</text>
<text x="24" y="688" font-family="Times New Roman, serif" font-size="10" fill="#111111">- is_wall_fat</text>
<text x="24" y="702" font-family="Times New Roman, serif" font-size="10" fill="#111111">- los_clear</text>
<text x="24" y="716" font-family="Times New Roman, serif" font-size="10" fill="#111111">- enemy_visible</text>
<text x="24" y="730" font-family="Times New Roman, serif" font-size="10" fill="#111111">- visible_enemies</text>
<text x="24" y="744" font-family="Times New Roman, serif" font-size="10" fill="#111111">- enemy_cell</text>
<text x="24" y="758" font-family="Times New Roman, serif" font-size="10" fill="#111111">- minimap_cell</text>
<text x="24" y="772" font-family="Times New Roman, serif" font-size="10" fill="#111111">- minimap_row</text>
<text x="24" y="786" font-family="Times New Roman, serif" font-size="10" fill="#111111">- build_minimap</text>
<text x="24" y="800" font-family="Times New Roman, serif" font-size="10" fill="#111111">- init_enemies</text>
<text x="24" y="814" font-family="Times New Roman, serif" font-size="10" fill="#111111">- render_packet</text>
<text x="24" y="828" font-family="Times New Roman, serif" font-size="10" fill="#111111">- sfx_step</text>
<text x="24" y="842" font-family="Times New Roman, serif" font-size="10" fill="#111111">- sfx_door</text>
<text x="24" y="856" font-family="Times New Roman, serif" font-size="10" fill="#111111">- sfx_enemy</text>
<text x="24" y="870" font-family="Times New Roman, serif" font-size="10" fill="#111111">- emit_sound</text>
<text x="24" y="884" font-family="Times New Roman, serif" font-size="10" fill="#111111">- game_loop_rec</text>
<text x="24" y="898" font-family="Times New Roman, serif" font-size="10" fill="#111111">- game_loop</text>
<rect x="292" y="16" width="320" height="154" fill="#ffffff" stroke="#111111" stroke-width="1.2"/>
<text x="300" y="30" font-family="Times New Roman, serif" font-size="11" fill="#111111">NELA-S -> Interaction Net</text>
<text x="300" y="44" font-family="Times New Roman, serif" font-size="10" fill="#111111">def / binder -> LAM</text>
<text x="300" y="58" font-family="Times New Roman, serif" font-size="10" fill="#111111">f x / call -> APP + FREF(fn)</text>
<text x="300" y="72" font-family="Times New Roman, serif" font-size="10" fill="#111111">if c then a else b -> IFT</text>
<text x="300" y="86" font-family="Times New Roman, serif" font-size="10" fill="#111111">h :: t / [] -> CON / NIL</text>
<text x="300" y="100" font-family="Times New Roman, serif" font-size="10" fill="#111111">match ... -> MAT (+ branch LAMs)</text>
<text x="300" y="114" font-family="Times New Roman, serif" font-size="10" fill="#111111">x + y, x * y, ... -> ADD, MUL, ...</text>
<text x="300" y="128" font-family="Times New Roman, serif" font-size="10" fill="#111111">io_key / io_print -> IOKEY / IOPRT</text>
<text x="300" y="142" font-family="Times New Roman, serif" font-size="10" fill="#111111">variable usage wiring -> VAR</text>
<text x="300" y="156" font-family="Times New Roman, serif" font-size="10" fill="#111111">copy/discard (linear) -> DUP / ERA</text>
</svg>